<svg xmlns="http://www.w3.org/2000/svg" xmlns:xlink="http://www.w3.org/1999/xlink" version="1.1" class="marks" width="345" height="834" viewBox="0 0 345 834"><rect width="345" height="834" fill="white"/><g fill="none" stroke-miterlimit="10" transform="translate(39,5)"><g class="mark-group role-frame root" role="graphics-object" aria-roledescription="group mark container"><g transform="translate(0,0)"><path class="background" aria-hidden="true" d="M0,0h300v800h-300Z"/><g><g class="mark-group role-axis" aria-hidden="true"><g transform="translate(0.5,800.5)"><path class="background" aria-hidden="true" d="M0,0h0v0h0Z" pointer-events="none"/><g><g class="mark-rule role-axis-grid" pointer-events="none"><line transform="translate(0,0)" x2="0" y2="-800" stroke="#cbcbcb" stroke-width="1" opacity="1"/><line transform="translate(30,0)" x2="0" y2="-800" stroke="#cbcbcb" stroke-width="1" opacity="1"/><line transform="translate(60,0)" x2="0" y2="-800" stroke="#cbcbcb" stroke-width="1" opacity="1"/><line transform="translate(90,0)" x2="0" y2="-800" stroke="#cbcbcb" stroke-width="1" opacity="1"/><line transform="translate(120,0)" x2="0" y2="-800" stroke="#cbcbcb" stroke-width="1" opacity="1"/><line transform="translate(150,0)" x2="0" y2="-800" stroke="#cbcbcb" stroke-width="1" opacity="1"/><line transform="translate(180,0)" x2="0" y2="-800" stroke="#cbcbcb" stroke-width="1" opacity="1"/><line transform="translate(210,0)" x2="0" y2="-800" stroke="#cbcbcb" stroke-width="1" opacity="1"/><line transform="translate(240,0)" x2="0" y2="-800" stroke="#cbcbcb" stroke-width="1" opacity="1"/><line transform="translate(270,0)" x2="0" y2="-800" stroke="#cbcbcb" stroke-width="1" opacity="1"/><line transform="translate(300,0)" x2="0" y2="-800" stroke="#cbcbcb" stroke-width="1" opacity="1"/></g></g><path class="foreground" aria-hidden="true" d="" pointer-events="none" display="none"/></g></g><g class="mark-group role-axis" role="graphics-symbol" aria-roledescription="axis" aria-label="X-axis for a linear scale with values from 0% to 100%"><g transform="translate(0.5,800.5)"><path class="background" aria-hidden="true" d="M0,0h0v0h0Z" pointer-events="none"/><g><g class="mark-rule role-axis-tick" pointer-events="none"><line transform="translate(0,0)" x2="0" y2="10" stroke="#cbcbcb" stroke-width="1" opacity="1"/><line transform="translate(30,0)" x2="0" y2="10" stroke="#cbcbcb" stroke-width="1" opacity="1"/><line transform="translate(60,0)" x2="0" y2="10" stroke="#cbcbcb" stroke-width="1" opacity="1"/><line transform="translate(90,0)" x2="0" y2="10" stroke="#cbcbcb" stroke-width="1" opacity="1"/><line transform="translate(120,0)" x2="0" y2="10" stroke="#cbcbcb" stroke-width="1" opacity="1"/><line transform="translate(150,0)" x2="0" y2="10" stroke="#cbcbcb" stroke-width="1" opacity="1"/><line transform="translate(180,0)" x2="0" y2="10" stroke="#cbcbcb" stroke-width="1" opacity="1"/><line transform="translate(210,0)" x2="0" y2="10" stroke="#cbcbcb" stroke-width="1" opacity="1"/><line transform="translate(240,0)" x2="0" y2="10" stroke="#cbcbcb" stroke-width="1" opacity="1"/><line transform="translate(270,0)" x2="0" y2="10" stroke="#cbcbcb" stroke-width="1" opacity="1"/><line transform="translate(300,0)" x2="0" y2="10" stroke="#cbcbcb" stroke-width="1" opacity="1"/></g><g class="mark-text role-axis-label" pointer-events="none"><text text-anchor="start" transform="translate(0,22)" font-family="sans-serif" font-size="10px" fill="#999" opacity="1">0%</text><text text-anchor="middle" transform="translate(30,22)" font-family="sans-serif" font-size="10px" fill="#999" opacity="0">10%</text><text text-anchor="middle" transform="translate(60,22)" font-family="sans-serif" font-size="10px" fill="#999" opacity="1">20%</text><text text-anchor="middle" transform="translate(90,22)" font-family="sans-serif" font-size="10px" fill="#999" opacity="0">30%</text><text text-anchor="middle" transform="translate(120,22)" font-family="sans-serif" font-size="10px" fill="#999" opacity="1">40%</text><text text-anchor="middle" transform="translate(150,22)" font-family="sans-serif" font-size="10px" fill="#999" opacity="0">50%</text><text text-anchor="middle" transform="translate(180,22)" font-family="sans-serif" font-size="10px" fill="#999" opacity="1">60%</text><text text-anchor="middle" transform="translate(210,22)" font-family="sans-serif" font-size="10px" fill="#999" opacity="0">70%</text><text text-anchor="middle" transform="translate(240,22)" font-family="sans-serif" font-size="10px" fill="#999" opacity="1">80%</text><text text-anchor="middle" transform="translate(270,22)" font-family="sans-serif" font-size="10px" fill="#999" opacity="0">90%</text><text text-anchor="end" transform="translate(300,22)" font-family="sans-serif" font-size="10px" fill="#999" opacity="1">100%</text></g><g class="mark-rule role-axis-domain" pointer-events="none"><line transform="translate(0,0)" x2="300" y2="0" stroke="#cbcbcb" stroke-width="1" opacity="1"/></g></g><path class="foreground" aria-hidden="true" d="" pointer-events="none" display="none"/></g></g><g class="mark-group role-axis" role="graphics-symbol" aria-roledescription="axis" aria-label="Y-axis for a discrete scale with 40 values: KY, MD, AL, VA, TN, ending with RI"><g transform="translate(0.5,0.5)"><path class="background" aria-hidden="true" d="M0,0h0v0h0Z" pointer-events="none"/><g><g class="mark-rule role-axis-tick" pointer-events="none"><line transform="translate(0,10)" x2="-10" y2="0" stroke="#cbcbcb" stroke-width="1" opacity="1"/><line transform="translate(0,30)" x2="-10" y2="0" stroke="#cbcbcb" stroke-width="1" opacity="1"/><line transform="translate(0,50)" x2="-10" y2="0" stroke="#cbcbcb" stroke-width="1" opacity="1"/><line transform="translate(0,70)" x2="-10" y2="0" stroke="#cbcbcb" stroke-width="1" opacity="1"/><line transform="translate(0,90)" x2="-10" y2="0" stroke="#cbcbcb" stroke-width="1" opacity="1"/><line transform="translate(0,110)" x2="-10" y2="0" stroke="#cbcbcb" stroke-width="1" opacity="1"/><line transform="translate(0,130)" x2="-10" y2="0" stroke="#cbcbcb" stroke-width="1" opacity="1"/><line transform="translate(0,150)" x2="-10" y2="0" stroke="#cbcbcb" stroke-width="1" opacity="1"/><line transform="translate(0,170)" x2="-10" y2="0" stroke="#cbcbcb" stroke-width="1" opacity="1"/><line transform="translate(0,190)" x2="-10" y2="0" stroke="#cbcbcb" stroke-width="1" opacity="1"/><line transform="translate(0,210)" x2="-10" y2="0" stroke="#cbcbcb" stroke-width="1" opacity="1"/><line transform="translate(0,230)" x2="-10" y2="0" stroke="#cbcbcb" stroke-width="1" opacity="1"/><line transform="translate(0,250)" x2="-10" y2="0" stroke="#cbcbcb" stroke-width="1" opacity="1"/><line transform="translate(0,270)" x2="-10" y2="0" stroke="#cbcbcb" stroke-width="1" opacity="1"/><line transform="translate(0,290)" x2="-10" y2="0" stroke="#cbcbcb" stroke-width="1" opacity="1"/><line transform="translate(0,310)" x2="-10" y2="0" stroke="#cbcbcb" stroke-width="1" opacity="1"/><line transform="translate(0,330)" x2="-10" y2="0" stroke="#cbcbcb" stroke-width="1" opacity="1"/><line transform="translate(0,350)" x2="-10" y2="0" stroke="#cbcbcb" stroke-width="1" opacity="1"/><line transform="translate(0,370)" x2="-10" y2="0" stroke="#cbcbcb" stroke-width="1" opacity="1"/><line transform="translate(0,390)" x2="-10" y2="0" stroke="#cbcbcb" stroke-width="1" opacity="1"/><line transform="translate(0,410)" x2="-10" y2="0" stroke="#cbcbcb" stroke-width="1" opacity="1"/><line transform="translate(0,430)" x2="-10" y2="0" stroke="#cbcbcb" stroke-width="1" opacity="1"/><line transform="translate(0,450)" x2="-10" y2="0" stroke="#cbcbcb" stroke-width="1" opacity="1"/><line transform="translate(0,470)" x2="-10" y2="0" stroke="#cbcbcb" stroke-width="1" opacity="1"/><line transform="translate(0,490)" x2="-10" y2="0" stroke="#cbcbcb" stroke-width="1" opacity="1"/><line transform="translate(0,510)" x2="-10" y2="0" stroke="#cbcbcb" stroke-width="1" opacity="1"/><line transform="translate(0,530)" x2="-10" y2="0" stroke="#cbcbcb" stroke-width="1" opacity="1"/><line transform="translate(0,550)" x2="-10" y2="0" stroke="#cbcbcb" stroke-width="1" opacity="1"/><line transform="translate(0,570)" x2="-10" y2="0" stroke="#cbcbcb" stroke-width="1" opacity="1"/><line transform="translate(0,590)" x2="-10" y2="0" stroke="#cbcbcb" stroke-width="1" opacity="1"/><line transform="translate(0,610)" x2="-10" y2="0" stroke="#cbcbcb" stroke-width="1" opacity="1"/><line transform="translate(0,630)" x2="-10" y2="0" stroke="#cbcbcb" stroke-width="1" opacity="1"/><line transform="translate(0,650)" x2="-10" y2="0" stroke="#cbcbcb" stroke-width="1" opacity="1"/><line transform="translate(0,670)" x2="-10" y2="0" stroke="#cbcbcb" stroke-width="1" opacity="1"/><line transform="translate(0,690)" x2="-10" y2="0" stroke="#cbcbcb" stroke-width="1" opacity="1"/><line transform="translate(0,710)" x2="-10" y2="0" stroke="#cbcbcb" stroke-width="1" opacity="1"/><line transform="translate(0,730)" x2="-10" y2="0" stroke="#cbcbcb" stroke-width="1" opacity="1"/><line transform="translate(0,750)" x2="-10" y2="0" stroke="#cbcbcb" stroke-width="1" opacity="1"/><line transform="translate(0,770)" x2="-10" y2="0" stroke="#cbcbcb" stroke-width="1" opacity="1"/><line transform="translate(0,790)" x2="-10" y2="0" stroke="#cbcbcb" stroke-width="1" opacity="1"/></g><g class="mark-text role-axis-label" pointer-events="none"><text text-anchor="end" transform="translate(-14,13.5)" font-family="sans-serif" font-size="12px" font-style="bold" fill="black" opacity="1">KY</text><text text-anchor="end" transform="translate(-14,33.5)" font-family="sans-serif" font-size="12px" font-style="bold" fill="black" opacity="1">MD</text><text text-anchor="end" transform="translate(-14,53.5)" font-family="sans-serif" font-size="12px" font-style="bold" fill="black" opacity="1">AL</text><text text-anchor="end" transform="translate(-14,73.5)" font-family="sans-serif" font-size="12px" font-style="bold" fill="black" opacity="1">VA</text><text text-anchor="end" transform="translate(-14,93.5)" font-family="sans-serif" font-size="12px" font-style="bold" fill="black" opacity="1">TN</text><text text-anchor="end" transform="translate(-14,113.5)" font-family="sans-serif" font-size="12px" font-style="bold" fill="black" opacity="1">CT</text><text text-anchor="end" transform="translate(-14,133.5)" font-family="sans-serif" font-size="12px" font-style="bold" fill="black" opacity="1">OH</text><text text-anchor="end" transform="translate(-14,153.5)" font-family="sans-serif" font-size="12px" font-style="bold" fill="black" opacity="1">WV</text><text text-anchor="end" transform="translate(-14,173.5)" font-family="sans-serif" font-size="12px" font-style="bold" fill="black" opacity="1">NY</text><text text-anchor="end" transform="translate(-14,193.5)" font-family="sans-serif" font-size="12px" font-style="bold" fill="black" opacity="1">DC</text><text text-anchor="end" transform="translate(-14,213.5)" font-family="sans-serif" font-size="12px" font-style="bold" fill="black" opacity="1">ID</text><text text-anchor="end" transform="translate(-14,233.5)" font-family="sans-serif" font-size="12px" font-style="bold" fill="black" opacity="1">SC</text><text text-anchor="end" transform="translate(-14,253.5)" font-family="sans-serif" font-size="12px" font-style="bold" fill="black" opacity="1">AZ</text><text text-anchor="end" transform="translate(-14,273.5)" font-family="sans-serif" font-size="12px" font-style="bold" fill="black" opacity="1">NJ</text><text text-anchor="end" transform="translate(-14,293.5)" font-family="sans-serif" font-size="12px" font-style="bold" fill="black" opacity="1">GA</text><text text-anchor="end" transform="translate(-14,313.5)" font-family="sans-serif" font-size="12px" font-style="bold" fill="black" opacity="1">KS</text><text text-anchor="end" transform="translate(-14,333.5)" font-family="sans-serif" font-size="12px" font-style="bold" fill="black" opacity="1">CA</text><text text-anchor="end" transform="translate(-14,353.5)" font-family="sans-serif" font-size="12px" font-style="bold" fill="black" opacity="1">ME</text><text text-anchor="end" transform="translate(-14,373.5)" font-family="sans-serif" font-size="12px" font-style="bold" fill="black" opacity="1">VT</text><text text-anchor="end" transform="translate(-14,393.5)" font-family="sans-serif" font-size="12px" font-style="bold" fill="black" opacity="1">UT</text><text text-anchor="end" transform="translate(-14,413.5)" font-family="sans-serif" font-size="12px" font-style="bold" fill="black" opacity="1">FL</text><text text-anchor="end" transform="translate(-14,433.5)" font-family="sans-serif" font-size="12px" font-style="bold" fill="black" opacity="1">MO</text><text text-anchor="end" transform="translate(-14,453.5)" font-family="sans-serif" font-size="12px" font-style="bold" fill="black" opacity="1">MS</text><text text-anchor="end" transform="translate(-14,473.5)" font-family="sans-serif" font-size="12px" font-style="bold" fill="black" opacity="1">OR</text><text text-anchor="end" transform="translate(-14,493.5)" font-family="sans-serif" font-size="12px" font-style="bold" fill="black" opacity="1">CO</text><text text-anchor="end" transform="translate(-14,513.5)" font-family="sans-serif" font-size="12px" font-style="bold" fill="black" opacity="1">AK</text><text text-anchor="end" transform="translate(-14,533.5)" font-family="sans-serif" font-size="12px" font-style="bold" fill="black" opacity="1">NC</text><text text-anchor="end" transform="translate(-14,553.5)" font-family="sans-serif" font-size="12px" font-style="bold" fill="black" opacity="1">TX</text><text text-anchor="end" transform="translate(-14,573.5)" font-family="sans-serif" font-size="12px" font-style="bold" fill="black" opacity="1">DE</text><text text-anchor="end" transform="translate(-14,593.5)" font-family="sans-serif" font-size="12px" font-style="bold" fill="black" opacity="1">MA</text><text text-anchor="end" transform="translate(-14,613.5)" font-family="sans-serif" font-size="12px" font-style="bold" fill="black" opacity="1">WA</text><text text-anchor="end" transform="translate(-14,633.5)" font-family="sans-serif" font-size="12px" font-style="bold" fill="black" opacity="1">SD</text><text text-anchor="end" transform="translate(-14,653.5)" font-family="sans-serif" font-size="12px" font-style="bold" fill="black" opacity="1">WI</text><text text-anchor="end" transform="translate(-14,673.5)" font-family="sans-serif" font-size="12px" font-style="bold" fill="black" opacity="1">WY</text><text text-anchor="end" transform="translate(-14,693.5)" font-family="sans-serif" font-size="12px" font-style="bold" fill="black" opacity="1">HI</text><text text-anchor="end" transform="translate(-14,713.5)" font-family="sans-serif" font-size="12px" font-style="bold" fill="black" opacity="1">IA</text><text text-anchor="end" transform="translate(-14,733.5)" font-family="sans-serif" font-size="12px" font-style="bold" fill="black" opacity="1">NV</text><text text-anchor="end" transform="translate(-14,753.5)" font-family="sans-serif" font-size="12px" font-style="bold" fill="black" opacity="1">NM</text><text text-anchor="end" transform="translate(-14,773.5)" font-family="sans-serif" font-size="12px" font-style="bold" fill="black" opacity="1">NH</text><text text-anchor="end" transform="translate(-14,793.5)" font-family="sans-serif" font-size="12px" font-style="bold" fill="black" opacity="1">RI</text></g><g class="mark-rule role-axis-domain" pointer-events="none"><line transform="translate(0,0)" x2="0" y2="800" stroke="#cbcbcb" stroke-width="1" opacity="1"/></g></g><path class="foreground" aria-hidden="true" d="" pointer-events="none" display="none"/></g></g><g class="mark-rect role-mark layer_0_marks" role="graphics-symbol" aria-roledescription="rect mark container"><path d="M0,501h30v18h-30Z" fill="#74372F"/><path d="M0,41h231.69642857142858v18h-231.69642857142858Z" fill="#74372F"/><path d="M0,241h107.74647887323944v18h-107.74647887323944Z" fill="#74372F"/><path d="M0,321h86.85567010309279v18h-86.85567010309279Z" fill="#74372F"/><path d="M0,481h45.497630331753555v18h-45.497630331753555Z" fill="#74372F"/><path d="M0,101h173.19587628865978v18h-173.19587628865978Z" fill="#74372F"/><path d="M0,181h123.52941176470587v18h-123.52941176470587Z" fill="#74372F"/><path d="M0,561h20.454545454545453v18h-20.454545454545453Z" fill="#74372F"/><path d="M0,401h60.775862068965516v18h-60.775862068965516Z" fill="#74372F"/><path d="M0,281h103.36134453781513v18h-103.36134453781513Z" fill="#74372F"/><path d="M0,681h7.142857142857142v18h-7.142857142857142Z" fill="#74372F"/><path d="M0,701h5.9405940594059405v18h-5.9405940594059405Z" fill="#74372F"/><path d="M0,201h120v18h-120Z" fill="#74372F"/><path d="M0,301h97.37704918032787v18h-97.37704918032787Z" fill="#74372F"/><path d="M0,1h237.54646840148698v18h-237.54646840148698Z" fill="#74372F"/><path d="M0,581h19.130434782608695v18h-19.130434782608695Z" fill="#74372F"/><path d="M0,21h233.7837837837838v18h-233.7837837837838Z" fill="#74372F"/><path d="M0,341h86.25v18h-86.25Z" fill="#74372F"/><path d="M0,421h60.36585365853659v18h-60.36585365853659Z" fill="#74372F"/><path d="M0,441h51.980198019801975v18h-51.980198019801975Z" fill="#74372F"/><path d="M0,521h22.911694510739856v18h-22.911694510739856Z" fill="#74372F"/><path d="M0,761h4.054054054054054v18h-4.054054054054054Z" fill="#74372F"/><path d="M0,261h106.64739884393065v18h-106.64739884393065Z" fill="#74372F"/><path d="M0,741h4.411764705882353v18h-4.411764705882353Z" fill="#74372F"/><path d="M0,721h4.477611940298507v18h-4.477611940298507Z" fill="#74372F"/><path d="M0,161h131.34328358208955v18h-131.34328358208955Z" fill="#74372F"/><path d="M0,121h165.016146393972v18h-165.016146393972Z" fill="#74372F"/><path d="M0,461h49.21875v18h-49.21875Z" fill="#74372F"/><path d="M0,781h4.054054054054054v18h-4.054054054054054Z" fill="#74372F"/><path d="M0,221h114.28571428571428v18h-114.28571428571428Z" fill="#74372F"/><path d="M0,621h18.556701030927837v18h-18.556701030927837Z" fill="#74372F"/><path d="M0,81h188.48684210526315v18h-188.48684210526315Z" fill="#74372F"/><path d="M0,541h22.78481012658228v18h-22.78481012658228Z" fill="#74372F"/><path d="M0,381h70.40816326530613v18h-70.40816326530613Z" fill="#74372F"/><path d="M0,61h205.86206896551727v18h-205.86206896551727Z" fill="#74372F"/><path d="M0,361h70.58823529411765v18h-70.58823529411765Z" fill="#74372F"/><path d="M0,601h18.65284974093264v18h-18.65284974093264Z" fill="#74372F"/><path d="M0,641h15.644171779141104v18h-15.644171779141104Z" fill="#74372F"/><path d="M0,141h131.70731707317074v18h-131.70731707317074Z" fill="#74372F"/><path d="M0,661h8.571428571428571v18h-8.571428571428571Z" fill="#74372F"/></g><g class="mark-text role-mark layer_1_marks" role="graphics-object" aria-roledescription="text mark container"><text text-anchor="middle" transform="translate(19,513)" font-family="sans-serif" font-size="10px" fill="white">10%</text><text text-anchor="middle" transform="translate(220.69642857142858,53)" font-family="sans-serif" font-size="10px" fill="white">77%</text><text text-anchor="middle" transform="translate(96.74647887323944,253)" font-family="sans-serif" font-size="10px" fill="white">35%</text><text text-anchor="middle" transform="translate(75.85567010309279,333)" font-family="sans-serif" font-size="10px" fill="white">28%</text><text text-anchor="middle" transform="translate(34.497630331753555,493)" font-family="sans-serif" font-size="10px" fill="white">15%</text><text text-anchor="middle" transform="translate(162.19587628865978,113)" font-family="sans-serif" font-size="10px" fill="white">57%</text><text text-anchor="middle" transform="translate(112.52941176470587,193)" font-family="sans-serif" font-size="10px" fill="white">41%</text><text text-anchor="middle" transform="translate(9.454545454545453,573)" font-family="sans-serif" font-size="10px" fill="white">6%</text><text text-anchor="middle" transform="translate(49.775862068965516,413)" font-family="sans-serif" font-size="10px" fill="white">20%</text><text text-anchor="middle" transform="translate(92.36134453781513,293)" font-family="sans-serif" font-size="10px" fill="white">34%</text><text text-anchor="middle" transform="translate(-3.8571428571428577,693)" font-family="sans-serif" font-size="10px" fill="white"/><text text-anchor="middle" transform="translate(-5.0594059405940595,713)" font-family="sans-serif" font-size="10px" fill="white"/><text text-anchor="middle" transform="translate(109,213)" font-family="sans-serif" font-size="10px" fill="white">40%</text><text text-anchor="middle" transform="translate(86.37704918032787,313)" font-family="sans-serif" font-size="10px" fill="white">32%</text><text text-anchor="middle" transform="translate(226.54646840148698,13)" font-family="sans-serif" font-size="10px" fill="white">79%</text><text text-anchor="middle" transform="translate(8.130434782608695,593)" font-family="sans-serif" font-size="10px" fill="white">6%</text><text text-anchor="middle" transform="translate(222.7837837837838,33)" font-family="sans-serif" font-size="10px" fill="white">77%</text><text text-anchor="middle" transform="translate(75.25,353)" font-family="sans-serif" font-size="10px" fill="white">28%</text><text text-anchor="middle" transform="translate(49.36585365853659,433)" font-family="sans-serif" font-size="10px" fill="white">20%</text><text text-anchor="middle" transform="translate(40.980198019801975,453)" font-family="sans-serif" font-size="10px" fill="white">17%</text><text text-anchor="middle" transform="translate(11.911694510739856,533)" font-family="sans-serif" font-size="10px" fill="white">7%</text><text text-anchor="middle" transform="translate(-6.945945945945946,773)" font-family="sans-serif" font-size="10px" fill="white"/><text text-anchor="middle" transform="translate(95.64739884393065,273)" font-family="sans-serif" font-size="10px" fill="white">35%</text><text text-anchor="middle" transform="translate(-6.588235294117647,753)" font-family="sans-serif" font-size="10px" fill="white"/><text text-anchor="middle" transform="translate(-6.522388059701493,733)" font-family="sans-serif" font-size="10px" fill="white"/><text text-anchor="middle" transform="translate(120.34328358208955,173)" font-family="sans-serif" font-size="10px" fill="white">43%</text><text text-anchor="middle" transform="translate(154.016146393972,133)" font-family="sans-serif" font-size="10px" fill="white">55%</text><text text-anchor="middle" transform="translate(38.21875,473)" font-family="sans-serif" font-size="10px" fill="white">16%</text><text text-anchor="middle" transform="translate(-6.945945945945946,793)" font-family="sans-serif" font-size="10px" fill="white"/><text text-anchor="middle" transform="translate(103.28571428571428,233)" font-family="sans-serif" font-size="10px" fill="white">38%</text><text text-anchor="middle" transform="translate(7.556701030927837,633)" font-family="sans-serif" font-size="10px" fill="white">6%</text><text text-anchor="middle" transform="translate(177.48684210526315,93)" font-family="sans-serif" font-size="10px" fill="white">62%</text><text text-anchor="middle" transform="translate(11.784810126582279,553)" font-family="sans-serif" font-size="10px" fill="white">7%</text><text text-anchor="middle" transform="translate(59.40816326530613,393)" font-family="sans-serif" font-size="10px" fill="white">23%</text><text text-anchor="middle" transform="translate(194.86206896551727,73)" font-family="sans-serif" font-size="10px" fill="white">68%</text><text text-anchor="middle" transform="translate(59.58823529411765,373)" font-family="sans-serif" font-size="10px" fill="white">23%</text><text text-anchor="middle" transform="translate(7.652849740932641,613)" font-family="sans-serif" font-size="10px" fill="white">6%</text><text text-anchor="middle" transform="translate(4.644171779141104,653)" font-family="sans-serif" font-size="10px" fill="white"/><text text-anchor="middle" transform="translate(120.70731707317074,153)" font-family="sans-serif" font-size="10px" fill="white">43%</text><text text-anchor="middle" transform="translate(-2.428571428571429,673)" font-family="sans-serif" font-size="10px" fill="white"/></g></g><path class="foreground" aria-hidden="true" d="" display="none"/></g></g></g></svg>