<svg xmlns="http://www.w3.org/2000/svg" xmlns:xlink="http://www.w3.org/1999/xlink" version="1.1" class="marks" width="688" height="395" viewBox="0 0 688 395"><rect width="688" height="395" fill="white"/><g fill="none" stroke-miterlimit="10" transform="translate(60,26)"><g class="mark-group role-frame root" role="graphics-object" aria-roledescription="group mark container"><g transform="translate(0,0)"><path class="background" aria-hidden="true" d="M0,0h0v0h0Z" fill="#f0f0f0"/><g><g class="mark-group role-row-header row_header" role="graphics-object" aria-roledescription="group mark container"><g transform="translate(-1,0)"><path class="background" aria-hidden="true" d="M0,0h0v300h0Z"/><g><g class="mark-group role-axis" role="graphics-symbol" aria-roledescription="axis" aria-label="Y-axis titled 'State Count' for a linear scale with values from 0 to 13"><g transform="translate(0.5,0.5)"><path class="background" aria-hidden="true" d="M0,0h0v0h0Z" pointer-events="none"/><g><g class="mark-rule role-axis-tick" pointer-events="none"><line transform="translate(0,300)" x2="-10" y2="0" stroke="#cbcbcb" stroke-width="1" opacity="1"/><line transform="translate(0,254)" x2="-10" y2="0" stroke="#cbcbcb" stroke-width="1" opacity="1"/><line transform="translate(0,208)" x2="-10" y2="0" stroke="#cbcbcb" stroke-width="1" opacity="1"/><line transform="translate(0,162)" x2="-10" y2="0" stroke="#cbcbcb" stroke-width="1" opacity="1"/><line transform="translate(0,115)" x2="-10" y2="0" stroke="#cbcbcb" stroke-width="1" opacity="1"/><line transform="translate(0,69)" x2="-10" y2="0" stroke="#cbcbcb" stroke-width="1" opacity="1"/><line transform="translate(0,23)" x2="-10" y2="0" stroke="#cbcbcb" stroke-width="1" opacity="1"/></g><g class="mark-text role-axis-label" pointer-events="none"><text text-anchor="end" transform="translate(-14,304)" font-family="sans-serif" font-size="14px" fill="#999" opacity="1">0</text><text text-anchor="end" transform="translate(-14,257.8461538461538)" font-family="sans-serif" font-size="14px" fill="#999" opacity="1">2</text><text text-anchor="end" transform="translate(-14,211.69230769230768)" font-family="sans-serif" font-size="14px" fill="#999" opacity="1">4</text><text text-anchor="end" transform="translate(-14,165.53846153846152)" font-family="sans-serif" font-size="14px" fill="#999" opacity="1">6</text><text text-anchor="end" transform="translate(-14,119.38461538461537)" font-family="sans-serif" font-size="14px" fill="#999" opacity="1">8</text><text text-anchor="end" transform="translate(-14,73.23076923076921)" font-family="sans-serif" font-size="14px" fill="#999" opacity="1">10</text><text text-anchor="end" transform="translate(-14,27.076923076923062)" font-family="sans-serif" font-size="14px" fill="#999" opacity="1">12</text></g><g class="mark-rule role-axis-domain" pointer-events="none"><line transform="translate(0,300)" x2="0" y2="-300" stroke="#cbcbcb" stroke-width="1" opacity="1"/></g><g class="mark-text role-axis-title" pointer-events="none"><text text-anchor="middle" transform="translate(-39.572265625,150) rotate(-90) translate(0,-3)" font-family="sans-serif" font-size="14px" font-weight="bold" fill="#333" opacity="1">State Count</text></g></g><path class="foreground" aria-hidden="true" d="" pointer-events="none" display="none"/></g></g></g><path class="foreground" aria-hidden="true" d="" display="none"/></g></g><g class="mark-group role-column-header column_header" role="graphics-object" aria-roledescription="group mark container"><g transform="translate(0,-1)"><path class="background" aria-hidden="true" d="M0,0h300v0h-300Z"/><g><g class="mark-group role-title"><g transform="translate(150,-20)"><path class="background" aria-hidden="true" d="M0,0h0v0h0Z" pointer-events="none"/><g><g class="mark-text role-title-text" role="graphics-symbol" aria-roledescription="title" aria-label="Title text '2002'" pointer-events="none"><text text-anchor="middle" transform="translate(0,8)" font-family="sans-serif" font-size="10px" fill="#000" opacity="1">2002</text></g></g><path class="foreground" aria-hidden="true" d="" pointer-events="none" display="none"/></g></g></g><path class="foreground" aria-hidden="true" d="" display="none"/></g><g transform="translate(322,-1)"><path class="background" aria-hidden="true" d="M0,0h300v0h-300Z"/><g><g class="mark-group role-title"><g transform="translate(150,-20)"><path class="background" aria-hidden="true" d="M0,0h0v0h0Z" pointer-events="none"/><g><g class="mark-text role-title-text" role="graphics-symbol" aria-roledescription="title" aria-label="Title text '2022'" pointer-events="none"><text text-anchor="middle" transform="translate(0,8)" font-family="sans-serif" font-size="10px" fill="#000" opacity="1">2022</text></g></g><path class="foreground" aria-hidden="true" d="" pointer-events="none" display="none"/></g></g></g><path class="foreground" aria-hidden="true" d="" display="none"/></g></g><g class="mark-group role-column-footer column_footer" role="graphics-object" aria-roledescription="group mark container"><g transform="translate(0,301)"><path class="background" aria-hidden="true" d="M0,0h300v0h-300Z"/><g><g class="mark-group role-axis" role="graphics-symbol" aria-roledescription="axis" aria-label="X-axis for a linear scale with values from 0 to 80"><g transform="translate(0.5,0.5)"><path class="background" aria-hidden="true" d="M0,0h0v0h0Z" pointer-events="none"/><g><g class="mark-rule role-axis-tick" pointer-events="none"><line transform="translate(0,0)" x2="0" y2="10" stroke="#cbcbcb" stroke-width="1" opacity="1"/><line transform="translate(38,0)" x2="0" y2="10" stroke="#cbcbcb" stroke-width="1" opacity="1"/><line transform="translate(75,0)" x2="0" y2="10" stroke="#cbcbcb" stroke-width="1" opacity="1"/><line transform="translate(113,0)" x2="0" y2="10" stroke="#cbcbcb" stroke-width="1" opacity="1"/><line transform="translate(150,0)" x2="0" y2="10" stroke="#cbcbcb" stroke-width="1" opacity="1"/><line transform="translate(188,0)" x2="0" y2="10" stroke="#cbcbcb" stroke-width="1" opacity="1"/><line transform="translate(225,0)" x2="0" y2="10" stroke="#cbcbcb" stroke-width="1" opacity="1"/><line transform="translate(263,0)" x2="0" y2="10" stroke="#cbcbcb" stroke-width="1" opacity="1"/><line transform="translate(300,0)" x2="0" y2="10" stroke="#cbcbcb" stroke-width="1" opacity="1"/></g><g class="mark-text role-axis-label" pointer-events="none"><text text-anchor="start" transform="translate(0,25)" font-family="sans-serif" font-size="14px" fill="#999" opacity="1">0</text><text text-anchor="middle" transform="translate(37.5,25)" font-family="sans-serif" font-size="14px" fill="#999" opacity="1">10</text><text text-anchor="middle" transform="translate(75,25)" font-family="sans-serif" font-size="14px" fill="#999" opacity="1">20</text><text text-anchor="middle" transform="translate(112.5,25)" font-family="sans-serif" font-size="14px" fill="#999" opacity="1">30</text><text text-anchor="middle" transform="translate(150,25)" font-family="sans-serif" font-size="14px" fill="#999" opacity="1">40</text><text text-anchor="middle" transform="translate(187.5,25)" font-family="sans-serif" font-size="14px" fill="#999" opacity="1">50</text><text text-anchor="middle" transform="translate(225,25)" font-family="sans-serif" font-size="14px" fill="#999" opacity="1">60</text><text text-anchor="middle" transform="translate(262.5,25)" font-family="sans-serif" font-size="14px" fill="#999" opacity="1">70</text><text text-anchor="end" transform="translate(300,25)" font-family="sans-serif" font-size="14px" fill="#999" opacity="1">80</text></g><g class="mark-rule role-axis-domain" pointer-events="none"><line transform="translate(0,0)" x2="300" y2="0" stroke="#cbcbcb" stroke-width="1" opacity="1"/></g></g><path class="foreground" aria-hidden="true" d="" pointer-events="none" display="none"/></g></g></g><path class="foreground" aria-hidden="true" d="" display="none"/></g><g transform="translate(322,301)"><path class="background" aria-hidden="true" d="M0,0h300v0h-300Z"/><g><g class="mark-group role-axis" role="graphics-symbol" aria-roledescription="axis" aria-label="X-axis for a linear scale with values from 0 to 80"><g transform="translate(0.5,0.5)"><path class="background" aria-hidden="true" d="M0,0h0v0h0Z" pointer-events="none"/><g><g class="mark-rule role-axis-tick" pointer-events="none"><line transform="translate(0,0)" x2="0" y2="10" stroke="#cbcbcb" stroke-width="1" opacity="1"/><line transform="translate(38,0)" x2="0" y2="10" stroke="#cbcbcb" stroke-width="1" opacity="1"/><line transform="translate(75,0)" x2="0" y2="10" stroke="#cbcbcb" stroke-width="1" opacity="1"/><line transform="translate(113,0)" x2="0" y2="10" stroke="#cbcbcb" stroke-width="1" opacity="1"/><line transform="translate(150,0)" x2="0" y2="10" stroke="#cbcbcb" stroke-width="1" opacity="1"/><line transform="translate(188,0)" x2="0" y2="10" stroke="#cbcbcb" stroke-width="1" opacity="1"/><line transform="translate(225,0)" x2="0" y2="10" stroke="#cbcbcb" stroke-width="1" opacity="1"/><line transform="translate(263,0)" x2="0" y2="10" stroke="#cbcbcb" stroke-width="1" opacity="1"/><line transform="translate(300,0)" x2="0" y2="10" stroke="#cbcbcb" stroke-width="1" opacity="1"/></g><g class="mark-text role-axis-label" pointer-events="none"><text text-anchor="start" transform="translate(0,25)" font-family="sans-serif" font-size="14px" fill="#999" opacity="1">0</text><text text-anchor="middle" transform="translate(37.5,25)" font-family="sans-serif" font-size="14px" fill="#999" opacity="1">10</text><text text-anchor="middle" transform="translate(75,25)" font-family="sans-serif" font-size="14px" fill="#999" opacity="1">20</text><text text-anchor="middle" transform="translate(112.5,25)" font-family="sans-serif" font-size="14px" fill="#999" opacity="1">30</text><text text-anchor="middle" transform="translate(150,25)" font-family="sans-serif" font-size="14px" fill="#999" opacity="1">40</text><text text-anchor="middle" transform="translate(187.5,25)" font-family="sans-serif" font-size="14px" fill="#999" opacity="1">50</text><text text-anchor="middle" transform="translate(225,25)" font-family="sans-serif" font-size="14px" fill="#999" opacity="1">60</text><text text-anchor="middle" transform="translate(262.5,25)" font-family="sans-serif" font-size="14px" fill="#999" opacity="1">70</text><text text-anchor="end" transform="translate(300,25)" font-family="sans-serif" font-size="14px" fill="#999" opacity="1">80</text></g><g class="mark-rule role-axis-domain" pointer-events="none"><line transform="translate(0,0)" x2="300" y2="0" stroke="#cbcbcb" stroke-width="1" opacity="1"/></g></g><path class="foreground" aria-hidden="true" d="" pointer-events="none" display="none"/></g></g></g><path class="foreground" aria-hidden="true" d="" display="none"/></g></g><g class="mark-group role-scope cell" role="graphics-object" aria-roledescription="group mark container"><g transform="translate(0,0)"><path class="background" aria-hidden="true" d="M0.5,0.5h300v300h-300Z" stroke="#ddd"/><g><g class="mark-group role-axis" aria-hidden="true"><g transform="translate(0.5,300.5)"><path class="background" aria-hidden="true" d="M0,0h0v0h0Z" pointer-events="none"/><g><g class="mark-rule role-axis-grid" pointer-events="none"><line transform="translate(0,-300)" x2="0" y2="300" stroke="#cbcbcb" stroke-width="1" opacity="1"/><line transform="translate(38,-300)" x2="0" y2="300" stroke="#cbcbcb" stroke-width="1" opacity="1"/><line transform="translate(75,-300)" x2="0" y2="300" stroke="#cbcbcb" stroke-width="1" opacity="1"/><line transform="translate(113,-300)" x2="0" y2="300" stroke="#cbcbcb" stroke-width="1" opacity="1"/><line transform="translate(150,-300)" x2="0" y2="300" stroke="#cbcbcb" stroke-width="1" opacity="1"/><line transform="translate(188,-300)" x2="0" y2="300" stroke="#cbcbcb" stroke-width="1" opacity="1"/><line transform="translate(225,-300)" x2="0" y2="300" stroke="#cbcbcb" stroke-width="1" opacity="1"/><line transform="translate(263,-300)" x2="0" y2="300" stroke="#cbcbcb" stroke-width="1" opacity="1"/><line transform="translate(300,-300)" x2="0" y2="300" stroke="#cbcbcb" stroke-width="1" opacity="1"/></g></g><path class="foreground" aria-hidden="true" d="" pointer-events="none" display="none"/></g></g><g class="mark-group role-axis" aria-hidden="true"><g transform="translate(0.5,0.5)"><path class="background" aria-hidden="true" d="M0,0h0v0h0Z" pointer-events="none"/><g><g class="mark-rule role-axis-grid" pointer-events="none"><line transform="translate(0,300)" x2="300" y2="0" stroke="#cbcbcb" stroke-width="1" opacity="1"/><line transform="translate(0,254)" x2="300" y2="0" stroke="#cbcbcb" stroke-width="1" opacity="1"/><line transform="translate(0,208)" x2="300" y2="0" stroke="#cbcbcb" stroke-width="1" opacity="1"/><line transform="translate(0,162)" x2="300" y2="0" stroke="#cbcbcb" stroke-width="1" opacity="1"/><line transform="translate(0,115)" x2="300" y2="0" stroke="#cbcbcb" stroke-width="1" opacity="1"/><line transform="translate(0,69)" x2="300" y2="0" stroke="#cbcbcb" stroke-width="1" opacity="1"/><line transform="translate(0,23)" x2="300" y2="0" stroke="#cbcbcb" stroke-width="1" opacity="1"/></g></g><path class="foreground" aria-hidden="true" d="" pointer-events="none" display="none"/></g></g><g class="mark-rect role-mark child_marks" role="graphics-symbol" aria-roledescription="rect mark container"><path d="M151.5,161.53846153846152h35.5v138.46153846153848h-35.5Z" fill="#C0AB26"/><path d="M76.5,115.38461538461537h35.5v184.61538461538464h-35.5Z" fill="#C0AB26"/><path d="M114,138.46153846153848h35.5v161.53846153846152h-35.5Z" fill="#C0AB26"/><path d="M189,138.46153846153848h35.5v161.53846153846152h-35.5Z" fill="#C0AB26"/><path d="M1.5,207.69230769230768h35.5v92.30769230769232h-35.5Z" fill="#C0AB26"/><path d="M39,161.53846153846152h35.5v138.46153846153848h-35.5Z" fill="#C0AB26"/><path d="M264,276.92307692307696h35.5v23.076923076923038h-35.5Z" fill="#C0AB26"/><path d="M226.5,253.84615384615384h35.5v46.15384615384616h-35.5Z" fill="#C0AB26"/></g></g><path class="foreground" aria-hidden="true" d="" display="none"/></g><g transform="translate(322,0)"><path class="background" aria-hidden="true" d="M0.5,0.5h300v300h-300Z" stroke="#ddd"/><g><g class="mark-group role-axis" aria-hidden="true"><g transform="translate(0.5,300.5)"><path class="background" aria-hidden="true" d="M0,0h0v0h0Z" pointer-events="none"/><g><g class="mark-rule role-axis-grid" pointer-events="none"><line transform="translate(0,-300)" x2="0" y2="300" stroke="#cbcbcb" stroke-width="1" opacity="1"/><line transform="translate(38,-300)" x2="0" y2="300" stroke="#cbcbcb" stroke-width="1" opacity="1"/><line transform="translate(75,-300)" x2="0" y2="300" stroke="#cbcbcb" stroke-width="1" opacity="1"/><line transform="translate(113,-300)" x2="0" y2="300" stroke="#cbcbcb" stroke-width="1" opacity="1"/><line transform="translate(150,-300)" x2="0" y2="300" stroke="#cbcbcb" stroke-width="1" opacity="1"/><line transform="translate(188,-300)" x2="0" y2="300" stroke="#cbcbcb" stroke-width="1" opacity="1"/><line transform="translate(225,-300)" x2="0" y2="300" stroke="#cbcbcb" stroke-width="1" opacity="1"/><line transform="translate(263,-300)" x2="0" y2="300" stroke="#cbcbcb" stroke-width="1" opacity="1"/><line transform="translate(300,-300)" x2="0" y2="300" stroke="#cbcbcb" stroke-width="1" opacity="1"/></g></g><path class="foreground" aria-hidden="true" d="" pointer-events="none" display="none"/></g></g><g class="mark-group role-axis" aria-hidden="true"><g transform="translate(0.5,0.5)"><path class="background" aria-hidden="true" d="M0,0h0v0h0Z" pointer-events="none"/><g><g class="mark-rule role-axis-grid" pointer-events="none"><line transform="translate(0,300)" x2="300" y2="0" stroke="#cbcbcb" stroke-width="1" opacity="1"/><line transform="translate(0,254)" x2="300" y2="0" stroke="#cbcbcb" stroke-width="1" opacity="1"/><line transform="translate(0,208)" x2="300" y2="0" stroke="#cbcbcb" stroke-width="1" opacity="1"/><line transform="translate(0,162)" x2="300" y2="0" stroke="#cbcbcb" stroke-width="1" opacity="1"/><line transform="translate(0,115)" x2="300" y2="0" stroke="#cbcbcb" stroke-width="1" opacity="1"/><line transform="translate(0,69)" x2="300" y2="0" stroke="#cbcbcb" stroke-width="1" opacity="1"/><line transform="translate(0,23)" x2="300" y2="0" stroke="#cbcbcb" stroke-width="1" opacity="1"/></g></g><path class="foreground" aria-hidden="true" d="" pointer-events="none" display="none"/></g></g><g class="mark-rect role-mark child_marks" role="graphics-symbol" aria-roledescription="rect mark container"><path d="M114,0h35.5v300h-35.5Z" fill="#74372F"/><path d="M39,184.6153846153846h35.5v115.38461538461539h-35.5Z" fill="#74372F"/><path d="M151.5,138.46153846153848h35.5v161.53846153846152h-35.5Z" fill="#74372F"/><path d="M264,253.84615384615384h35.5v46.15384615384616h-35.5Z" fill="#74372F"/><path d="M76.5,115.38461538461537h35.5v184.61538461538464h-35.5Z" fill="#74372F"/><path d="M1.5,253.84615384615384h35.5v46.15384615384616h-35.5Z" fill="#74372F"/><path d="M189,253.84615384615384h35.5v46.15384615384616h-35.5Z" fill="#74372F"/><path d="M226.5,253.84615384615384h35.5v46.15384615384616h-35.5Z" fill="#74372F"/></g></g><path class="foreground" aria-hidden="true" d="" display="none"/></g></g><g class="mark-group role-title"><g transform="translate(-54.572265625,349)"><path class="background" aria-hidden="true" d="M0,0h0v0h0Z" pointer-events="none"/><g><g class="mark-text role-title-text" role="graphics-symbol" aria-roledescription="title" aria-label="Title text 'Aggregated Proportions of Surveyors with &lt; 2 Years of Experience'" pointer-events="none"><text text-anchor="start" transform="translate(100,12)" font-family="sans-serif" font-size="15px" font-weight="600" fill="#000" opacity="1">Aggregated Proportions of Surveyors with &lt; 2 Years of Experience</text></g></g><path class="foreground" aria-hidden="true" d="" pointer-events="none" display="none"/></g></g></g><path class="foreground" aria-hidden="true" d="" display="none"/></g></g></g></svg>