<svg xmlns="http://www.w3.org/2000/svg" xmlns:xlink="http://www.w3.org/1999/xlink" version="1.1" class="marks" width="361" height="363" viewBox="0 0 361 363"><rect width="361" height="363" fill="white"/><g fill="none" stroke-miterlimit="10" transform="translate(55,10)"><g class="mark-group role-frame root" role="graphics-object" aria-roledescription="group mark container"><g transform="translate(0,0)"><path class="background" aria-hidden="true" d="M0.5,0.5h300v300h-300Z" stroke="#ddd"/><g><g class="mark-group role-axis" aria-hidden="true"><g transform="translate(0.5,300.5)"><path class="background" aria-hidden="true" d="M0,0h0v0h0Z" pointer-events="none"/><g><g class="mark-rule role-axis-grid" pointer-events="none"><line transform="translate(0,-300)" x2="0" y2="300" stroke="#cbcbcb" stroke-width="1" opacity="1"/><line transform="translate(46,-300)" x2="0" y2="300" stroke="#cbcbcb" stroke-width="1" opacity="1"/><line transform="translate(92,-300)" x2="0" y2="300" stroke="#cbcbcb" stroke-width="1" opacity="1"/><line transform="translate(138,-300)" x2="0" y2="300" stroke="#cbcbcb" stroke-width="1" opacity="1"/><line transform="translate(185,-300)" x2="0" y2="300" stroke="#cbcbcb" stroke-width="1" opacity="1"/><line transform="translate(231,-300)" x2="0" y2="300" stroke="#cbcbcb" stroke-width="1" opacity="1"/><line transform="translate(277,-300)" x2="0" y2="300" stroke="#cbcbcb" stroke-width="1" opacity="1"/></g></g><path class="foreground" aria-hidden="true" d="" pointer-events="none" display="none"/></g></g><g class="mark-group role-axis" aria-hidden="true"><g transform="translate(0.5,0.5)"><path class="background" aria-hidden="true" d="M0,0h0v0h0Z" pointer-events="none"/><g><g class="mark-rule role-axis-grid" pointer-events="none"><line transform="translate(0,300)" x2="300" y2="0" stroke="#cbcbcb" stroke-width="1" opacity="1"/><line transform="translate(0,267)" x2="300" y2="0" stroke="#cbcbcb" stroke-width="1" opacity="1"/><line transform="translate(0,233)" x2="300" y2="0" stroke="#cbcbcb" stroke-width="1" opacity="1"/><line transform="translate(0,200)" x2="300" y2="0" stroke="#cbcbcb" stroke-width="1" opacity="1"/><line transform="translate(0,167)" x2="300" y2="0" stroke="#cbcbcb" stroke-width="1" opacity="1"/><line transform="translate(0,133)" x2="300" y2="0" stroke="#cbcbcb" stroke-width="1" opacity="1"/><line transform="translate(0,100)" x2="300" y2="0" stroke="#cbcbcb" stroke-width="1" opacity="1"/><line transform="translate(0,67)" x2="300" y2="0" stroke="#cbcbcb" stroke-width="1" opacity="1"/><line transform="translate(0,33)" x2="300" y2="0" stroke="#cbcbcb" stroke-width="1" opacity="1"/><line transform="translate(0,0)" x2="300" y2="0" stroke="#cbcbcb" stroke-width="1" opacity="1"/></g></g><path class="foreground" aria-hidden="true" d="" pointer-events="none" display="none"/></g></g><g class="mark-group role-axis" role="graphics-symbol" aria-roledescription="axis" aria-label="X-axis titled 'Beds per Surveyor' for a linear scale with values from 0 to 1,300"><g transform="translate(0.5,300.5)"><path class="background" aria-hidden="true" d="M0,0h0v0h0Z" pointer-events="none"/><g><g class="mark-rule role-axis-tick" pointer-events="none"><line transform="translate(0,0)" x2="0" y2="10" stroke="#cbcbcb" stroke-width="1" opacity="1"/><line transform="translate(46,0)" x2="0" y2="10" stroke="#cbcbcb" stroke-width="1" opacity="1"/><line transform="translate(92,0)" x2="0" y2="10" stroke="#cbcbcb" stroke-width="1" opacity="1"/><line transform="translate(138,0)" x2="0" y2="10" stroke="#cbcbcb" stroke-width="1" opacity="1"/><line transform="translate(185,0)" x2="0" y2="10" stroke="#cbcbcb" stroke-width="1" opacity="1"/><line transform="translate(231,0)" x2="0" y2="10" stroke="#cbcbcb" stroke-width="1" opacity="1"/><line transform="translate(277,0)" x2="0" y2="10" stroke="#cbcbcb" stroke-width="1" opacity="1"/></g><g class="mark-text role-axis-label" pointer-events="none"><text text-anchor="start" transform="translate(0,22)" font-family="sans-serif" font-size="10px" fill="#999" opacity="1">0</text><text text-anchor="middle" transform="translate(46.15384615384615,22)" font-family="sans-serif" font-size="10px" fill="#999" opacity="1">200</text><text text-anchor="middle" transform="translate(92.3076923076923,22)" font-family="sans-serif" font-size="10px" fill="#999" opacity="1">400</text><text text-anchor="middle" transform="translate(138.46153846153848,22)" font-family="sans-serif" font-size="10px" fill="#999" opacity="1">600</text><text text-anchor="middle" transform="translate(184.6153846153846,22)" font-family="sans-serif" font-size="10px" fill="#999" opacity="1">800</text><text text-anchor="middle" transform="translate(230.76923076923077,22)" font-family="sans-serif" font-size="10px" fill="#999" opacity="1">1,000</text><text text-anchor="middle" transform="translate(276.92307692307696,22)" font-family="sans-serif" font-size="10px" fill="#999" opacity="1">1,200</text></g><g class="mark-rule role-axis-domain" pointer-events="none"><line transform="translate(0,0)" x2="300" y2="0" stroke="#cbcbcb" stroke-width="1" opacity="1"/></g><g class="mark-text role-axis-title" pointer-events="none"><text text-anchor="middle" transform="translate(150,45)" font-family="sans-serif" font-size="14px" font-weight="bold" fill="#333" opacity="1">Beds per Surveyor</text></g></g><path class="foreground" aria-hidden="true" d="" pointer-events="none" display="none"/></g></g><g class="mark-group role-axis" role="graphics-symbol" aria-roledescription="axis" aria-label="Y-axis titled '% Facilities w/ Overdue Surveys' for a linear scale with values from 0 to 90"><g transform="translate(0.5,0.5)"><path class="background" aria-hidden="true" d="M0,0h0v0h0Z" pointer-events="none"/><g><g class="mark-rule role-axis-tick" pointer-events="none"><line transform="translate(0,300)" x2="-10" y2="0" stroke="#cbcbcb" stroke-width="1" opacity="1"/><line transform="translate(0,267)" x2="-10" y2="0" stroke="#cbcbcb" stroke-width="1" opacity="1"/><line transform="translate(0,233)" x2="-10" y2="0" stroke="#cbcbcb" stroke-width="1" opacity="1"/><line transform="translate(0,200)" x2="-10" y2="0" stroke="#cbcbcb" stroke-width="1" opacity="1"/><line transform="translate(0,167)" x2="-10" y2="0" stroke="#cbcbcb" stroke-width="1" opacity="1"/><line transform="translate(0,133)" x2="-10" y2="0" stroke="#cbcbcb" stroke-width="1" opacity="1"/><line transform="translate(0,100)" x2="-10" y2="0" stroke="#cbcbcb" stroke-width="1" opacity="1"/><line transform="translate(0,67)" x2="-10" y2="0" stroke="#cbcbcb" stroke-width="1" opacity="1"/><line transform="translate(0,33)" x2="-10" y2="0" stroke="#cbcbcb" stroke-width="1" opacity="1"/><line transform="translate(0,0)" x2="-10" y2="0" stroke="#cbcbcb" stroke-width="1" opacity="1"/></g><g class="mark-text role-axis-label" pointer-events="none"><text text-anchor="end" transform="translate(-14,303)" font-family="sans-serif" font-size="10px" fill="#999" opacity="1">0</text><text text-anchor="end" transform="translate(-14,269.66666666666663)" font-family="sans-serif" font-size="10px" fill="#999" opacity="1">10</text><text text-anchor="end" transform="translate(-14,236.33333333333334)" font-family="sans-serif" font-size="10px" fill="#999" opacity="1">20</text><text text-anchor="end" transform="translate(-14,203.00000000000003)" font-family="sans-serif" font-size="10px" fill="#999" opacity="1">30</text><text text-anchor="end" transform="translate(-14,169.66666666666669)" font-family="sans-serif" font-size="10px" fill="#999" opacity="1">40</text><text text-anchor="end" transform="translate(-14,136.33333333333331)" font-family="sans-serif" font-size="10px" fill="#999" opacity="1">50</text><text text-anchor="end" transform="translate(-14,103.00000000000001)" font-family="sans-serif" font-size="10px" fill="#999" opacity="1">60</text><text text-anchor="end" transform="translate(-14,69.66666666666666)" font-family="sans-serif" font-size="10px" fill="#999" opacity="1">70</text><text text-anchor="end" transform="translate(-14,36.33333333333335)" font-family="sans-serif" font-size="10px" fill="#999" opacity="1">80</text><text text-anchor="end" transform="translate(-14,3)" font-family="sans-serif" font-size="10px" fill="#999" opacity="1">90</text></g><g class="mark-rule role-axis-domain" pointer-events="none"><line transform="translate(0,300)" x2="0" y2="-300" stroke="#cbcbcb" stroke-width="1" opacity="1"/></g><g class="mark-text role-axis-title" pointer-events="none"><text text-anchor="middle" transform="translate(-35.123046875,150) rotate(-90) translate(0,-3)" font-family="sans-serif" font-size="14px" font-weight="bold" fill="#333" opacity="1">% Facilities w/ Overdue Surveys</text></g></g><path class="foreground" aria-hidden="true" d="" pointer-events="none" display="none"/></g></g><g class="mark-symbol role-mark layer_0_marks" role="graphics-symbol" aria-roledescription="symbol mark container"><path transform="translate(221.07692307692307,56.666666666666664)" d="M2.739,0A2.739,2.739,0,1,1,-2.739,0A2.739,2.739,0,1,1,2.739,0" fill="#74372F" stroke-width="2" opacity="0.7"/><path transform="translate(13.615384615384615,300)" d="M2.739,0A2.739,2.739,0,1,1,-2.739,0A2.739,2.739,0,1,1,2.739,0" fill="#74372F" stroke-width="2" opacity="0.7"/><path transform="translate(106.38461538461539,300)" d="M2.739,0A2.739,2.739,0,1,1,-2.739,0A2.739,2.739,0,1,1,2.739,0" fill="#74372F" stroke-width="2" opacity="0.7"/><path transform="translate(95.76923076923076,300)" d="M2.739,0A2.739,2.739,0,1,1,-2.739,0A2.739,2.739,0,1,1,2.739,0" fill="#74372F" stroke-width="2" opacity="0.7"/><path transform="translate(41.30769230769231,123.33333333333333)" d="M2.739,0A2.739,2.739,0,1,1,-2.739,0A2.739,2.739,0,1,1,2.739,0" fill="#74372F" stroke-width="2" opacity="0.7"/><path transform="translate(88.61538461538463,260)" d="M2.739,0A2.739,2.739,0,1,1,-2.739,0A2.739,2.739,0,1,1,2.739,0" fill="#74372F" stroke-width="2" opacity="0.7"/><path transform="translate(83.3076923076923,140)" d="M2.739,0A2.739,2.739,0,1,1,-2.739,0A2.739,2.739,0,1,1,2.739,0" fill="#74372F" stroke-width="2" opacity="0.7"/><path transform="translate(53.307692307692314,180)" d="M2.739,0A2.739,2.739,0,1,1,-2.739,0A2.739,2.739,0,1,1,2.739,0" fill="#74372F" stroke-width="2" opacity="0.7"/><path transform="translate(84.92307692307692,226.66666666666666)" d="M2.739,0A2.739,2.739,0,1,1,-2.739,0A2.739,2.739,0,1,1,2.739,0" fill="#74372F" stroke-width="2" opacity="0.7"/><path transform="translate(166.3846153846154,233.33333333333334)" d="M2.739,0A2.739,2.739,0,1,1,-2.739,0A2.739,2.739,0,1,1,2.739,0" fill="#74372F" stroke-width="2" opacity="0.7"/><path transform="translate(83.07692307692308,300)" d="M2.739,0A2.739,2.739,0,1,1,-2.739,0A2.739,2.739,0,1,1,2.739,0" fill="#74372F" stroke-width="2" opacity="0.7"/><path transform="translate(81.92307692307692,63.33333333333334)" d="M2.739,0A2.739,2.739,0,1,1,-2.739,0A2.739,2.739,0,1,1,2.739,0" fill="#74372F" stroke-width="2" opacity="0.7"/><path transform="translate(64.84615384615384,300)" d="M2.739,0A2.739,2.739,0,1,1,-2.739,0A2.739,2.739,0,1,1,2.739,0" fill="#74372F" stroke-width="2" opacity="0.7"/><path transform="translate(117.23076923076923,290)" d="M2.739,0A2.739,2.739,0,1,1,-2.739,0A2.739,2.739,0,1,1,2.739,0" fill="#74372F" stroke-width="2" opacity="0.7"/><path transform="translate(142.15384615384616,283.3333333333333)" d="M2.739,0A2.739,2.739,0,1,1,-2.739,0A2.739,2.739,0,1,1,2.739,0" fill="#74372F" stroke-width="2" opacity="0.7"/><path transform="translate(60.46153846153846,246.66666666666666)" d="M2.739,0A2.739,2.739,0,1,1,-2.739,0A2.739,2.739,0,1,1,2.739,0" fill="#74372F" stroke-width="2" opacity="0.7"/><path transform="translate(63.92307692307693,16.666666666666675)" d="M2.739,0A2.739,2.739,0,1,1,-2.739,0A2.739,2.739,0,1,1,2.739,0" fill="#74372F" stroke-width="2" opacity="0.7"/><path transform="translate(185.76923076923077,300)" d="M2.739,0A2.739,2.739,0,1,1,-2.739,0A2.739,2.739,0,1,1,2.739,0" fill="#74372F" stroke-width="2" opacity="0.7"/><path transform="translate(99.6923076923077,229.99999999999997)" d="M2.739,0A2.739,2.739,0,1,1,-2.739,0A2.739,2.739,0,1,1,2.739,0" fill="#74372F" stroke-width="2" opacity="0.7"/><path transform="translate(108.46153846153845,53.33333333333334)" d="M2.739,0A2.739,2.739,0,1,1,-2.739,0A2.739,2.739,0,1,1,2.739,0" fill="#74372F" stroke-width="2" opacity="0.7"/><path transform="translate(116.3076923076923,260)" d="M2.739,0A2.739,2.739,0,1,1,-2.739,0A2.739,2.739,0,1,1,2.739,0" fill="#74372F" stroke-width="2" opacity="0.7"/><path transform="translate(111.69230769230768,296.6666666666667)" d="M2.739,0A2.739,2.739,0,1,1,-2.739,0A2.739,2.739,0,1,1,2.739,0" fill="#74372F" stroke-width="2" opacity="0.7"/><path transform="translate(73.84615384615385,290)" d="M2.739,0A2.739,2.739,0,1,1,-2.739,0A2.739,2.739,0,1,1,2.739,0" fill="#74372F" stroke-width="2" opacity="0.7"/><path transform="translate(114.6923076923077,233.33333333333334)" d="M2.739,0A2.739,2.739,0,1,1,-2.739,0A2.739,2.739,0,1,1,2.739,0" fill="#74372F" stroke-width="2" opacity="0.7"/><path transform="translate(65.07692307692308,213.33333333333334)" d="M2.739,0A2.739,2.739,0,1,1,-2.739,0A2.739,2.739,0,1,1,2.739,0" fill="#74372F" stroke-width="2" opacity="0.7"/><path transform="translate(55.15384615384615,300)" d="M2.739,0A2.739,2.739,0,1,1,-2.739,0A2.739,2.739,0,1,1,2.739,0" fill="#74372F" stroke-width="2" opacity="0.7"/><path transform="translate(99.6923076923077,300)" d="M2.739,0A2.739,2.739,0,1,1,-2.739,0A2.739,2.739,0,1,1,2.739,0" fill="#74372F" stroke-width="2" opacity="0.7"/><path transform="translate(82.15384615384616,296.6666666666667)" d="M2.739,0A2.739,2.739,0,1,1,-2.739,0A2.739,2.739,0,1,1,2.739,0" fill="#74372F" stroke-width="2" opacity="0.7"/><path transform="translate(98.76923076923076,300)" d="M2.739,0A2.739,2.739,0,1,1,-2.739,0A2.739,2.739,0,1,1,2.739,0" fill="#74372F" stroke-width="2" opacity="0.7"/><path transform="translate(173.53846153846155,190)" d="M2.739,0A2.739,2.739,0,1,1,-2.739,0A2.739,2.739,0,1,1,2.739,0" fill="#74372F" stroke-width="2" opacity="0.7"/><path transform="translate(58.38461538461538,300)" d="M2.739,0A2.739,2.739,0,1,1,-2.739,0A2.739,2.739,0,1,1,2.739,0" fill="#74372F" stroke-width="2" opacity="0.7"/><path transform="translate(229.15384615384616,163.33333333333334)" d="M2.739,0A2.739,2.739,0,1,1,-2.739,0A2.739,2.739,0,1,1,2.739,0" fill="#74372F" stroke-width="2" opacity="0.7"/><path transform="translate(106.38461538461539,283.3333333333333)" d="M2.739,0A2.739,2.739,0,1,1,-2.739,0A2.739,2.739,0,1,1,2.739,0" fill="#74372F" stroke-width="2" opacity="0.7"/><path transform="translate(48.23076923076923,300)" d="M2.739,0A2.739,2.739,0,1,1,-2.739,0A2.739,2.739,0,1,1,2.739,0" fill="#74372F" stroke-width="2" opacity="0.7"/><path transform="translate(165.46153846153845,183.33333333333334)" d="M2.739,0A2.739,2.739,0,1,1,-2.739,0A2.739,2.739,0,1,1,2.739,0" fill="#74372F" stroke-width="2" opacity="0.7"/><path transform="translate(121.38461538461539,290)" d="M2.739,0A2.739,2.739,0,1,1,-2.739,0A2.739,2.739,0,1,1,2.739,0" fill="#74372F" stroke-width="2" opacity="0.7"/><path transform="translate(46.84615384615384,256.6666666666667)" d="M2.739,0A2.739,2.739,0,1,1,-2.739,0A2.739,2.739,0,1,1,2.739,0" fill="#74372F" stroke-width="2" opacity="0.7"/><path transform="translate(166.6153846153846,300)" d="M2.739,0A2.739,2.739,0,1,1,-2.739,0A2.739,2.739,0,1,1,2.739,0" fill="#74372F" stroke-width="2" opacity="0.7"/><path transform="translate(64.15384615384616,300)" d="M2.739,0A2.739,2.739,0,1,1,-2.739,0A2.739,2.739,0,1,1,2.739,0" fill="#74372F" stroke-width="2" opacity="0.7"/><path transform="translate(297.6923076923077,186.66666666666666)" d="M2.739,0A2.739,2.739,0,1,1,-2.739,0A2.739,2.739,0,1,1,2.739,0" fill="#74372F" stroke-width="2" opacity="0.7"/><path transform="translate(73.84615384615385,296.6666666666667)" d="M2.739,0A2.739,2.739,0,1,1,-2.739,0A2.739,2.739,0,1,1,2.739,0" fill="#74372F" stroke-width="2" opacity="0.7"/><path transform="translate(74.3076923076923,96.66666666666666)" d="M2.739,0A2.739,2.739,0,1,1,-2.739,0A2.739,2.739,0,1,1,2.739,0" fill="#74372F" stroke-width="2" opacity="0.7"/><path transform="translate(89.76923076923077,300)" d="M2.739,0A2.739,2.739,0,1,1,-2.739,0A2.739,2.739,0,1,1,2.739,0" fill="#74372F" stroke-width="2" opacity="0.7"/><path transform="translate(122.3076923076923,200.00000000000003)" d="M2.739,0A2.739,2.739,0,1,1,-2.739,0A2.739,2.739,0,1,1,2.739,0" fill="#74372F" stroke-width="2" opacity="0.7"/><path transform="translate(42.69230769230769,300)" d="M2.739,0A2.739,2.739,0,1,1,-2.739,0A2.739,2.739,0,1,1,2.739,0" fill="#74372F" stroke-width="2" opacity="0.7"/><path transform="translate(166.6153846153846,160)" d="M2.739,0A2.739,2.739,0,1,1,-2.739,0A2.739,2.739,0,1,1,2.739,0" fill="#74372F" stroke-width="2" opacity="0.7"/><path transform="translate(41.53846153846154,290)" d="M2.739,0A2.739,2.739,0,1,1,-2.739,0A2.739,2.739,0,1,1,2.739,0" fill="#74372F" stroke-width="2" opacity="0.7"/><path transform="translate(102.46153846153845,270)" d="M2.739,0A2.739,2.739,0,1,1,-2.739,0A2.739,2.739,0,1,1,2.739,0" fill="#74372F" stroke-width="2" opacity="0.7"/><path transform="translate(95.76923076923076,300)" d="M2.739,0A2.739,2.739,0,1,1,-2.739,0A2.739,2.739,0,1,1,2.739,0" fill="#74372F" stroke-width="2" opacity="0.7"/><path transform="translate(54.69230769230769,300)" d="M2.739,0A2.739,2.739,0,1,1,-2.739,0A2.739,2.739,0,1,1,2.739,0" fill="#74372F" stroke-width="2" opacity="0.7"/></g><g class="mark-line role-mark layer_1_marks" role="graphics-symbol" aria-roledescription="line mark container"><path d="M13.615,269.976L297.692,171.537" stroke="#74372F" stroke-width="2"/></g></g><path class="foreground" aria-hidden="true" d="" display="none"/></g></g></g></svg>