<svg xmlns="http://www.w3.org/2000/svg" xmlns:xlink="http://www.w3.org/1999/xlink" version="1.1" class="marks" width="361" height="398" viewBox="0 0 361 398"><rect width="361" height="398" fill="#f0f0f0"/><g fill="none" stroke-miterlimit="10" transform="translate(55,45)"><g class="mark-group role-frame root" role="graphics-object" aria-roledescription="group mark container"><g transform="translate(0,0)"><path class="background" aria-hidden="true" d="M0.5,0.5h300v300h-300Z" stroke="#ddd"/><g><g class="mark-group role-axis" aria-hidden="true"><g transform="translate(0.5,300.5)"><path class="background" aria-hidden="true" d="M0,0h0v0h0Z" pointer-events="none"/><g><g class="mark-rule role-axis-grid" pointer-events="none"><line transform="translate(0,-300)" x2="0" y2="300" stroke="#cbcbcb" stroke-width="1" opacity="1"/><line transform="translate(50,-300)" x2="0" y2="300" stroke="#cbcbcb" stroke-width="1" opacity="1"/><line transform="translate(100,-300)" x2="0" y2="300" stroke="#cbcbcb" stroke-width="1" opacity="1"/><line transform="translate(150,-300)" x2="0" y2="300" stroke="#cbcbcb" stroke-width="1" opacity="1"/><line transform="translate(200,-300)" x2="0" y2="300" stroke="#cbcbcb" stroke-width="1" opacity="1"/><line transform="translate(250,-300)" x2="0" y2="300" stroke="#cbcbcb" stroke-width="1" opacity="1"/><line transform="translate(300,-300)" x2="0" y2="300" stroke="#cbcbcb" stroke-width="1" opacity="1"/></g></g><path class="foreground" aria-hidden="true" d="" pointer-events="none" display="none"/></g></g><g class="mark-group role-axis" aria-hidden="true"><g transform="translate(0.5,0.5)"><path class="background" aria-hidden="true" d="M0,0h0v0h0Z" pointer-events="none"/><g><g class="mark-rule role-axis-grid" pointer-events="none"><line transform="translate(0,300)" x2="300" y2="0" stroke="#cbcbcb" stroke-width="1" opacity="1"/><line transform="translate(0,267)" x2="300" y2="0" stroke="#cbcbcb" stroke-width="1" opacity="1"/><line transform="translate(0,233)" x2="300" y2="0" stroke="#cbcbcb" stroke-width="1" opacity="1"/><line transform="translate(0,200)" x2="300" y2="0" stroke="#cbcbcb" stroke-width="1" opacity="1"/><line transform="translate(0,167)" x2="300" y2="0" stroke="#cbcbcb" stroke-width="1" opacity="1"/><line transform="translate(0,133)" x2="300" y2="0" stroke="#cbcbcb" stroke-width="1" opacity="1"/><line transform="translate(0,100)" x2="300" y2="0" stroke="#cbcbcb" stroke-width="1" opacity="1"/><line transform="translate(0,67)" x2="300" y2="0" stroke="#cbcbcb" stroke-width="1" opacity="1"/><line transform="translate(0,33)" x2="300" y2="0" stroke="#cbcbcb" stroke-width="1" opacity="1"/><line transform="translate(0,0)" x2="300" y2="0" stroke="#cbcbcb" stroke-width="1" opacity="1"/></g></g><path class="foreground" aria-hidden="true" d="" pointer-events="none" display="none"/></g></g><g class="mark-group role-axis" role="graphics-symbol" aria-roledescription="axis" aria-label="X-axis titled 'Facilities per Surveyor' for a linear scale with values from 0 to 12"><g transform="translate(0.5,300.5)"><path class="background" aria-hidden="true" d="M0,0h0v0h0Z" pointer-events="none"/><g><g class="mark-rule role-axis-tick" pointer-events="none"><line transform="translate(0,0)" x2="0" y2="10" stroke="#cbcbcb" stroke-width="1" opacity="1"/><line transform="translate(50,0)" x2="0" y2="10" stroke="#cbcbcb" stroke-width="1" opacity="1"/><line transform="translate(100,0)" x2="0" y2="10" stroke="#cbcbcb" stroke-width="1" opacity="1"/><line transform="translate(150,0)" x2="0" y2="10" stroke="#cbcbcb" stroke-width="1" opacity="1"/><line transform="translate(200,0)" x2="0" y2="10" stroke="#cbcbcb" stroke-width="1" opacity="1"/><line transform="translate(250,0)" x2="0" y2="10" stroke="#cbcbcb" stroke-width="1" opacity="1"/><line transform="translate(300,0)" x2="0" y2="10" stroke="#cbcbcb" stroke-width="1" opacity="1"/></g><g class="mark-text role-axis-label" pointer-events="none"><text text-anchor="start" transform="translate(0,22)" font-family="sans-serif" font-size="10px" fill="#999" opacity="1">0</text><text text-anchor="middle" transform="translate(50,22)" font-family="sans-serif" font-size="10px" fill="#999" opacity="1">2</text><text text-anchor="middle" transform="translate(100,22)" font-family="sans-serif" font-size="10px" fill="#999" opacity="1">4</text><text text-anchor="middle" transform="translate(150,22)" font-family="sans-serif" font-size="10px" fill="#999" opacity="1">6</text><text text-anchor="middle" transform="translate(200,22)" font-family="sans-serif" font-size="10px" fill="#999" opacity="1">8</text><text text-anchor="middle" transform="translate(250,22)" font-family="sans-serif" font-size="10px" fill="#999" opacity="1">10</text><text text-anchor="end" transform="translate(300,22)" font-family="sans-serif" font-size="10px" fill="#999" opacity="1">12</text></g><g class="mark-rule role-axis-domain" pointer-events="none"><line transform="translate(0,0)" x2="300" y2="0" stroke="#cbcbcb" stroke-width="1" opacity="1"/></g><g class="mark-text role-axis-title" pointer-events="none"><text text-anchor="middle" transform="translate(150,45)" font-family="sans-serif" font-size="14px" font-weight="bold" fill="#333" opacity="1">Facilities per Surveyor</text></g></g><path class="foreground" aria-hidden="true" d="" pointer-events="none" display="none"/></g></g><g class="mark-group role-axis" role="graphics-symbol" aria-roledescription="axis" aria-label="Y-axis titled 'Percent Overdue' for a linear scale with values from 0 to 90"><g transform="translate(0.5,0.5)"><path class="background" aria-hidden="true" d="M0,0h0v0h0Z" pointer-events="none"/><g><g class="mark-rule role-axis-tick" pointer-events="none"><line transform="translate(0,300)" x2="-10" y2="0" stroke="#cbcbcb" stroke-width="1" opacity="1"/><line transform="translate(0,267)" x2="-10" y2="0" stroke="#cbcbcb" stroke-width="1" opacity="1"/><line transform="translate(0,233)" x2="-10" y2="0" stroke="#cbcbcb" stroke-width="1" opacity="1"/><line transform="translate(0,200)" x2="-10" y2="0" stroke="#cbcbcb" stroke-width="1" opacity="1"/><line transform="translate(0,167)" x2="-10" y2="0" stroke="#cbcbcb" stroke-width="1" opacity="1"/><line transform="translate(0,133)" x2="-10" y2="0" stroke="#cbcbcb" stroke-width="1" opacity="1"/><line transform="translate(0,100)" x2="-10" y2="0" stroke="#cbcbcb" stroke-width="1" opacity="1"/><line transform="translate(0,67)" x2="-10" y2="0" stroke="#cbcbcb" stroke-width="1" opacity="1"/><line transform="translate(0,33)" x2="-10" y2="0" stroke="#cbcbcb" stroke-width="1" opacity="1"/><line transform="translate(0,0)" x2="-10" y2="0" stroke="#cbcbcb" stroke-width="1" opacity="1"/></g><g class="mark-text role-axis-label" pointer-events="none"><text text-anchor="end" transform="translate(-14,303)" font-family="sans-serif" font-size="10px" fill="#999" opacity="1">0</text><text text-anchor="end" transform="translate(-14,269.66666666666663)" font-family="sans-serif" font-size="10px" fill="#999" opacity="1">10</text><text text-anchor="end" transform="translate(-14,236.33333333333334)" font-family="sans-serif" font-size="10px" fill="#999" opacity="1">20</text><text text-anchor="end" transform="translate(-14,203.00000000000003)" font-family="sans-serif" font-size="10px" fill="#999" opacity="1">30</text><text text-anchor="end" transform="translate(-14,169.66666666666669)" font-family="sans-serif" font-size="10px" fill="#999" opacity="1">40</text><text text-anchor="end" transform="translate(-14,136.33333333333331)" font-family="sans-serif" font-size="10px" fill="#999" opacity="1">50</text><text text-anchor="end" transform="translate(-14,103.00000000000001)" font-family="sans-serif" font-size="10px" fill="#999" opacity="1">60</text><text text-anchor="end" transform="translate(-14,69.66666666666666)" font-family="sans-serif" font-size="10px" fill="#999" opacity="1">70</text><text text-anchor="end" transform="translate(-14,36.33333333333335)" font-family="sans-serif" font-size="10px" fill="#999" opacity="1">80</text><text text-anchor="end" transform="translate(-14,3)" font-family="sans-serif" font-size="10px" fill="#999" opacity="1">90</text></g><g class="mark-rule role-axis-domain" pointer-events="none"><line transform="translate(0,300)" x2="0" y2="-300" stroke="#cbcbcb" stroke-width="1" opacity="1"/></g><g class="mark-text role-axis-title" pointer-events="none"><text text-anchor="middle" transform="translate(-35.123046875,150) rotate(-90) translate(0,-3)" font-family="sans-serif" font-size="14px" font-weight="bold" fill="#333" opacity="1">Percent Overdue</text></g></g><path class="foreground" aria-hidden="true" d="" pointer-events="none" display="none"/></g></g><g class="mark-symbol role-mark layer_0_marks" role="graphics-symbol" aria-roledescription="symbol mark container"><path transform="translate(112.5,56.666666666666664)" d="M2.739,0A2.739,2.739,0,1,1,-2.739,0A2.739,2.739,0,1,1,2.739,0" fill="#74372F" stroke-width="2" opacity="0.7"/><path transform="translate(34.99999999999999,300)" d="M2.739,0A2.739,2.739,0,1,1,-2.739,0A2.739,2.739,0,1,1,2.739,0" fill="#74372F" stroke-width="2" opacity="0.7"/><path transform="translate(102.49999999999999,300)" d="M2.739,0A2.739,2.739,0,1,1,-2.739,0A2.739,2.739,0,1,1,2.739,0" fill="#74372F" stroke-width="2" opacity="0.7"/><path transform="translate(90,300)" d="M2.739,0A2.739,2.739,0,1,1,-2.739,0A2.739,2.739,0,1,1,2.739,0" fill="#74372F" stroke-width="2" opacity="0.7"/><path transform="translate(45,123.33333333333333)" d="M2.739,0A2.739,2.739,0,1,1,-2.739,0A2.739,2.739,0,1,1,2.739,0" fill="#74372F" stroke-width="2" opacity="0.7"/><path transform="translate(105.00000000000001,260)" d="M2.739,0A2.739,2.739,0,1,1,-2.739,0A2.739,2.739,0,1,1,2.739,0" fill="#74372F" stroke-width="2" opacity="0.7"/><path transform="translate(77.50000000000001,140)" d="M2.739,0A2.739,2.739,0,1,1,-2.739,0A2.739,2.739,0,1,1,2.739,0" fill="#74372F" stroke-width="2" opacity="0.7"/><path transform="translate(52.50000000000001,180)" d="M2.739,0A2.739,2.739,0,1,1,-2.739,0A2.739,2.739,0,1,1,2.739,0" fill="#74372F" stroke-width="2" opacity="0.7"/><path transform="translate(75,226.66666666666666)" d="M2.739,0A2.739,2.739,0,1,1,-2.739,0A2.739,2.739,0,1,1,2.739,0" fill="#74372F" stroke-width="2" opacity="0.7"/><path transform="translate(162.5,233.33333333333334)" d="M2.739,0A2.739,2.739,0,1,1,-2.739,0A2.739,2.739,0,1,1,2.739,0" fill="#74372F" stroke-width="2" opacity="0.7"/><path transform="translate(95,300)" d="M2.739,0A2.739,2.739,0,1,1,-2.739,0A2.739,2.739,0,1,1,2.739,0" fill="#74372F" stroke-width="2" opacity="0.7"/><path transform="translate(117.5,63.33333333333334)" d="M2.739,0A2.739,2.739,0,1,1,-2.739,0A2.739,2.739,0,1,1,2.739,0" fill="#74372F" stroke-width="2" opacity="0.7"/><path transform="translate(55.00000000000001,300)" d="M2.739,0A2.739,2.739,0,1,1,-2.739,0A2.739,2.739,0,1,1,2.739,0" fill="#74372F" stroke-width="2" opacity="0.7"/><path transform="translate(130,290)" d="M2.739,0A2.739,2.739,0,1,1,-2.739,0A2.739,2.739,0,1,1,2.739,0" fill="#74372F" stroke-width="2" opacity="0.7"/><path transform="translate(225,283.3333333333333)" d="M2.739,0A2.739,2.739,0,1,1,-2.739,0A2.739,2.739,0,1,1,2.739,0" fill="#74372F" stroke-width="2" opacity="0.7"/><path transform="translate(142.5,246.66666666666666)" d="M2.739,0A2.739,2.739,0,1,1,-2.739,0A2.739,2.739,0,1,1,2.739,0" fill="#74372F" stroke-width="2" opacity="0.7"/><path transform="translate(72.5,16.666666666666675)" d="M2.739,0A2.739,2.739,0,1,1,-2.739,0A2.739,2.739,0,1,1,2.739,0" fill="#74372F" stroke-width="2" opacity="0.7"/><path transform="translate(160,300)" d="M2.739,0A2.739,2.739,0,1,1,-2.739,0A2.739,2.739,0,1,1,2.739,0" fill="#74372F" stroke-width="2" opacity="0.7"/><path transform="translate(150,229.99999999999997)" d="M2.739,0A2.739,2.739,0,1,1,-2.739,0A2.739,2.739,0,1,1,2.739,0" fill="#74372F" stroke-width="2" opacity="0.7"/><path transform="translate(95,53.33333333333334)" d="M2.739,0A2.739,2.739,0,1,1,-2.739,0A2.739,2.739,0,1,1,2.739,0" fill="#74372F" stroke-width="2" opacity="0.7"/><path transform="translate(110.00000000000001,260)" d="M2.739,0A2.739,2.739,0,1,1,-2.739,0A2.739,2.739,0,1,1,2.739,0" fill="#74372F" stroke-width="2" opacity="0.7"/><path transform="translate(117.5,296.6666666666667)" d="M2.739,0A2.739,2.739,0,1,1,-2.739,0A2.739,2.739,0,1,1,2.739,0" fill="#74372F" stroke-width="2" opacity="0.7"/><path transform="translate(112.5,290)" d="M2.739,0A2.739,2.739,0,1,1,-2.739,0A2.739,2.739,0,1,1,2.739,0" fill="#74372F" stroke-width="2" opacity="0.7"/><path transform="translate(147.5,233.33333333333334)" d="M2.739,0A2.739,2.739,0,1,1,-2.739,0A2.739,2.739,0,1,1,2.739,0" fill="#74372F" stroke-width="2" opacity="0.7"/><path transform="translate(67.5,213.33333333333334)" d="M2.739,0A2.739,2.739,0,1,1,-2.739,0A2.739,2.739,0,1,1,2.739,0" fill="#74372F" stroke-width="2" opacity="0.7"/><path transform="translate(69.99999999999999,300)" d="M2.739,0A2.739,2.739,0,1,1,-2.739,0A2.739,2.739,0,1,1,2.739,0" fill="#74372F" stroke-width="2" opacity="0.7"/><path transform="translate(142.5,300)" d="M2.739,0A2.739,2.739,0,1,1,-2.739,0A2.739,2.739,0,1,1,2.739,0" fill="#74372F" stroke-width="2" opacity="0.7"/><path transform="translate(85,296.6666666666667)" d="M2.739,0A2.739,2.739,0,1,1,-2.739,0A2.739,2.739,0,1,1,2.739,0" fill="#74372F" stroke-width="2" opacity="0.7"/><path transform="translate(107.5,300)" d="M2.739,0A2.739,2.739,0,1,1,-2.739,0A2.739,2.739,0,1,1,2.739,0" fill="#74372F" stroke-width="2" opacity="0.7"/><path transform="translate(130,190)" d="M2.739,0A2.739,2.739,0,1,1,-2.739,0A2.739,2.739,0,1,1,2.739,0" fill="#74372F" stroke-width="2" opacity="0.7"/><path transform="translate(62.5,300)" d="M2.739,0A2.739,2.739,0,1,1,-2.739,0A2.739,2.739,0,1,1,2.739,0" fill="#74372F" stroke-width="2" opacity="0.7"/><path transform="translate(132.5,163.33333333333334)" d="M2.739,0A2.739,2.739,0,1,1,-2.739,0A2.739,2.739,0,1,1,2.739,0" fill="#74372F" stroke-width="2" opacity="0.7"/><path transform="translate(110.00000000000001,283.3333333333333)" d="M2.739,0A2.739,2.739,0,1,1,-2.739,0A2.739,2.739,0,1,1,2.739,0" fill="#74372F" stroke-width="2" opacity="0.7"/><path transform="translate(77.50000000000001,300)" d="M2.739,0A2.739,2.739,0,1,1,-2.739,0A2.739,2.739,0,1,1,2.739,0" fill="#74372F" stroke-width="2" opacity="0.7"/><path transform="translate(200,183.33333333333334)" d="M2.739,0A2.739,2.739,0,1,1,-2.739,0A2.739,2.739,0,1,1,2.739,0" fill="#74372F" stroke-width="2" opacity="0.7"/><path transform="translate(167.5,290)" d="M2.739,0A2.739,2.739,0,1,1,-2.739,0A2.739,2.739,0,1,1,2.739,0" fill="#74372F" stroke-width="2" opacity="0.7"/><path transform="translate(62.5,256.6666666666667)" d="M2.739,0A2.739,2.739,0,1,1,-2.739,0A2.739,2.739,0,1,1,2.739,0" fill="#74372F" stroke-width="2" opacity="0.7"/><path transform="translate(142.5,300)" d="M2.739,0A2.739,2.739,0,1,1,-2.739,0A2.739,2.739,0,1,1,2.739,0" fill="#74372F" stroke-width="2" opacity="0.7"/><path transform="translate(62.5,300)" d="M2.739,0A2.739,2.739,0,1,1,-2.739,0A2.739,2.739,0,1,1,2.739,0" fill="#74372F" stroke-width="2" opacity="0.7"/><path transform="translate(295,186.66666666666666)" d="M2.739,0A2.739,2.739,0,1,1,-2.739,0A2.739,2.739,0,1,1,2.739,0" fill="#74372F" stroke-width="2" opacity="0.7"/><path transform="translate(107.5,296.6666666666667)" d="M2.739,0A2.739,2.739,0,1,1,-2.739,0A2.739,2.739,0,1,1,2.739,0" fill="#74372F" stroke-width="2" opacity="0.7"/><path transform="translate(69.99999999999999,96.66666666666666)" d="M2.739,0A2.739,2.739,0,1,1,-2.739,0A2.739,2.739,0,1,1,2.739,0" fill="#74372F" stroke-width="2" opacity="0.7"/><path transform="translate(85,300)" d="M2.739,0A2.739,2.739,0,1,1,-2.739,0A2.739,2.739,0,1,1,2.739,0" fill="#74372F" stroke-width="2" opacity="0.7"/><path transform="translate(152.5,200.00000000000003)" d="M2.739,0A2.739,2.739,0,1,1,-2.739,0A2.739,2.739,0,1,1,2.739,0" fill="#74372F" stroke-width="2" opacity="0.7"/><path transform="translate(55.00000000000001,300)" d="M2.739,0A2.739,2.739,0,1,1,-2.739,0A2.739,2.739,0,1,1,2.739,0" fill="#74372F" stroke-width="2" opacity="0.7"/><path transform="translate(160,160)" d="M2.739,0A2.739,2.739,0,1,1,-2.739,0A2.739,2.739,0,1,1,2.739,0" fill="#74372F" stroke-width="2" opacity="0.7"/><path transform="translate(47.5,290)" d="M2.739,0A2.739,2.739,0,1,1,-2.739,0A2.739,2.739,0,1,1,2.739,0" fill="#74372F" stroke-width="2" opacity="0.7"/><path transform="translate(127.5,270)" d="M2.739,0A2.739,2.739,0,1,1,-2.739,0A2.739,2.739,0,1,1,2.739,0" fill="#74372F" stroke-width="2" opacity="0.7"/><path transform="translate(135,300)" d="M2.739,0A2.739,2.739,0,1,1,-2.739,0A2.739,2.739,0,1,1,2.739,0" fill="#74372F" stroke-width="2" opacity="0.7"/><path transform="translate(80,300)" d="M2.739,0A2.739,2.739,0,1,1,-2.739,0A2.739,2.739,0,1,1,2.739,0" fill="#74372F" stroke-width="2" opacity="0.7"/></g><g class="mark-line role-mark layer_1_marks" role="graphics-symbol" aria-roledescription="line mark container"><path d="M35,243.954L295,227.572" stroke="#74372F" stroke-width="2"/></g><g class="mark-group role-title"><g transform="translate(-49.123046875,-40)"><path class="background" aria-hidden="true" d="M0,0h0v0h0Z" pointer-events="none"/><g><g class="mark-text role-title-text" role="graphics-symbol" aria-roledescription="title" aria-label="Title text 'Percent Overdue by Facilities per Surveyor'" pointer-events="none"><text text-anchor="start" transform="translate(20,12)" font-family="sans-serif" font-size="15px" font-weight="600" fill="#000" opacity="1">Percent Overdue by Facilities per Surveyor</text></g></g><path class="foreground" aria-hidden="true" d="" pointer-events="none" display="none"/></g></g></g><path class="foreground" aria-hidden="true" d="" display="none"/></g></g></g></svg>