<svg xmlns="http://www.w3.org/2000/svg" xmlns:xlink="http://www.w3.org/1999/xlink" version="1.1" class="marks" width="444" height="745" viewBox="0 0 444 745"><rect width="444" height="745" fill="#f0f0f0"/><g fill="none" stroke-miterlimit="10" transform="translate(39,40)"><g class="mark-group role-frame root" role="graphics-object" aria-roledescription="group mark container"><g transform="translate(0,0)"><path class="background" aria-hidden="true" d="M0,0h400v700h-400Z"/><g><g class="mark-group role-axis" role="graphics-symbol" aria-roledescription="axis" aria-label="Y-axis for a discrete scale with 35 values: KY, AL, MD, VA, TN, ending with WY"><g transform="translate(0.5,0.5)"><path class="background" aria-hidden="true" d="M0,0h0v0h0Z" pointer-events="none"/><g><g class="mark-rule role-axis-tick" pointer-events="none"><line transform="translate(0,10)" x2="-10" y2="0" stroke="#cbcbcb" stroke-width="1" opacity="1"/><line transform="translate(0,30)" x2="-10" y2="0" stroke="#cbcbcb" stroke-width="1" opacity="1"/><line transform="translate(0,50)" x2="-10" y2="0" stroke="#cbcbcb" stroke-width="1" opacity="1"/><line transform="translate(0,70)" x2="-10" y2="0" stroke="#cbcbcb" stroke-width="1" opacity="1"/><line transform="translate(0,90)" x2="-10" y2="0" stroke="#cbcbcb" stroke-width="1" opacity="1"/><line transform="translate(0,110)" x2="-10" y2="0" stroke="#cbcbcb" stroke-width="1" opacity="1"/><line transform="translate(0,130)" x2="-10" y2="0" stroke="#cbcbcb" stroke-width="1" opacity="1"/><line transform="translate(0,150)" x2="-10" y2="0" stroke="#cbcbcb" stroke-width="1" opacity="1"/><line transform="translate(0,170)" x2="-10" y2="0" stroke="#cbcbcb" stroke-width="1" opacity="1"/><line transform="translate(0,190)" x2="-10" y2="0" stroke="#cbcbcb" stroke-width="1" opacity="1"/><line transform="translate(0,210)" x2="-10" y2="0" stroke="#cbcbcb" stroke-width="1" opacity="1"/><line transform="translate(0,230)" x2="-10" y2="0" stroke="#cbcbcb" stroke-width="1" opacity="1"/><line transform="translate(0,250)" x2="-10" y2="0" stroke="#cbcbcb" stroke-width="1" opacity="1"/><line transform="translate(0,270)" x2="-10" y2="0" stroke="#cbcbcb" stroke-width="1" opacity="1"/><line transform="translate(0,290)" x2="-10" y2="0" stroke="#cbcbcb" stroke-width="1" opacity="1"/><line transform="translate(0,310)" x2="-10" y2="0" stroke="#cbcbcb" stroke-width="1" opacity="1"/><line transform="translate(0,330)" x2="-10" y2="0" stroke="#cbcbcb" stroke-width="1" opacity="1"/><line transform="translate(0,350)" x2="-10" y2="0" stroke="#cbcbcb" stroke-width="1" opacity="1"/><line transform="translate(0,370)" x2="-10" y2="0" stroke="#cbcbcb" stroke-width="1" opacity="1"/><line transform="translate(0,390)" x2="-10" y2="0" stroke="#cbcbcb" stroke-width="1" opacity="1"/><line transform="translate(0,410)" x2="-10" y2="0" stroke="#cbcbcb" stroke-width="1" opacity="1"/><line transform="translate(0,430)" x2="-10" y2="0" stroke="#cbcbcb" stroke-width="1" opacity="1"/><line transform="translate(0,450)" x2="-10" y2="0" stroke="#cbcbcb" stroke-width="1" opacity="1"/><line transform="translate(0,470)" x2="-10" y2="0" stroke="#cbcbcb" stroke-width="1" opacity="1"/><line transform="translate(0,490)" x2="-10" y2="0" stroke="#cbcbcb" stroke-width="1" opacity="1"/><line transform="translate(0,510)" x2="-10" y2="0" stroke="#cbcbcb" stroke-width="1" opacity="1"/><line transform="translate(0,530)" x2="-10" y2="0" stroke="#cbcbcb" stroke-width="1" opacity="1"/><line transform="translate(0,550)" x2="-10" y2="0" stroke="#cbcbcb" stroke-width="1" opacity="1"/><line transform="translate(0,570)" x2="-10" y2="0" stroke="#cbcbcb" stroke-width="1" opacity="1"/><line transform="translate(0,590)" x2="-10" y2="0" stroke="#cbcbcb" stroke-width="1" opacity="1"/><line transform="translate(0,610)" x2="-10" y2="0" stroke="#cbcbcb" stroke-width="1" opacity="1"/><line transform="translate(0,630)" x2="-10" y2="0" stroke="#cbcbcb" stroke-width="1" opacity="1"/><line transform="translate(0,650)" x2="-10" y2="0" stroke="#cbcbcb" stroke-width="1" opacity="1"/><line transform="translate(0,670)" x2="-10" y2="0" stroke="#cbcbcb" stroke-width="1" opacity="1"/><line transform="translate(0,690)" x2="-10" y2="0" stroke="#cbcbcb" stroke-width="1" opacity="1"/></g><g class="mark-text role-axis-label" pointer-events="none"><text text-anchor="end" transform="translate(-14,13.5)" font-family="sans-serif" font-size="12px" fill="black" opacity="1">KY</text><text text-anchor="end" transform="translate(-14,33.5)" font-family="sans-serif" font-size="12px" fill="black" opacity="1">AL</text><text text-anchor="end" transform="translate(-14,53.5)" font-family="sans-serif" font-size="12px" fill="black" opacity="1">MD</text><text text-anchor="end" transform="translate(-14,73.5)" font-family="sans-serif" font-size="12px" fill="black" opacity="1">VA</text><text text-anchor="end" transform="translate(-14,93.5)" font-family="sans-serif" font-size="12px" fill="black" opacity="1">TN</text><text text-anchor="end" transform="translate(-14,113.5)" font-family="sans-serif" font-size="12px" fill="black" opacity="1">CT</text><text text-anchor="end" transform="translate(-14,133.5)" font-family="sans-serif" font-size="12px" fill="black" opacity="1">OH</text><text text-anchor="end" transform="translate(-14,153.5)" font-family="sans-serif" font-size="12px" fill="black" opacity="1">WV</text><text text-anchor="end" transform="translate(-14,173.5)" font-family="sans-serif" font-size="12px" fill="black" opacity="1">NY</text><text text-anchor="end" transform="translate(-14,193.5)" font-family="sans-serif" font-size="12px" fill="black" opacity="1">DC</text><text text-anchor="end" transform="translate(-14,213.5)" font-family="sans-serif" font-size="12px" fill="black" opacity="1">ID</text><text text-anchor="end" transform="translate(-14,233.5)" font-family="sans-serif" font-size="12px" fill="black" opacity="1">SC</text><text text-anchor="end" transform="translate(-14,253.5)" font-family="sans-serif" font-size="12px" fill="black" opacity="1">AZ</text><text text-anchor="end" transform="translate(-14,273.5)" font-family="sans-serif" font-size="12px" fill="black" opacity="1">NJ</text><text text-anchor="end" transform="translate(-14,293.5)" font-family="sans-serif" font-size="12px" fill="black" opacity="1">GA</text><text text-anchor="end" transform="translate(-14,313.5)" font-family="sans-serif" font-size="12px" fill="black" opacity="1">KS</text><text text-anchor="end" transform="translate(-14,333.5)" font-family="sans-serif" font-size="12px" fill="black" opacity="1">ME</text><text text-anchor="end" transform="translate(-14,353.5)" font-family="sans-serif" font-size="12px" fill="black" opacity="1">CA</text><text text-anchor="end" transform="translate(-14,373.5)" font-family="sans-serif" font-size="12px" fill="black" opacity="1">VT</text><text text-anchor="end" transform="translate(-14,393.5)" font-family="sans-serif" font-size="12px" fill="black" opacity="1">UT</text><text text-anchor="end" transform="translate(-14,413.5)" font-family="sans-serif" font-size="12px" fill="black" opacity="1">MO</text><text text-anchor="end" transform="translate(-14,433.5)" font-family="sans-serif" font-size="12px" fill="black" opacity="1">FL</text><text text-anchor="end" transform="translate(-14,453.5)" font-family="sans-serif" font-size="12px" fill="black" opacity="1">MS</text><text text-anchor="end" transform="translate(-14,473.5)" font-family="sans-serif" font-size="12px" fill="black" opacity="1">OR</text><text text-anchor="end" transform="translate(-14,493.5)" font-family="sans-serif" font-size="12px" fill="black" opacity="1">CO</text><text text-anchor="end" transform="translate(-14,513.5)" font-family="sans-serif" font-size="12px" fill="black" opacity="1">AK</text><text text-anchor="end" transform="translate(-14,533.5)" font-family="sans-serif" font-size="12px" fill="black" opacity="1">TX</text><text text-anchor="end" transform="translate(-14,553.5)" font-family="sans-serif" font-size="12px" fill="black" opacity="1">NC</text><text text-anchor="end" transform="translate(-14,573.5)" font-family="sans-serif" font-size="12px" fill="black" opacity="1">DE</text><text text-anchor="end" transform="translate(-14,593.5)" font-family="sans-serif" font-size="12px" fill="black" opacity="1">WA</text><text text-anchor="end" transform="translate(-14,613.5)" font-family="sans-serif" font-size="12px" fill="black" opacity="1">SD</text><text text-anchor="end" transform="translate(-14,633.5)" font-family="sans-serif" font-size="12px" fill="black" opacity="1">MA</text><text text-anchor="end" transform="translate(-14,653.5)" font-family="sans-serif" font-size="12px" fill="black" opacity="1">WI</text><text text-anchor="end" transform="translate(-14,673.5)" font-family="sans-serif" font-size="12px" fill="black" opacity="1">HI</text><text text-anchor="end" transform="translate(-14,693.5)" font-family="sans-serif" font-size="12px" fill="black" opacity="1">WY</text></g><g class="mark-rule role-axis-domain" pointer-events="none"><line transform="translate(0,0)" x2="0" y2="700" stroke="#cbcbcb" stroke-width="1" opacity="1"/></g></g><path class="foreground" aria-hidden="true" d="" pointer-events="none" display="none"/></g></g><g class="mark-rect role-mark layer_0_marks" role="graphics-symbol" aria-roledescription="rect mark container"><path d="M0,661h10v18h-10Z" fill="#74372F"/><path d="M0,681h10v18h-10Z" fill="#74372F"/><path d="M0,641h25v18h-25Z" fill="#74372F"/><path d="M0,561h30v18h-30Z" fill="#74372F"/><path d="M0,581h30v18h-30Z" fill="#74372F"/><path d="M0,601h30v18h-30Z" fill="#74372F"/><path d="M0,621h30v18h-30Z" fill="#74372F"/><path d="M0,521h35v18h-35Z" fill="#74372F"/><path d="M0,541h35v18h-35Z" fill="#74372F"/><path d="M0,501h50v18h-50Z" fill="#74372F"/><path d="M0,481h75v18h-75Z" fill="#74372F"/><path d="M0,461h80v18h-80Z" fill="#74372F"/><path d="M0,441h85v18h-85Z" fill="#74372F"/><path d="M0,401h100v18h-100Z" fill="#74372F"/><path d="M0,421h100v18h-100Z" fill="#74372F"/><path d="M0,361h114.99999999999999v18h-114.99999999999999Z" fill="#74372F"/><path d="M0,381h114.99999999999999v18h-114.99999999999999Z" fill="#74372F"/><path d="M0,321h140v18h-140Z" fill="#74372F"/><path d="M0,341h140v18h-140Z" fill="#74372F"/><path d="M0,301h160v18h-160Z" fill="#74372F"/><path d="M0,281h170v18h-170Z" fill="#74372F"/><path d="M0,241h175v18h-175Z" fill="#74372F"/><path d="M0,261h175v18h-175Z" fill="#74372F"/><path d="M0,221h190v18h-190Z" fill="#74372F"/><path d="M0,201h200v18h-200Z" fill="#74372F"/><path d="M0,181h204.99999999999997v18h-204.99999999999997Z" fill="#74372F"/><path d="M0,141h215v18h-215Z" fill="#74372F"/><path d="M0,161h215v18h-215Z" fill="#74372F"/><path d="M0,121h275v18h-275Z" fill="#74372F"/><path d="M0,101h285v18h-285Z" fill="#74372F"/><path d="M0,81h310v18h-310Z" fill="#74372F"/><path d="M0,61h340v18h-340Z" fill="#74372F"/><path d="M0,21h385v18h-385Z" fill="#74372F"/><path d="M0,41h385v18h-385Z" fill="#74372F"/><path d="M0,1h395v18h-395Z" fill="#74372F"/></g><g class="mark-text role-mark layer_1_marks" role="graphics-object" aria-roledescription="text mark container"><text text-anchor="middle" transform="translate(-4,674)" font-family="sans-serif" font-size="14px" fill="white">2</text><text text-anchor="middle" transform="translate(-4,694)" font-family="sans-serif" font-size="14px" fill="white">2</text><text text-anchor="middle" transform="translate(11,654)" font-family="sans-serif" font-size="14px" fill="white">5</text><text text-anchor="middle" transform="translate(16,574)" font-family="sans-serif" font-size="14px" fill="white">6</text><text text-anchor="middle" transform="translate(16,594)" font-family="sans-serif" font-size="14px" fill="white">6</text><text text-anchor="middle" transform="translate(16,614)" font-family="sans-serif" font-size="14px" fill="white">6</text><text text-anchor="middle" transform="translate(16,634)" font-family="sans-serif" font-size="14px" fill="white">6</text><text text-anchor="middle" transform="translate(21,534)" font-family="sans-serif" font-size="14px" fill="white">7</text><text text-anchor="middle" transform="translate(21,554)" font-family="sans-serif" font-size="14px" fill="white">7</text><text text-anchor="middle" transform="translate(36,514)" font-family="sans-serif" font-size="14px" fill="white">10</text><text text-anchor="middle" transform="translate(61,494)" font-family="sans-serif" font-size="14px" fill="white">15</text><text text-anchor="middle" transform="translate(66,474)" font-family="sans-serif" font-size="14px" fill="white">16</text><text text-anchor="middle" transform="translate(71,454)" font-family="sans-serif" font-size="14px" fill="white">17</text><text text-anchor="middle" transform="translate(86,414)" font-family="sans-serif" font-size="14px" fill="white">20</text><text text-anchor="middle" transform="translate(86,434)" font-family="sans-serif" font-size="14px" fill="white">20</text><text text-anchor="middle" transform="translate(100.99999999999999,374)" font-family="sans-serif" font-size="14px" fill="white">23</text><text text-anchor="middle" transform="translate(100.99999999999999,394)" font-family="sans-serif" font-size="14px" fill="white">23</text><text text-anchor="middle" transform="translate(126,334)" font-family="sans-serif" font-size="14px" fill="white">28</text><text text-anchor="middle" transform="translate(126,354)" font-family="sans-serif" font-size="14px" fill="white">28</text><text text-anchor="middle" transform="translate(146,314)" font-family="sans-serif" font-size="14px" fill="white">32</text><text text-anchor="middle" transform="translate(156,294)" font-family="sans-serif" font-size="14px" fill="white">34</text><text text-anchor="middle" transform="translate(161,254)" font-family="sans-serif" font-size="14px" fill="white">35</text><text text-anchor="middle" transform="translate(161,274)" font-family="sans-serif" font-size="14px" fill="white">35</text><text text-anchor="middle" transform="translate(176,234)" font-family="sans-serif" font-size="14px" fill="white">38</text><text text-anchor="middle" transform="translate(186,214)" font-family="sans-serif" font-size="14px" fill="white">40</text><text text-anchor="middle" transform="translate(190.99999999999997,194)" font-family="sans-serif" font-size="14px" fill="white">41</text><text text-anchor="middle" transform="translate(201,154)" font-family="sans-serif" font-size="14px" fill="white">43</text><text text-anchor="middle" transform="translate(201,174)" font-family="sans-serif" font-size="14px" fill="white">43</text><text text-anchor="middle" transform="translate(261,134)" font-family="sans-serif" font-size="14px" fill="white">55</text><text text-anchor="middle" transform="translate(271,114)" font-family="sans-serif" font-size="14px" fill="white">57</text><text text-anchor="middle" transform="translate(296,94)" font-family="sans-serif" font-size="14px" fill="white">62</text><text text-anchor="middle" transform="translate(326,74)" font-family="sans-serif" font-size="14px" fill="white">68</text><text text-anchor="middle" transform="translate(371,34)" font-family="sans-serif" font-size="14px" fill="white">77</text><text text-anchor="middle" transform="translate(371,54)" font-family="sans-serif" font-size="14px" fill="white">77</text><text text-anchor="middle" transform="translate(381,14)" font-family="sans-serif" font-size="14px" fill="white">79</text></g><g class="mark-group role-title"><g transform="translate(-33.330078125,-35)"><path class="background" aria-hidden="true" d="M0,0h0v0h0Z" pointer-events="none"/><g><g class="mark-text role-title-text" role="graphics-symbol" aria-roledescription="title" aria-label="Title text 'Percentage of Facilities Overdue for Inspection by State'" pointer-events="none"><text text-anchor="start" transform="translate(0,12)" font-family="sans-serif" font-size="15px" font-weight="600" fill="#000" opacity="1">Percentage of Facilities Overdue for Inspection by State</text></g></g><path class="foreground" aria-hidden="true" d="" pointer-events="none" display="none"/></g></g></g><path class="foreground" aria-hidden="true" d="" display="none"/></g></g></g></svg>