<svg xmlns="http://www.w3.org/2000/svg" xmlns:xlink="http://www.w3.org/1999/xlink" version="1.1" class="marks" width="361" height="398" viewBox="0 0 361 398"><rect width="361" height="398" fill="white"/><g fill="none" stroke-miterlimit="10" transform="translate(55,45)"><g class="mark-group role-frame root" role="graphics-object" aria-roledescription="group mark container"><g transform="translate(0,0)"><path class="background" aria-hidden="true" d="M0.5,0.5h300v300h-300Z" stroke="#ddd"/><g><g class="mark-group role-axis" aria-hidden="true"><g transform="translate(0.5,300.5)"><path class="background" aria-hidden="true" d="M0,0h0v0h0Z" pointer-events="none"/><g><g class="mark-rule role-axis-grid" pointer-events="none"><line transform="translate(0,-300)" x2="0" y2="300" stroke="#cbcbcb" stroke-width="1" opacity="1"/><line transform="translate(43,-300)" x2="0" y2="300" stroke="#cbcbcb" stroke-width="1" opacity="1"/><line transform="translate(86,-300)" x2="0" y2="300" stroke="#cbcbcb" stroke-width="1" opacity="1"/><line transform="translate(129,-300)" x2="0" y2="300" stroke="#cbcbcb" stroke-width="1" opacity="1"/><line transform="translate(171,-300)" x2="0" y2="300" stroke="#cbcbcb" stroke-width="1" opacity="1"/><line transform="translate(214,-300)" x2="0" y2="300" stroke="#cbcbcb" stroke-width="1" opacity="1"/><line transform="translate(257,-300)" x2="0" y2="300" stroke="#cbcbcb" stroke-width="1" opacity="1"/><line transform="translate(300,-300)" x2="0" y2="300" stroke="#cbcbcb" stroke-width="1" opacity="1"/></g></g><path class="foreground" aria-hidden="true" d="" pointer-events="none" display="none"/></g></g><g class="mark-group role-axis" aria-hidden="true"><g transform="translate(0.5,0.5)"><path class="background" aria-hidden="true" d="M0,0h0v0h0Z" pointer-events="none"/><g><g class="mark-rule role-axis-grid" pointer-events="none"><line transform="translate(0,300)" x2="300" y2="0" stroke="#cbcbcb" stroke-width="1" opacity="1"/><line transform="translate(0,267)" x2="300" y2="0" stroke="#cbcbcb" stroke-width="1" opacity="1"/><line transform="translate(0,233)" x2="300" y2="0" stroke="#cbcbcb" stroke-width="1" opacity="1"/><line transform="translate(0,200)" x2="300" y2="0" stroke="#cbcbcb" stroke-width="1" opacity="1"/><line transform="translate(0,167)" x2="300" y2="0" stroke="#cbcbcb" stroke-width="1" opacity="1"/><line transform="translate(0,133)" x2="300" y2="0" stroke="#cbcbcb" stroke-width="1" opacity="1"/><line transform="translate(0,100)" x2="300" y2="0" stroke="#cbcbcb" stroke-width="1" opacity="1"/><line transform="translate(0,67)" x2="300" y2="0" stroke="#cbcbcb" stroke-width="1" opacity="1"/><line transform="translate(0,33)" x2="300" y2="0" stroke="#cbcbcb" stroke-width="1" opacity="1"/><line transform="translate(0,0)" x2="300" y2="0" stroke="#cbcbcb" stroke-width="1" opacity="1"/></g></g><path class="foreground" aria-hidden="true" d="" pointer-events="none" display="none"/></g></g><g class="mark-group role-axis" role="graphics-symbol" aria-roledescription="axis" aria-label="X-axis titled 'Budgeted Surveyor Positions' for a linear scale with values from 0 to 700"><g transform="translate(0.5,300.5)"><path class="background" aria-hidden="true" d="M0,0h0v0h0Z" pointer-events="none"/><g><g class="mark-rule role-axis-tick" pointer-events="none"><line transform="translate(0,0)" x2="0" y2="10" stroke="#cbcbcb" stroke-width="1" opacity="1"/><line transform="translate(43,0)" x2="0" y2="10" stroke="#cbcbcb" stroke-width="1" opacity="1"/><line transform="translate(86,0)" x2="0" y2="10" stroke="#cbcbcb" stroke-width="1" opacity="1"/><line transform="translate(129,0)" x2="0" y2="10" stroke="#cbcbcb" stroke-width="1" opacity="1"/><line transform="translate(171,0)" x2="0" y2="10" stroke="#cbcbcb" stroke-width="1" opacity="1"/><line transform="translate(214,0)" x2="0" y2="10" stroke="#cbcbcb" stroke-width="1" opacity="1"/><line transform="translate(257,0)" x2="0" y2="10" stroke="#cbcbcb" stroke-width="1" opacity="1"/><line transform="translate(300,0)" x2="0" y2="10" stroke="#cbcbcb" stroke-width="1" opacity="1"/></g><g class="mark-text role-axis-label" pointer-events="none"><text text-anchor="start" transform="translate(0,22)" font-family="sans-serif" font-size="10px" fill="#999" opacity="1">0</text><text text-anchor="middle" transform="translate(42.857142857142854,22)" font-family="sans-serif" font-size="10px" fill="#999" opacity="1">100</text><text text-anchor="middle" transform="translate(85.71428571428571,22)" font-family="sans-serif" font-size="10px" fill="#999" opacity="1">200</text><text text-anchor="middle" transform="translate(128.57142857142856,22)" font-family="sans-serif" font-size="10px" fill="#999" opacity="1">300</text><text text-anchor="middle" transform="translate(171.42857142857142,22)" font-family="sans-serif" font-size="10px" fill="#999" opacity="1">400</text><text text-anchor="middle" transform="translate(214.28571428571428,22)" font-family="sans-serif" font-size="10px" fill="#999" opacity="1">500</text><text text-anchor="middle" transform="translate(257.1428571428571,22)" font-family="sans-serif" font-size="10px" fill="#999" opacity="1">600</text><text text-anchor="end" transform="translate(300,22)" font-family="sans-serif" font-size="10px" fill="#999" opacity="1">700</text></g><g class="mark-rule role-axis-domain" pointer-events="none"><line transform="translate(0,0)" x2="300" y2="0" stroke="#cbcbcb" stroke-width="1" opacity="1"/></g><g class="mark-text role-axis-title" pointer-events="none"><text text-anchor="middle" transform="translate(150,45)" font-family="sans-serif" font-size="14px" font-weight="bold" fill="#333" opacity="1">Budgeted Surveyor Positions</text></g></g><path class="foreground" aria-hidden="true" d="" pointer-events="none" display="none"/></g></g><g class="mark-group role-axis" role="graphics-symbol" aria-roledescription="axis" aria-label="Y-axis titled 'Percent Overdue' for a linear scale with values from 0 to 90"><g transform="translate(0.5,0.5)"><path class="background" aria-hidden="true" d="M0,0h0v0h0Z" pointer-events="none"/><g><g class="mark-rule role-axis-tick" pointer-events="none"><line transform="translate(0,300)" x2="-10" y2="0" stroke="#cbcbcb" stroke-width="1" opacity="1"/><line transform="translate(0,267)" x2="-10" y2="0" stroke="#cbcbcb" stroke-width="1" opacity="1"/><line transform="translate(0,233)" x2="-10" y2="0" stroke="#cbcbcb" stroke-width="1" opacity="1"/><line transform="translate(0,200)" x2="-10" y2="0" stroke="#cbcbcb" stroke-width="1" opacity="1"/><line transform="translate(0,167)" x2="-10" y2="0" stroke="#cbcbcb" stroke-width="1" opacity="1"/><line transform="translate(0,133)" x2="-10" y2="0" stroke="#cbcbcb" stroke-width="1" opacity="1"/><line transform="translate(0,100)" x2="-10" y2="0" stroke="#cbcbcb" stroke-width="1" opacity="1"/><line transform="translate(0,67)" x2="-10" y2="0" stroke="#cbcbcb" stroke-width="1" opacity="1"/><line transform="translate(0,33)" x2="-10" y2="0" stroke="#cbcbcb" stroke-width="1" opacity="1"/><line transform="translate(0,0)" x2="-10" y2="0" stroke="#cbcbcb" stroke-width="1" opacity="1"/></g><g class="mark-text role-axis-label" pointer-events="none"><text text-anchor="end" transform="translate(-14,303)" font-family="sans-serif" font-size="10px" fill="#999" opacity="1">0</text><text text-anchor="end" transform="translate(-14,269.66666666666663)" font-family="sans-serif" font-size="10px" fill="#999" opacity="1">10</text><text text-anchor="end" transform="translate(-14,236.33333333333334)" font-family="sans-serif" font-size="10px" fill="#999" opacity="1">20</text><text text-anchor="end" transform="translate(-14,203.00000000000003)" font-family="sans-serif" font-size="10px" fill="#999" opacity="1">30</text><text text-anchor="end" transform="translate(-14,169.66666666666669)" font-family="sans-serif" font-size="10px" fill="#999" opacity="1">40</text><text text-anchor="end" transform="translate(-14,136.33333333333331)" font-family="sans-serif" font-size="10px" fill="#999" opacity="1">50</text><text text-anchor="end" transform="translate(-14,103.00000000000001)" font-family="sans-serif" font-size="10px" fill="#999" opacity="1">60</text><text text-anchor="end" transform="translate(-14,69.66666666666666)" font-family="sans-serif" font-size="10px" fill="#999" opacity="1">70</text><text text-anchor="end" transform="translate(-14,36.33333333333335)" font-family="sans-serif" font-size="10px" fill="#999" opacity="1">80</text><text text-anchor="end" transform="translate(-14,3)" font-family="sans-serif" font-size="10px" fill="#999" opacity="1">90</text></g><g class="mark-rule role-axis-domain" pointer-events="none"><line transform="translate(0,300)" x2="0" y2="-300" stroke="#cbcbcb" stroke-width="1" opacity="1"/></g><g class="mark-text role-axis-title" pointer-events="none"><text text-anchor="middle" transform="translate(-35.123046875,150) rotate(-90) translate(0,-3)" font-family="sans-serif" font-size="14px" font-weight="bold" fill="#333" opacity="1">Percent Overdue</text></g></g><path class="foreground" aria-hidden="true" d="" pointer-events="none" display="none"/></g></g><g class="mark-symbol role-mark layer_0_marks" role="graphics-symbol" aria-roledescription="symbol mark container"><path transform="translate(21.857142857142858,56.666666666666664)" d="M2.739,0A2.739,2.739,0,1,1,-2.739,0A2.739,2.739,0,1,1,2.739,0" fill="#74372F" stroke-width="2" opacity="0.7"/><path transform="translate(6,300)" d="M2.739,0A2.739,2.739,0,1,1,-2.739,0A2.739,2.739,0,1,1,2.739,0" fill="#74372F" stroke-width="2" opacity="0.7"/><path transform="translate(15,300)" d="M2.739,0A2.739,2.739,0,1,1,-2.739,0A2.739,2.739,0,1,1,2.739,0" fill="#74372F" stroke-width="2" opacity="0.7"/><path transform="translate(26.57142857142857,300)" d="M2.739,0A2.739,2.739,0,1,1,-2.739,0A2.739,2.739,0,1,1,2.739,0" fill="#74372F" stroke-width="2" opacity="0.7"/><path transform="translate(280.2857142857143,123.33333333333333)" d="M2.739,0A2.739,2.739,0,1,1,-2.739,0A2.739,2.739,0,1,1,2.739,0" fill="#74372F" stroke-width="2" opacity="0.7"/><path transform="translate(22.285714285714285,260)" d="M2.739,0A2.739,2.739,0,1,1,-2.739,0A2.739,2.739,0,1,1,2.739,0" fill="#74372F" stroke-width="2" opacity="0.7"/><path transform="translate(28.28571428571429,140)" d="M2.739,0A2.739,2.739,0,1,1,-2.739,0A2.739,2.739,0,1,1,2.739,0" fill="#74372F" stroke-width="2" opacity="0.7"/><path transform="translate(9,180)" d="M2.739,0A2.739,2.739,0,1,1,-2.739,0A2.739,2.739,0,1,1,2.739,0" fill="#74372F" stroke-width="2" opacity="0.7"/><path transform="translate(98.14285714285714,226.66666666666666)" d="M2.739,0A2.739,2.739,0,1,1,-2.739,0A2.739,2.739,0,1,1,2.739,0" fill="#74372F" stroke-width="2" opacity="0.7"/><path transform="translate(23.57142857142857,233.33333333333334)" d="M2.739,0A2.739,2.739,0,1,1,-2.739,0A2.739,2.739,0,1,1,2.739,0" fill="#74372F" stroke-width="2" opacity="0.7"/><path transform="translate(5.142857142857143,300)" d="M2.739,0A2.739,2.739,0,1,1,-2.739,0A2.739,2.739,0,1,1,2.739,0" fill="#74372F" stroke-width="2" opacity="0.7"/><path transform="translate(7.285714285714286,63.33333333333334)" d="M2.739,0A2.739,2.739,0,1,1,-2.739,0A2.739,2.739,0,1,1,2.739,0" fill="#74372F" stroke-width="2" opacity="0.7"/><path transform="translate(135,300)" d="M2.739,0A2.739,2.739,0,1,1,-2.739,0A2.739,2.739,0,1,1,2.739,0" fill="#74372F" stroke-width="2" opacity="0.7"/><path transform="translate(42.857142857142854,290)" d="M2.739,0A2.739,2.739,0,1,1,-2.739,0A2.739,2.739,0,1,1,2.739,0" fill="#74372F" stroke-width="2" opacity="0.7"/><path transform="translate(19.71428571428571,283.3333333333333)" d="M2.739,0A2.739,2.739,0,1,1,-2.739,0A2.739,2.739,0,1,1,2.739,0" fill="#74372F" stroke-width="2" opacity="0.7"/><path transform="translate(24.42857142857143,246.66666666666666)" d="M2.739,0A2.739,2.739,0,1,1,-2.739,0A2.739,2.739,0,1,1,2.739,0" fill="#74372F" stroke-width="2" opacity="0.7"/><path transform="translate(40.71428571428571,16.666666666666675)" d="M2.739,0A2.739,2.739,0,1,1,-2.739,0A2.739,2.739,0,1,1,2.739,0" fill="#74372F" stroke-width="2" opacity="0.7"/><path transform="translate(18.42857142857143,300)" d="M2.739,0A2.739,2.739,0,1,1,-2.739,0A2.739,2.739,0,1,1,2.739,0" fill="#74372F" stroke-width="2" opacity="0.7"/><path transform="translate(6.428571428571429,229.99999999999997)" d="M2.739,0A2.739,2.739,0,1,1,-2.739,0A2.739,2.739,0,1,1,2.739,0" fill="#74372F" stroke-width="2" opacity="0.7"/><path transform="translate(25.285714285714285,53.33333333333334)" d="M2.739,0A2.739,2.739,0,1,1,-2.739,0A2.739,2.739,0,1,1,2.739,0" fill="#74372F" stroke-width="2" opacity="0.7"/><path transform="translate(35.142857142857146,260)" d="M2.739,0A2.739,2.739,0,1,1,-2.739,0A2.739,2.739,0,1,1,2.739,0" fill="#74372F" stroke-width="2" opacity="0.7"/><path transform="translate(39.85714285714286,296.6666666666667)" d="M2.739,0A2.739,2.739,0,1,1,-2.739,0A2.739,2.739,0,1,1,2.739,0" fill="#74372F" stroke-width="2" opacity="0.7"/><path transform="translate(33.42857142857143,290)" d="M2.739,0A2.739,2.739,0,1,1,-2.739,0A2.739,2.739,0,1,1,2.739,0" fill="#74372F" stroke-width="2" opacity="0.7"/><path transform="translate(15,233.33333333333334)" d="M2.739,0A2.739,2.739,0,1,1,-2.739,0A2.739,2.739,0,1,1,2.739,0" fill="#74372F" stroke-width="2" opacity="0.7"/><path transform="translate(81.42857142857142,213.33333333333334)" d="M2.739,0A2.739,2.739,0,1,1,-2.739,0A2.739,2.739,0,1,1,2.739,0" fill="#74372F" stroke-width="2" opacity="0.7"/><path transform="translate(9.428571428571429,300)" d="M2.739,0A2.739,2.739,0,1,1,-2.739,0A2.739,2.739,0,1,1,2.739,0" fill="#74372F" stroke-width="2" opacity="0.7"/><path transform="translate(14.142857142857144,300)" d="M2.739,0A2.739,2.739,0,1,1,-2.739,0A2.739,2.739,0,1,1,2.739,0" fill="#74372F" stroke-width="2" opacity="0.7"/><path transform="translate(8.142857142857142,296.6666666666667)" d="M2.739,0A2.739,2.739,0,1,1,-2.739,0A2.739,2.739,0,1,1,2.739,0" fill="#74372F" stroke-width="2" opacity="0.7"/><path transform="translate(7.285714285714286,300)" d="M2.739,0A2.739,2.739,0,1,1,-2.739,0A2.739,2.739,0,1,1,2.739,0" fill="#74372F" stroke-width="2" opacity="0.7"/><path transform="translate(29.142857142857142,190)" d="M2.739,0A2.739,2.739,0,1,1,-2.739,0A2.739,2.739,0,1,1,2.739,0" fill="#74372F" stroke-width="2" opacity="0.7"/><path transform="translate(11.571428571428571,300)" d="M2.739,0A2.739,2.739,0,1,1,-2.739,0A2.739,2.739,0,1,1,2.739,0" fill="#74372F" stroke-width="2" opacity="0.7"/><path transform="translate(49.285714285714285,163.33333333333334)" d="M2.739,0A2.739,2.739,0,1,1,-2.739,0A2.739,2.739,0,1,1,2.739,0" fill="#74372F" stroke-width="2" opacity="0.7"/><path transform="translate(41.142857142857146,283.3333333333333)" d="M2.739,0A2.739,2.739,0,1,1,-2.739,0A2.739,2.739,0,1,1,2.739,0" fill="#74372F" stroke-width="2" opacity="0.7"/><path transform="translate(10.714285714285714,300)" d="M2.739,0A2.739,2.739,0,1,1,-2.739,0A2.739,2.739,0,1,1,2.739,0" fill="#74372F" stroke-width="2" opacity="0.7"/><path transform="translate(50.57142857142857,183.33333333333334)" d="M2.739,0A2.739,2.739,0,1,1,-2.739,0A2.739,2.739,0,1,1,2.739,0" fill="#74372F" stroke-width="2" opacity="0.7"/><path transform="translate(25.714285714285715,290)" d="M2.739,0A2.739,2.739,0,1,1,-2.739,0A2.739,2.739,0,1,1,2.739,0" fill="#74372F" stroke-width="2" opacity="0.7"/><path transform="translate(22.285714285714285,256.6666666666667)" d="M2.739,0A2.739,2.739,0,1,1,-2.739,0A2.739,2.739,0,1,1,2.739,0" fill="#74372F" stroke-width="2" opacity="0.7"/><path transform="translate(51.42857142857143,300)" d="M2.739,0A2.739,2.739,0,1,1,-2.739,0A2.739,2.739,0,1,1,2.739,0" fill="#74372F" stroke-width="2" opacity="0.7"/><path transform="translate(12.857142857142858,300)" d="M2.739,0A2.739,2.739,0,1,1,-2.739,0A2.739,2.739,0,1,1,2.739,0" fill="#74372F" stroke-width="2" opacity="0.7"/><path transform="translate(6.857142857142857,186.66666666666666)" d="M2.739,0A2.739,2.739,0,1,1,-2.739,0A2.739,2.739,0,1,1,2.739,0" fill="#74372F" stroke-width="2" opacity="0.7"/><path transform="translate(9.857142857142856,296.6666666666667)" d="M2.739,0A2.739,2.739,0,1,1,-2.739,0A2.739,2.739,0,1,1,2.739,0" fill="#74372F" stroke-width="2" opacity="0.7"/><path transform="translate(47.14285714285714,96.66666666666666)" d="M2.739,0A2.739,2.739,0,1,1,-2.739,0A2.739,2.739,0,1,1,2.739,0" fill="#74372F" stroke-width="2" opacity="0.7"/><path transform="translate(150,300)" d="M2.739,0A2.739,2.739,0,1,1,-2.739,0A2.739,2.739,0,1,1,2.739,0" fill="#74372F" stroke-width="2" opacity="0.7"/><path transform="translate(6.857142857142857,200.00000000000003)" d="M2.739,0A2.739,2.739,0,1,1,-2.739,0A2.739,2.739,0,1,1,2.739,0" fill="#74372F" stroke-width="2" opacity="0.7"/><path transform="translate(6.857142857142857,300)" d="M2.739,0A2.739,2.739,0,1,1,-2.739,0A2.739,2.739,0,1,1,2.739,0" fill="#74372F" stroke-width="2" opacity="0.7"/><path transform="translate(19.285714285714285,160)" d="M2.739,0A2.739,2.739,0,1,1,-2.739,0A2.739,2.739,0,1,1,2.739,0" fill="#74372F" stroke-width="2" opacity="0.7"/><path transform="translate(45.857142857142854,290)" d="M2.739,0A2.739,2.739,0,1,1,-2.739,0A2.739,2.739,0,1,1,2.739,0" fill="#74372F" stroke-width="2" opacity="0.7"/><path transform="translate(10.285714285714286,270)" d="M2.739,0A2.739,2.739,0,1,1,-2.739,0A2.739,2.739,0,1,1,2.739,0" fill="#74372F" stroke-width="2" opacity="0.7"/><path transform="translate(27.428571428571427,300)" d="M2.739,0A2.739,2.739,0,1,1,-2.739,0A2.739,2.739,0,1,1,2.739,0" fill="#74372F" stroke-width="2" opacity="0.7"/><path transform="translate(4.714285714285714,300)" d="M2.739,0A2.739,2.739,0,1,1,-2.739,0A2.739,2.739,0,1,1,2.739,0" fill="#74372F" stroke-width="2" opacity="0.7"/></g><g class="mark-line role-mark layer_1_marks" role="graphics-symbol" aria-roledescription="line mark container"><path d="M4.714,247.303L280.286,173.085" stroke="#74372F" stroke-width="2"/></g><g class="mark-group role-title"><g transform="translate(-49.123046875,-40)"><path class="background" aria-hidden="true" d="M0,0h0v0h0Z" pointer-events="none"/><g><g class="mark-text role-title-text" role="graphics-symbol" aria-roledescription="title" aria-label="Title text 'Percent Overdue by Facilities per Surveyor'" pointer-events="none"><text text-anchor="start" transform="translate(30,12)" font-family="sans-serif" font-size="15px" font-weight="600" fill="#000" opacity="1">Percent Overdue by Facilities per Surveyor</text></g></g><path class="foreground" aria-hidden="true" d="" pointer-events="none" display="none"/></g></g></g><path class="foreground" aria-hidden="true" d="" display="none"/></g></g></g></svg>