<svg xmlns="http://www.w3.org/2000/svg" xmlns:xlink="http://www.w3.org/1999/xlink" version="1.1" class="marks" width="477" height="1113" viewBox="0 0 477 1113"><rect width="477" height="1113" fill="white"/><g fill="none" stroke-miterlimit="10" transform="translate(60,40)"><g class="mark-group role-frame root" role="graphics-object" aria-roledescription="group mark container"><g transform="translate(0,0)"><path class="background" aria-hidden="true" d="M0.5,0.5h300v1020h-300Z" stroke="#ddd"/><g><g class="mark-group role-axis" aria-hidden="true"><g transform="translate(0.5,1020.5)"><path class="background" aria-hidden="true" d="M0,0h0v0h0Z" pointer-events="none"/><g><g class="mark-rule role-axis-grid" pointer-events="none"><line transform="translate(0,0)" x2="0" y2="-1020" stroke="#cbcbcb" stroke-width="1" opacity="1"/><line transform="translate(25,0)" x2="0" y2="-1020" stroke="#cbcbcb" stroke-width="1" opacity="1"/><line transform="translate(48,0)" x2="0" y2="-1020" stroke="#cbcbcb" stroke-width="1" opacity="1"/><line transform="translate(74,0)" x2="0" y2="-1020" stroke="#cbcbcb" stroke-width="1" opacity="1"/><line transform="translate(99,0)" x2="0" y2="-1020" stroke="#cbcbcb" stroke-width="1" opacity="1"/><line transform="translate(124,0)" x2="0" y2="-1020" stroke="#cbcbcb" stroke-width="1" opacity="1"/><line transform="translate(149,0)" x2="0" y2="-1020" stroke="#cbcbcb" stroke-width="1" opacity="1"/><line transform="translate(174,0)" x2="0" y2="-1020" stroke="#cbcbcb" stroke-width="1" opacity="1"/><line transform="translate(200,0)" x2="0" y2="-1020" stroke="#cbcbcb" stroke-width="1" opacity="1"/><line transform="translate(224,0)" x2="0" y2="-1020" stroke="#cbcbcb" stroke-width="1" opacity="1"/><line transform="translate(250,0)" x2="0" y2="-1020" stroke="#cbcbcb" stroke-width="1" opacity="1"/><line transform="translate(275,0)" x2="0" y2="-1020" stroke="#cbcbcb" stroke-width="1" opacity="1"/><line transform="translate(300,0)" x2="0" y2="-1020" stroke="#cbcbcb" stroke-width="1" opacity="1"/></g></g><path class="foreground" aria-hidden="true" d="" pointer-events="none" display="none"/></g></g><g class="mark-group role-axis" role="graphics-symbol" aria-roledescription="axis" aria-label="X-axis titled 'Date' for a time scale with values from January 2023 to January 2024"><g transform="translate(0.5,1020.5)"><path class="background" aria-hidden="true" d="M0,0h0v0h0Z" pointer-events="none"/><g><g class="mark-rule role-axis-tick" pointer-events="none"><line transform="translate(0,0)" x2="0" y2="10" stroke="#cbcbcb" stroke-width="1" opacity="1"/><line transform="translate(25,0)" x2="0" y2="10" stroke="#cbcbcb" stroke-width="1" opacity="1"/><line transform="translate(48,0)" x2="0" y2="10" stroke="#cbcbcb" stroke-width="1" opacity="1"/><line transform="translate(74,0)" x2="0" y2="10" stroke="#cbcbcb" stroke-width="1" opacity="1"/><line transform="translate(99,0)" x2="0" y2="10" stroke="#cbcbcb" stroke-width="1" opacity="1"/><line transform="translate(124,0)" x2="0" y2="10" stroke="#cbcbcb" stroke-width="1" opacity="1"/><line transform="translate(149,0)" x2="0" y2="10" stroke="#cbcbcb" stroke-width="1" opacity="1"/><line transform="translate(174,0)" x2="0" y2="10" stroke="#cbcbcb" stroke-width="1" opacity="1"/><line transform="translate(200,0)" x2="0" y2="10" stroke="#cbcbcb" stroke-width="1" opacity="1"/><line transform="translate(224,0)" x2="0" y2="10" stroke="#cbcbcb" stroke-width="1" opacity="1"/><line transform="translate(250,0)" x2="0" y2="10" stroke="#cbcbcb" stroke-width="1" opacity="1"/><line transform="translate(275,0)" x2="0" y2="10" stroke="#cbcbcb" stroke-width="1" opacity="1"/><line transform="translate(300,0)" x2="0" y2="10" stroke="#cbcbcb" stroke-width="1" opacity="1"/></g><g class="mark-text role-axis-label" pointer-events="none"><text text-anchor="start" transform="translate(0,22)" font-family="sans-serif" font-size="10px" fill="#999" opacity="1">Jan 2023</text><text text-anchor="middle" transform="translate(25.47945205479452,22)" font-family="sans-serif" font-size="10px" fill="#999" opacity="0">Feb 2023</text><text text-anchor="middle" transform="translate(48.49315068493151,22)" font-family="sans-serif" font-size="10px" fill="#999" opacity="0">Mar 2023</text><text text-anchor="middle" transform="translate(73.93835616438356,22)" font-family="sans-serif" font-size="10px" fill="#999" opacity="0">Apr 2023</text><text text-anchor="middle" transform="translate(98.5958904109589,22)" font-family="sans-serif" font-size="10px" fill="#999" opacity="1">May 2023</text><text text-anchor="middle" transform="translate(124.07534246575344,22)" font-family="sans-serif" font-size="10px" fill="#999" opacity="0">Jun 2023</text><text text-anchor="middle" transform="translate(148.73287671232876,22)" font-family="sans-serif" font-size="10px" fill="#999" opacity="0">Jul 2023</text><text text-anchor="middle" transform="translate(174.2123287671233,22)" font-family="sans-serif" font-size="10px" fill="#999" opacity="0">Aug 2023</text><text text-anchor="middle" transform="translate(199.69178082191783,22)" font-family="sans-serif" font-size="10px" fill="#999" opacity="1">Sep 2023</text><text text-anchor="middle" transform="translate(224.34931506849315,22)" font-family="sans-serif" font-size="10px" fill="#999" opacity="0">Oct 2023</text><text text-anchor="middle" transform="translate(249.82876712328766,22)" font-family="sans-serif" font-size="10px" fill="#999" opacity="0">Nov 2023</text><text text-anchor="middle" transform="translate(274.52054794520546,22)" font-family="sans-serif" font-size="10px" fill="#999" opacity="0">Dec 2023</text><text text-anchor="end" transform="translate(300,22)" font-family="sans-serif" font-size="10px" fill="#999" opacity="1">Jan 2024</text></g><g class="mark-rule role-axis-domain" pointer-events="none"><line transform="translate(0,0)" x2="300" y2="0" stroke="#cbcbcb" stroke-width="1" opacity="1"/></g><g class="mark-text role-axis-title" pointer-events="none"><text text-anchor="middle" transform="translate(150,45)" font-family="sans-serif" font-size="14px" font-weight="bold" fill="#333" opacity="1">Date</text></g></g><path class="foreground" aria-hidden="true" d="" pointer-events="none" display="none"/></g></g><g class="mark-rect role-mark marks" role="graphics-symbol" aria-roledescription="rect mark container"><path d="M48.99315068493151,20h25.445205479452056v20h-25.445205479452056Z" fill="rgb(237, 214, 178)"/><path d="M200.19178082191783,20h24.657534246575324v20h-24.657534246575324Z" fill="rgb(237, 211, 171)"/><path d="M124.57534246575344,20h24.657534246575324v20h-24.657534246575324Z" fill="rgb(237, 206, 160)"/><path d="M275.02054794520546,20h25.479452054794535v20h-25.479452054794535Z" fill="rgb(238, 217, 185)"/><path d="M74.43835616438356,20h24.657534246575338v20h-24.657534246575338Z" fill="rgb(238, 217, 185)"/><path d="M224.84931506849315,20h25.479452054794507v20h-25.479452054794507Z" fill="rgb(238, 217, 185)"/><path d="M25.97945205479452,20h23.013698630136986v20h-23.013698630136986Z" fill="rgb(238, 217, 185)"/><path d="M174.7123287671233,20h25.479452054794535v20h-25.479452054794535Z" fill="rgb(237, 214, 178)"/><path d="M149.23287671232876,20h25.479452054794535v20h-25.479452054794535Z" fill="rgb(237, 210, 167)"/><path d="M250.32876712328766,20h24.691780821917803v20h-24.691780821917803Z" fill="rgb(238, 219, 189)"/><path d="M0.5,20h25.47945205479452v20h-25.47945205479452Z" fill="rgb(238, 219, 189)"/><path d="M99.0958904109589,20h25.479452054794535v20h-25.479452054794535Z" fill="rgb(238, 219, 189)"/><path d="M99.0958904109589,0h25.479452054794535v20h-25.479452054794535Z" fill="rgb(238, 217, 185)"/><path d="M200.19178082191783,0h24.657534246575324v20h-24.657534246575324Z" fill="rgb(238, 217, 185)"/><path d="M25.97945205479452,0h23.013698630136986v20h-23.013698630136986Z" fill="rgb(238, 217, 185)"/><path d="M124.57534246575344,0h24.657534246575324v20h-24.657534246575324Z" fill="rgb(238, 217, 185)"/><path d="M48.99315068493151,0h25.445205479452056v20h-25.445205479452056Z" fill="rgb(238, 216, 182)"/><path d="M224.84931506849315,0h25.479452054794507v20h-25.479452054794507Z" fill="rgb(238, 219, 189)"/><path d="M275.02054794520546,0h25.479452054794535v20h-25.479452054794535Z" fill="rgb(238, 216, 182)"/><path d="M74.43835616438356,0h24.657534246575338v20h-24.657534246575338Z" fill="rgb(238, 219, 189)"/><path d="M0.5,0h25.47945205479452v20h-25.47945205479452Z" fill="rgb(238, 219, 189)"/><path d="M25.97945205479452,60h23.013698630136986v20h-23.013698630136986Z" fill="rgb(236, 202, 149)"/><path d="M224.84931506849315,60h25.479452054794507v20h-25.479452054794507Z" fill="rgb(237, 206, 160)"/><path d="M200.19178082191783,60h24.657534246575324v20h-24.657534246575324Z" fill="rgb(235, 197, 142)"/><path d="M74.43835616438356,60h24.657534246575338v20h-24.657534246575338Z" fill="rgb(237, 210, 167)"/><path d="M250.32876712328766,60h24.691780821917803v20h-24.691780821917803Z" fill="rgb(237, 210, 167)"/><path d="M149.23287671232876,60h25.479452054794535v20h-25.479452054794535Z" fill="rgb(237, 208, 164)"/><path d="M0.5,60h25.47945205479452v20h-25.47945205479452Z" fill="rgb(236, 202, 149)"/><path d="M174.7123287671233,60h25.479452054794535v20h-25.479452054794535Z" fill="rgb(237, 206, 160)"/><path d="M275.02054794520546,60h25.479452054794535v20h-25.479452054794535Z" fill="rgb(237, 208, 164)"/><path d="M48.99315068493151,60h25.445205479452056v20h-25.445205479452056Z" fill="rgb(237, 206, 160)"/><path d="M124.57534246575344,60h24.657534246575324v20h-24.657534246575324Z" fill="rgb(236, 205, 157)"/><path d="M99.0958904109589,60h25.479452054794535v20h-25.479452054794535Z" fill="rgb(237, 213, 175)"/><path d="M275.02054794520546,40h25.479452054794535v20h-25.479452054794535Z" fill="rgb(235, 194, 137)"/><path d="M99.0958904109589,40h25.479452054794535v20h-25.479452054794535Z" fill="rgb(235, 199, 144)"/><path d="M124.57534246575344,40h24.657534246575324v20h-24.657534246575324Z" fill="rgb(235, 197, 142)"/><path d="M224.84931506849315,40h25.479452054794507v20h-25.479452054794507Z" fill="rgb(234, 192, 134)"/><path d="M149.23287671232876,40h25.479452054794535v20h-25.479452054794535Z" fill="rgb(235, 199, 144)"/><path d="M25.97945205479452,40h23.013698630136986v20h-23.013698630136986Z" fill="rgb(237, 208, 164)"/><path d="M48.99315068493151,40h25.445205479452056v20h-25.445205479452056Z" fill="rgb(235, 197, 142)"/><path d="M74.43835616438356,40h24.657534246575338v20h-24.657534246575338Z" fill="rgb(235, 194, 137)"/><path d="M200.19178082191783,40h24.657534246575324v20h-24.657534246575324Z" fill="rgb(235, 195, 139)"/><path d="M174.7123287671233,40h25.479452054794535v20h-25.479452054794535Z" fill="rgb(235, 199, 144)"/><path d="M0.5,40h25.47945205479452v20h-25.47945205479452Z" fill="rgb(236, 205, 157)"/><path d="M250.32876712328766,40h24.691780821917803v20h-24.691780821917803Z" fill="rgb(234, 192, 134)"/><path d="M250.32876712328766,80h24.691780821917803v20h-24.691780821917803Z" fill="rgb(195, 110, 69)"/><path d="M149.23287671232876,80h25.479452054794535v20h-25.479452054794535Z" fill="rgb(229, 172, 106)"/><path d="M275.02054794520546,80h25.479452054794535v20h-25.479452054794535Z" fill="rgb(192, 104, 64)"/><path d="M99.0958904109589,80h25.479452054794535v20h-25.479452054794535Z" fill="rgb(226, 164, 97)"/><path d="M25.97945205479452,80h23.013698630136986v20h-23.013698630136986Z" fill="rgb(224, 160, 93)"/><path d="M224.84931506849315,80h25.479452054794507v20h-25.479452054794507Z" fill="rgb(189, 97, 60)"/><path d="M74.43835616438356,80h24.657534246575338v20h-24.657534246575338Z" fill="rgb(225, 163, 96)"/><path d="M0.5,80h25.47945205479452v20h-25.47945205479452Z" fill="rgb(225, 163, 96)"/><path d="M124.57534246575344,80h24.657534246575324v20h-24.657534246575324Z" fill="rgb(225, 163, 96)"/><path d="M200.19178082191783,80h24.657534246575324v20h-24.657534246575324Z" fill="rgb(235, 199, 144)"/><path d="M48.99315068493151,80h25.445205479452056v20h-25.445205479452056Z" fill="rgb(212, 141, 85)"/><path d="M174.7123287671233,80h25.479452054794535v20h-25.479452054794535Z" fill="rgb(233, 184, 121)"/><path d="M0.5,100h25.47945205479452v20h-25.47945205479452Z" fill="rgb(235, 199, 144)"/><path d="M224.84931506849315,100h25.479452054794507v20h-25.479452054794507Z" fill="rgb(236, 203, 153)"/><path d="M99.0958904109589,100h25.479452054794535v20h-25.479452054794535Z" fill="rgb(236, 203, 153)"/><path d="M124.57534246575344,100h24.657534246575324v20h-24.657534246575324Z" fill="rgb(236, 202, 149)"/><path d="M275.02054794520546,100h25.479452054794535v20h-25.479452054794535Z" fill="rgb(237, 206, 160)"/><path d="M25.97945205479452,100h23.013698630136986v20h-23.013698630136986Z" fill="rgb(236, 202, 149)"/><path d="M250.32876712328766,100h24.691780821917803v20h-24.691780821917803Z" fill="rgb(236, 200, 147)"/><path d="M149.23287671232876,100h25.479452054794535v20h-25.479452054794535Z" fill="rgb(236, 203, 153)"/><path d="M48.99315068493151,100h25.445205479452056v20h-25.445205479452056Z" fill="rgb(235, 199, 144)"/><path d="M200.19178082191783,100h24.657534246575324v20h-24.657534246575324Z" fill="rgb(236, 203, 153)"/><path d="M174.7123287671233,100h25.479452054794535v20h-25.479452054794535Z" fill="rgb(236, 200, 147)"/><path d="M74.43835616438356,100h24.657534246575338v20h-24.657534246575338Z" fill="rgb(237, 206, 160)"/><path d="M99.0958904109589,120h25.479452054794535v20h-25.479452054794535Z" fill="rgb(237, 208, 164)"/><path d="M25.97945205479452,120h23.013698630136986v20h-23.013698630136986Z" fill="rgb(237, 213, 175)"/><path d="M48.99315068493151,120h25.445205479452056v20h-25.445205479452056Z" fill="rgb(237, 211, 171)"/><path d="M0.5,120h25.47945205479452v20h-25.47945205479452Z" fill="rgb(237, 211, 171)"/><path d="M124.57534246575344,120h24.657534246575324v20h-24.657534246575324Z" fill="rgb(237, 211, 171)"/><path d="M200.19178082191783,120h24.657534246575324v20h-24.657534246575324Z" fill="rgb(237, 206, 160)"/><path d="M174.7123287671233,120h25.479452054794535v20h-25.479452054794535Z" fill="rgb(237, 208, 164)"/><path d="M250.32876712328766,120h24.691780821917803v20h-24.691780821917803Z" fill="rgb(237, 211, 171)"/><path d="M149.23287671232876,120h25.479452054794535v20h-25.479452054794535Z" fill="rgb(237, 213, 175)"/><path d="M224.84931506849315,120h25.479452054794507v20h-25.479452054794507Z" fill="rgb(237, 213, 175)"/><path d="M275.02054794520546,120h25.479452054794535v20h-25.479452054794535Z" fill="rgb(237, 211, 171)"/><path d="M74.43835616438356,120h24.657534246575338v20h-24.657534246575338Z" fill="rgb(237, 210, 167)"/><path d="M224.84931506849315,160h25.479452054794507v20h-25.479452054794507Z" fill="rgb(237, 214, 178)"/><path d="M48.99315068493151,160h25.445205479452056v20h-25.445205479452056Z" fill="rgb(238, 217, 185)"/><path d="M250.32876712328766,160h24.691780821917803v20h-24.691780821917803Z" fill="rgb(238, 216, 182)"/><path d="M124.57534246575344,160h24.657534246575324v20h-24.657534246575324Z" fill="rgb(237, 214, 178)"/><path d="M275.02054794520546,160h25.479452054794535v20h-25.479452054794535Z" fill="rgb(238, 216, 182)"/><path d="M99.0958904109589,160h25.479452054794535v20h-25.479452054794535Z" fill="rgb(238, 217, 185)"/><path d="M200.19178082191783,160h24.657534246575324v20h-24.657534246575324Z" fill="rgb(238, 217, 185)"/><path d="M74.43835616438356,160h24.657534246575338v20h-24.657534246575338Z" fill="rgb(238, 217, 185)"/><path d="M174.7123287671233,160h25.479452054794535v20h-25.479452054794535Z" fill="rgb(238, 217, 185)"/><path d="M0.5,160h25.47945205479452v20h-25.47945205479452Z" fill="rgb(238, 217, 185)"/><path d="M25.97945205479452,160h23.013698630136986v20h-23.013698630136986Z" fill="rgb(238, 217, 185)"/><path d="M149.23287671232876,160h25.479452054794535v20h-25.479452054794535Z" fill="rgb(238, 219, 189)"/><path d="M200.19178082191783,140h24.657534246575324v20h-24.657534246575324Z" fill="rgb(238, 219, 189)"/><path d="M224.84931506849315,140h25.479452054794507v20h-25.479452054794507Z" fill="rgb(238, 219, 189)"/><path d="M48.99315068493151,140h25.445205479452056v20h-25.445205479452056Z" fill="rgb(238, 217, 185)"/><path d="M149.23287671232876,140h25.479452054794535v20h-25.479452054794535Z" fill="rgb(238, 219, 189)"/><path d="M74.43835616438356,140h24.657534246575338v20h-24.657534246575338Z" fill="rgb(238, 217, 185)"/><path d="M275.02054794520546,140h25.479452054794535v20h-25.479452054794535Z" fill="rgb(238, 219, 189)"/><path d="M0.5,140h25.47945205479452v20h-25.47945205479452Z" fill="rgb(238, 219, 189)"/><path d="M250.32876712328766,140h24.691780821917803v20h-24.691780821917803Z" fill="rgb(238, 219, 189)"/><path d="M99.0958904109589,140h25.479452054794535v20h-25.479452054794535Z" fill="rgb(238, 219, 189)"/><path d="M174.7123287671233,140h25.479452054794535v20h-25.479452054794535Z" fill="rgb(238, 219, 189)"/><path d="M25.97945205479452,140h23.013698630136986v20h-23.013698630136986Z" fill="rgb(238, 219, 189)"/><path d="M0.5,180h25.47945205479452v20h-25.47945205479452Z" fill="rgb(229, 172, 106)"/><path d="M149.23287671232876,180h25.479452054794535v20h-25.479452054794535Z" fill="rgb(232, 183, 119)"/><path d="M25.97945205479452,180h23.013698630136986v20h-23.013698630136986Z" fill="rgb(225, 163, 96)"/><path d="M250.32876712328766,180h24.691780821917803v20h-24.691780821917803Z" fill="rgb(225, 163, 96)"/><path d="M275.02054794520546,180h25.479452054794535v20h-25.479452054794535Z" fill="rgb(230, 175, 110)"/><path d="M224.84931506849315,180h25.479452054794507v20h-25.479452054794507Z" fill="rgb(227, 166, 99)"/><path d="M48.99315068493151,180h25.445205479452056v20h-25.445205479452056Z" fill="rgb(219, 151, 86)"/><path d="M174.7123287671233,180h25.479452054794535v20h-25.479452054794535Z" fill="rgb(228, 167, 100)"/><path d="M200.19178082191783,180h24.657534246575324v20h-24.657534246575324Z" fill="rgb(222, 155, 89)"/><path d="M124.57534246575344,180h24.657534246575324v20h-24.657534246575324Z" fill="rgb(226, 164, 97)"/><path d="M74.43835616438356,180h24.657534246575338v20h-24.657534246575338Z" fill="rgb(225, 163, 96)"/><path d="M99.0958904109589,180h25.479452054794535v20h-25.479452054794535Z" fill="rgb(227, 166, 99)"/><path d="M275.02054794520546,200h25.479452054794535v20h-25.479452054794535Z" fill="rgb(235, 195, 139)"/><path d="M0.5,200h25.47945205479452v20h-25.47945205479452Z" fill="rgb(231, 178, 113)"/><path d="M124.57534246575344,200h24.657534246575324v20h-24.657534246575324Z" fill="rgb(235, 197, 142)"/><path d="M250.32876712328766,200h24.691780821917803v20h-24.691780821917803Z" fill="rgb(235, 197, 142)"/><path d="M74.43835616438356,200h24.657534246575338v20h-24.657534246575338Z" fill="rgb(235, 195, 139)"/><path d="M25.97945205479452,200h23.013698630136986v20h-23.013698630136986Z" fill="rgb(234, 189, 129)"/><path d="M200.19178082191783,200h24.657534246575324v20h-24.657534246575324Z" fill="rgb(235, 195, 139)"/><path d="M99.0958904109589,200h25.479452054794535v20h-25.479452054794535Z" fill="rgb(236, 203, 153)"/><path d="M48.99315068493151,200h25.445205479452056v20h-25.445205479452056Z" fill="rgb(233, 186, 124)"/><path d="M224.84931506849315,200h25.479452054794507v20h-25.479452054794507Z" fill="rgb(233, 184, 121)"/><path d="M174.7123287671233,200h25.479452054794535v20h-25.479452054794535Z" fill="rgb(235, 194, 137)"/><path d="M149.23287671232876,200h25.479452054794535v20h-25.479452054794535Z" fill="rgb(236, 205, 157)"/><path d="M124.57534246575344,220h24.657534246575324v20h-24.657534246575324Z" fill="rgb(238, 216, 182)"/><path d="M25.97945205479452,220h23.013698630136986v20h-23.013698630136986Z" fill="rgb(237, 213, 175)"/><path d="M224.84931506849315,220h25.479452054794507v20h-25.479452054794507Z" fill="rgb(237, 213, 175)"/><path d="M149.23287671232876,220h25.479452054794535v20h-25.479452054794535Z" fill="rgb(238, 216, 182)"/><path d="M200.19178082191783,220h24.657534246575324v20h-24.657534246575324Z" fill="rgb(237, 213, 175)"/><path d="M174.7123287671233,220h25.479452054794535v20h-25.479452054794535Z" fill="rgb(237, 213, 175)"/><path d="M250.32876712328766,220h24.691780821917803v20h-24.691780821917803Z" fill="rgb(238, 217, 185)"/><path d="M48.99315068493151,220h25.445205479452056v20h-25.445205479452056Z" fill="rgb(238, 216, 182)"/><path d="M0.5,220h25.47945205479452v20h-25.47945205479452Z" fill="rgb(238, 219, 189)"/><path d="M275.02054794520546,220h25.479452054794535v20h-25.479452054794535Z" fill="rgb(237, 214, 178)"/><path d="M99.0958904109589,220h25.479452054794535v20h-25.479452054794535Z" fill="rgb(237, 214, 178)"/><path d="M74.43835616438356,220h24.657534246575338v20h-24.657534246575338Z" fill="rgb(238, 219, 189)"/><path d="M149.23287671232876,260h25.479452054794535v20h-25.479452054794535Z" fill="rgb(238, 216, 182)"/><path d="M124.57534246575344,260h24.657534246575324v20h-24.657534246575324Z" fill="rgb(238, 216, 182)"/><path d="M275.02054794520546,260h25.479452054794535v20h-25.479452054794535Z" fill="rgb(238, 216, 182)"/><path d="M250.32876712328766,260h24.691780821917803v20h-24.691780821917803Z" fill="rgb(238, 219, 189)"/><path d="M74.43835616438356,260h24.657534246575338v20h-24.657534246575338Z" fill="rgb(238, 219, 189)"/><path d="M99.0958904109589,260h25.479452054794535v20h-25.479452054794535Z" fill="rgb(238, 219, 189)"/><path d="M25.97945205479452,260h23.013698630136986v20h-23.013698630136986Z" fill="rgb(238, 219, 189)"/><path d="M224.84931506849315,260h25.479452054794507v20h-25.479452054794507Z" fill="rgb(238, 219, 189)"/><path d="M0.5,260h25.47945205479452v20h-25.47945205479452Z" fill="rgb(238, 219, 189)"/><path d="M174.7123287671233,260h25.479452054794535v20h-25.479452054794535Z" fill="rgb(238, 219, 189)"/><path d="M48.99315068493151,260h25.445205479452056v20h-25.445205479452056Z" fill="rgb(238, 217, 185)"/><path d="M200.19178082191783,260h24.657534246575324v20h-24.657534246575324Z" fill="rgb(238, 219, 189)"/><path d="M250.32876712328766,280h24.691780821917803v20h-24.691780821917803Z" fill="rgb(214, 144, 85)"/><path d="M25.97945205479452,280h23.013698630136986v20h-23.013698630136986Z" fill="rgb(213, 143, 85)"/><path d="M74.43835616438356,280h24.657534246575338v20h-24.657534246575338Z" fill="rgb(205, 131, 81)"/><path d="M149.23287671232876,280h25.479452054794535v20h-25.479452054794535Z" fill="rgb(213, 143, 85)"/><path d="M0.5,280h25.47945205479452v20h-25.47945205479452Z" fill="rgb(213, 143, 85)"/><path d="M174.7123287671233,280h25.479452054794535v20h-25.479452054794535Z" fill="rgb(199, 120, 76)"/><path d="M275.02054794520546,280h25.479452054794535v20h-25.479452054794535Z" fill="rgb(222, 155, 89)"/><path d="M224.84931506849315,280h25.479452054794507v20h-25.479452054794507Z" fill="rgb(214, 144, 85)"/><path d="M200.19178082191783,280h24.657534246575324v20h-24.657534246575324Z" fill="rgb(199, 120, 76)"/><path d="M48.99315068493151,280h25.445205479452056v20h-25.445205479452056Z" fill="rgb(196, 113, 71)"/><path d="M124.57534246575344,280h24.657534246575324v20h-24.657534246575324Z" fill="rgb(203, 128, 80)"/><path d="M99.0958904109589,280h25.479452054794535v20h-25.479452054794535Z" fill="rgb(203, 126, 79)"/><path d="M200.19178082191783,300h24.657534246575324v20h-24.657534246575324Z" fill="rgb(222, 157, 90)"/><path d="M74.43835616438356,300h24.657534246575338v20h-24.657534246575338Z" fill="rgb(229, 172, 106)"/><path d="M124.57534246575344,300h24.657534246575324v20h-24.657534246575324Z" fill="rgb(215, 145, 85)"/><path d="M275.02054794520546,300h25.479452054794535v20h-25.479452054794535Z" fill="rgb(224, 160, 93)"/><path d="M0.5,300h25.47945205479452v20h-25.47945205479452Z" fill="rgb(222, 157, 90)"/><path d="M149.23287671232876,300h25.479452054794535v20h-25.479452054794535Z" fill="rgb(225, 161, 95)"/><path d="M174.7123287671233,300h25.479452054794535v20h-25.479452054794535Z" fill="rgb(221, 154, 88)"/><path d="M99.0958904109589,300h25.479452054794535v20h-25.479452054794535Z" fill="rgb(226, 164, 97)"/><path d="M48.99315068493151,300h25.445205479452056v20h-25.445205479452056Z" fill="rgb(224, 160, 93)"/><path d="M25.97945205479452,300h23.013698630136986v20h-23.013698630136986Z" fill="rgb(222, 155, 89)"/><path d="M224.84931506849315,300h25.479452054794507v20h-25.479452054794507Z" fill="rgb(231, 178, 113)"/><path d="M250.32876712328766,300h24.691780821917803v20h-24.691780821917803Z" fill="rgb(231, 177, 112)"/><path d="M25.97945205479452,240h23.013698630136986v20h-23.013698630136986Z" fill="rgb(228, 167, 100)"/><path d="M0.5,240h25.47945205479452v20h-25.47945205479452Z" fill="rgb(231, 180, 115)"/><path d="M124.57534246575344,240h24.657534246575324v20h-24.657534246575324Z" fill="rgb(227, 166, 99)"/><path d="M149.23287671232876,240h25.479452054794535v20h-25.479452054794535Z" fill="rgb(233, 188, 126)"/><path d="M174.7123287671233,240h25.479452054794535v20h-25.479452054794535Z" fill="rgb(229, 172, 106)"/><path d="M250.32876712328766,240h24.691780821917803v20h-24.691780821917803Z" fill="rgb(230, 173, 108)"/><path d="M48.99315068493151,240h25.445205479452056v20h-25.445205479452056Z" fill="rgb(224, 160, 93)"/><path d="M99.0958904109589,240h25.479452054794535v20h-25.479452054794535Z" fill="rgb(229, 170, 104)"/><path d="M224.84931506849315,240h25.479452054794507v20h-25.479452054794507Z" fill="rgb(229, 170, 104)"/><path d="M74.43835616438356,240h24.657534246575338v20h-24.657534246575338Z" fill="rgb(236, 200, 147)"/><path d="M200.19178082191783,240h24.657534246575324v20h-24.657534246575324Z" fill="rgb(231, 180, 115)"/><path d="M275.02054794520546,240h25.479452054794535v20h-25.479452054794535Z" fill="rgb(235, 197, 142)"/><path d="M224.84931506849315,320h25.479452054794507v20h-25.479452054794507Z" fill="rgb(235, 197, 142)"/><path d="M0.5,320h25.47945205479452v20h-25.47945205479452Z" fill="rgb(234, 192, 134)"/><path d="M99.0958904109589,320h25.479452054794535v20h-25.479452054794535Z" fill="rgb(234, 192, 134)"/><path d="M149.23287671232876,320h25.479452054794535v20h-25.479452054794535Z" fill="rgb(236, 200, 147)"/><path d="M74.43835616438356,320h24.657534246575338v20h-24.657534246575338Z" fill="rgb(235, 199, 144)"/><path d="M48.99315068493151,320h25.445205479452056v20h-25.445205479452056Z" fill="rgb(235, 194, 137)"/><path d="M25.97945205479452,320h23.013698630136986v20h-23.013698630136986Z" fill="rgb(234, 192, 134)"/><path d="M250.32876712328766,320h24.691780821917803v20h-24.691780821917803Z" fill="rgb(235, 197, 142)"/><path d="M124.57534246575344,320h24.657534246575324v20h-24.657534246575324Z" fill="rgb(234, 192, 134)"/><path d="M200.19178082191783,320h24.657534246575324v20h-24.657534246575324Z" fill="rgb(235, 197, 142)"/><path d="M174.7123287671233,320h25.479452054794535v20h-25.479452054794535Z" fill="rgb(234, 189, 129)"/><path d="M275.02054794520546,320h25.479452054794535v20h-25.479452054794535Z" fill="rgb(237, 206, 160)"/><path d="M250.32876712328766,340h24.691780821917803v20h-24.691780821917803Z" fill="rgb(237, 208, 164)"/><path d="M25.97945205479452,340h23.013698630136986v20h-23.013698630136986Z" fill="rgb(237, 214, 178)"/><path d="M275.02054794520546,340h25.479452054794535v20h-25.479452054794535Z" fill="rgb(237, 213, 175)"/><path d="M48.99315068493151,340h25.445205479452056v20h-25.445205479452056Z" fill="rgb(237, 214, 178)"/><path d="M0.5,340h25.47945205479452v20h-25.47945205479452Z" fill="rgb(237, 214, 178)"/><path d="M124.57534246575344,340h24.657534246575324v20h-24.657534246575324Z" fill="rgb(238, 217, 185)"/><path d="M99.0958904109589,340h25.479452054794535v20h-25.479452054794535Z" fill="rgb(238, 217, 185)"/><path d="M149.23287671232876,340h25.479452054794535v20h-25.479452054794535Z" fill="rgb(238, 216, 182)"/><path d="M174.7123287671233,340h25.479452054794535v20h-25.479452054794535Z" fill="rgb(238, 217, 185)"/><path d="M224.84931506849315,340h25.479452054794507v20h-25.479452054794507Z" fill="rgb(238, 217, 185)"/><path d="M200.19178082191783,340h24.657534246575324v20h-24.657534246575324Z" fill="rgb(238, 219, 189)"/><path d="M74.43835616438356,340h24.657534246575338v20h-24.657534246575338Z" fill="rgb(238, 219, 189)"/><path d="M25.97945205479452,360h23.013698630136986v20h-23.013698630136986Z" fill="rgb(233, 188, 126)"/><path d="M99.0958904109589,360h25.479452054794535v20h-25.479452054794535Z" fill="rgb(233, 186, 124)"/><path d="M250.32876712328766,360h24.691780821917803v20h-24.691780821917803Z" fill="rgb(233, 188, 126)"/><path d="M174.7123287671233,360h25.479452054794535v20h-25.479452054794535Z" fill="rgb(231, 178, 113)"/><path d="M149.23287671232876,360h25.479452054794535v20h-25.479452054794535Z" fill="rgb(234, 192, 134)"/><path d="M74.43835616438356,360h24.657534246575338v20h-24.657534246575338Z" fill="rgb(233, 188, 126)"/><path d="M200.19178082191783,360h24.657534246575324v20h-24.657534246575324Z" fill="rgb(233, 188, 126)"/><path d="M48.99315068493151,360h25.445205479452056v20h-25.445205479452056Z" fill="rgb(229, 172, 106)"/><path d="M0.5,360h25.47945205479452v20h-25.47945205479452Z" fill="rgb(233, 188, 126)"/><path d="M224.84931506849315,360h25.479452054794507v20h-25.479452054794507Z" fill="rgb(234, 192, 134)"/><path d="M124.57534246575344,360h24.657534246575324v20h-24.657534246575324Z" fill="rgb(232, 181, 117)"/><path d="M275.02054794520546,360h25.479452054794535v20h-25.479452054794535Z" fill="rgb(235, 195, 139)"/><path d="M74.43835616438356,420h24.657534246575338v20h-24.657534246575338Z" fill="rgb(237, 213, 175)"/><path d="M275.02054794520546,420h25.479452054794535v20h-25.479452054794535Z" fill="rgb(237, 214, 178)"/><path d="M200.19178082191783,420h24.657534246575324v20h-24.657534246575324Z" fill="rgb(238, 216, 182)"/><path d="M224.84931506849315,420h25.479452054794507v20h-25.479452054794507Z" fill="rgb(237, 214, 178)"/><path d="M48.99315068493151,420h25.445205479452056v20h-25.445205479452056Z" fill="rgb(237, 213, 175)"/><path d="M99.0958904109589,420h25.479452054794535v20h-25.479452054794535Z" fill="rgb(237, 214, 178)"/><path d="M25.97945205479452,420h23.013698630136986v20h-23.013698630136986Z" fill="rgb(238, 216, 182)"/><path d="M174.7123287671233,420h25.479452054794535v20h-25.479452054794535Z" fill="rgb(237, 211, 171)"/><path d="M0.5,420h25.47945205479452v20h-25.47945205479452Z" fill="rgb(238, 216, 182)"/><path d="M250.32876712328766,420h24.691780821917803v20h-24.691780821917803Z" fill="rgb(237, 213, 175)"/><path d="M124.57534246575344,420h24.657534246575324v20h-24.657534246575324Z" fill="rgb(238, 217, 185)"/><path d="M149.23287671232876,420h25.479452054794535v20h-25.479452054794535Z" fill="rgb(238, 217, 185)"/><path d="M200.19178082191783,400h24.657534246575324v20h-24.657534246575324Z" fill="rgb(237, 214, 178)"/><path d="M48.99315068493151,400h25.445205479452056v20h-25.445205479452056Z" fill="rgb(237, 211, 171)"/><path d="M275.02054794520546,400h25.479452054794535v20h-25.479452054794535Z" fill="rgb(237, 213, 175)"/><path d="M250.32876712328766,400h24.691780821917803v20h-24.691780821917803Z" fill="rgb(237, 214, 178)"/><path d="M124.57534246575344,400h24.657534246575324v20h-24.657534246575324Z" fill="rgb(237, 213, 175)"/><path d="M25.97945205479452,400h23.013698630136986v20h-23.013698630136986Z" fill="rgb(238, 217, 185)"/><path d="M174.7123287671233,400h25.479452054794535v20h-25.479452054794535Z" fill="rgb(237, 214, 178)"/><path d="M74.43835616438356,400h24.657534246575338v20h-24.657534246575338Z" fill="rgb(238, 217, 185)"/><path d="M99.0958904109589,400h25.479452054794535v20h-25.479452054794535Z" fill="rgb(238, 216, 182)"/><path d="M149.23287671232876,400h25.479452054794535v20h-25.479452054794535Z" fill="rgb(238, 219, 189)"/><path d="M224.84931506849315,400h25.479452054794507v20h-25.479452054794507Z" fill="rgb(238, 219, 189)"/><path d="M0.5,400h25.47945205479452v20h-25.47945205479452Z" fill="rgb(238, 219, 189)"/><path d="M275.02054794520546,380h25.479452054794535v20h-25.479452054794535Z" fill="rgb(234, 189, 129)"/><path d="M0.5,380h25.47945205479452v20h-25.47945205479452Z" fill="rgb(234, 192, 134)"/><path d="M25.97945205479452,380h23.013698630136986v20h-23.013698630136986Z" fill="rgb(235, 194, 137)"/><path d="M99.0958904109589,380h25.479452054794535v20h-25.479452054794535Z" fill="rgb(231, 177, 112)"/><path d="M200.19178082191783,380h24.657534246575324v20h-24.657534246575324Z" fill="rgb(232, 183, 119)"/><path d="M174.7123287671233,380h25.479452054794535v20h-25.479452054794535Z" fill="rgb(230, 175, 110)"/><path d="M224.84931506849315,380h25.479452054794507v20h-25.479452054794507Z" fill="rgb(234, 189, 129)"/><path d="M74.43835616438356,380h24.657534246575338v20h-24.657534246575338Z" fill="rgb(233, 184, 121)"/><path d="M149.23287671232876,380h25.479452054794535v20h-25.479452054794535Z" fill="rgb(234, 189, 129)"/><path d="M48.99315068493151,380h25.445205479452056v20h-25.445205479452056Z" fill="rgb(231, 178, 113)"/><path d="M250.32876712328766,380h24.691780821917803v20h-24.691780821917803Z" fill="rgb(234, 191, 131)"/><path d="M124.57534246575344,380h24.657534246575324v20h-24.657534246575324Z" fill="rgb(233, 184, 121)"/><path d="M124.57534246575344,440h24.657534246575324v20h-24.657534246575324Z" fill="rgb(229, 172, 106)"/><path d="M250.32876712328766,440h24.691780821917803v20h-24.691780821917803Z" fill="rgb(230, 173, 108)"/><path d="M224.84931506849315,440h25.479452054794507v20h-25.479452054794507Z" fill="rgb(222, 157, 90)"/><path d="M99.0958904109589,440h25.479452054794535v20h-25.479452054794535Z" fill="rgb(224, 160, 93)"/><path d="M174.7123287671233,440h25.479452054794535v20h-25.479452054794535Z" fill="rgb(225, 163, 96)"/><path d="M0.5,440h25.47945205479452v20h-25.47945205479452Z" fill="rgb(231, 178, 113)"/><path d="M25.97945205479452,440h23.013698630136986v20h-23.013698630136986Z" fill="rgb(227, 166, 99)"/><path d="M275.02054794520546,440h25.479452054794535v20h-25.479452054794535Z" fill="rgb(233, 186, 124)"/><path d="M48.99315068493151,440h25.445205479452056v20h-25.445205479452056Z" fill="rgb(228, 169, 102)"/><path d="M149.23287671232876,440h25.479452054794535v20h-25.479452054794535Z" fill="rgb(227, 166, 99)"/><path d="M74.43835616438356,440h24.657534246575338v20h-24.657534246575338Z" fill="rgb(228, 169, 102)"/><path d="M200.19178082191783,440h24.657534246575324v20h-24.657534246575324Z" fill="rgb(232, 183, 119)"/><path d="M124.57534246575344,460h24.657534246575324v20h-24.657534246575324Z" fill="rgb(232, 181, 117)"/><path d="M48.99315068493151,460h25.445205479452056v20h-25.445205479452056Z" fill="rgb(228, 169, 102)"/><path d="M250.32876712328766,460h24.691780821917803v20h-24.691780821917803Z" fill="rgb(224, 160, 93)"/><path d="M74.43835616438356,460h24.657534246575338v20h-24.657534246575338Z" fill="rgb(233, 186, 124)"/><path d="M224.84931506849315,460h25.479452054794507v20h-25.479452054794507Z" fill="rgb(231, 180, 115)"/><path d="M200.19178082191783,460h24.657534246575324v20h-24.657534246575324Z" fill="rgb(228, 169, 102)"/><path d="M0.5,460h25.47945205479452v20h-25.47945205479452Z" fill="rgb(234, 192, 134)"/><path d="M99.0958904109589,460h25.479452054794535v20h-25.479452054794535Z" fill="rgb(233, 188, 126)"/><path d="M25.97945205479452,460h23.013698630136986v20h-23.013698630136986Z" fill="rgb(233, 186, 124)"/><path d="M174.7123287671233,460h25.479452054794535v20h-25.479452054794535Z" fill="rgb(222, 155, 89)"/><path d="M149.23287671232876,460h25.479452054794535v20h-25.479452054794535Z" fill="rgb(232, 181, 117)"/><path d="M275.02054794520546,460h25.479452054794535v20h-25.479452054794535Z" fill="rgb(231, 178, 113)"/><path d="M25.97945205479452,500h23.013698630136986v20h-23.013698630136986Z" fill="rgb(236, 205, 157)"/><path d="M174.7123287671233,500h25.479452054794535v20h-25.479452054794535Z" fill="rgb(235, 197, 142)"/><path d="M250.32876712328766,500h24.691780821917803v20h-24.691780821917803Z" fill="rgb(235, 197, 142)"/><path d="M200.19178082191783,500h24.657534246575324v20h-24.657534246575324Z" fill="rgb(236, 205, 157)"/><path d="M48.99315068493151,500h25.445205479452056v20h-25.445205479452056Z" fill="rgb(236, 200, 147)"/><path d="M149.23287671232876,500h25.479452054794535v20h-25.479452054794535Z" fill="rgb(237, 206, 160)"/><path d="M224.84931506849315,500h25.479452054794507v20h-25.479452054794507Z" fill="rgb(236, 202, 149)"/><path d="M124.57534246575344,500h24.657534246575324v20h-24.657534246575324Z" fill="rgb(236, 200, 147)"/><path d="M0.5,500h25.47945205479452v20h-25.47945205479452Z" fill="rgb(236, 202, 149)"/><path d="M74.43835616438356,500h24.657534246575338v20h-24.657534246575338Z" fill="rgb(236, 202, 149)"/><path d="M99.0958904109589,500h25.479452054794535v20h-25.479452054794535Z" fill="rgb(236, 203, 153)"/><path d="M275.02054794520546,500h25.479452054794535v20h-25.479452054794535Z" fill="rgb(237, 206, 160)"/><path d="M149.23287671232876,480h25.479452054794535v20h-25.479452054794535Z" fill="rgb(231, 178, 113)"/><path d="M250.32876712328766,480h24.691780821917803v20h-24.691780821917803Z" fill="rgb(230, 175, 110)"/><path d="M99.0958904109589,480h25.479452054794535v20h-25.479452054794535Z" fill="rgb(233, 184, 121)"/><path d="M124.57534246575344,480h24.657534246575324v20h-24.657534246575324Z" fill="rgb(229, 170, 104)"/><path d="M200.19178082191783,480h24.657534246575324v20h-24.657534246575324Z" fill="rgb(231, 177, 112)"/><path d="M275.02054794520546,480h25.479452054794535v20h-25.479452054794535Z" fill="rgb(232, 181, 117)"/><path d="M74.43835616438356,480h24.657534246575338v20h-24.657534246575338Z" fill="rgb(233, 186, 124)"/><path d="M224.84931506849315,480h25.479452054794507v20h-25.479452054794507Z" fill="rgb(231, 177, 112)"/><path d="M48.99315068493151,480h25.445205479452056v20h-25.445205479452056Z" fill="rgb(232, 181, 117)"/><path d="M0.5,480h25.47945205479452v20h-25.47945205479452Z" fill="rgb(234, 189, 129)"/><path d="M25.97945205479452,480h23.013698630136986v20h-23.013698630136986Z" fill="rgb(234, 189, 129)"/><path d="M174.7123287671233,480h25.479452054794535v20h-25.479452054794535Z" fill="rgb(231, 178, 113)"/><path d="M99.0958904109589,520h25.479452054794535v20h-25.479452054794535Z" fill="rgb(237, 208, 164)"/><path d="M25.97945205479452,520h23.013698630136986v20h-23.013698630136986Z" fill="rgb(237, 211, 171)"/><path d="M174.7123287671233,520h25.479452054794535v20h-25.479452054794535Z" fill="rgb(237, 208, 164)"/><path d="M275.02054794520546,520h25.479452054794535v20h-25.479452054794535Z" fill="rgb(237, 210, 167)"/><path d="M124.57534246575344,520h24.657534246575324v20h-24.657534246575324Z" fill="rgb(237, 213, 175)"/><path d="M74.43835616438356,520h24.657534246575338v20h-24.657534246575338Z" fill="rgb(237, 213, 175)"/><path d="M149.23287671232876,520h25.479452054794535v20h-25.479452054794535Z" fill="rgb(238, 216, 182)"/><path d="M0.5,520h25.47945205479452v20h-25.47945205479452Z" fill="rgb(237, 214, 178)"/><path d="M250.32876712328766,520h24.691780821917803v20h-24.691780821917803Z" fill="rgb(237, 211, 171)"/><path d="M48.99315068493151,520h25.445205479452056v20h-25.445205479452056Z" fill="rgb(237, 210, 167)"/><path d="M200.19178082191783,520h24.657534246575324v20h-24.657534246575324Z" fill="rgb(238, 217, 185)"/><path d="M224.84931506849315,520h25.479452054794507v20h-25.479452054794507Z" fill="rgb(238, 217, 185)"/><path d="M149.23287671232876,580h25.479452054794535v20h-25.479452054794535Z" fill="rgb(235, 197, 142)"/><path d="M224.84931506849315,580h25.479452054794507v20h-25.479452054794507Z" fill="rgb(236, 203, 153)"/><path d="M99.0958904109589,580h25.479452054794535v20h-25.479452054794535Z" fill="rgb(234, 192, 134)"/><path d="M200.19178082191783,580h24.657534246575324v20h-24.657534246575324Z" fill="rgb(235, 194, 137)"/><path d="M74.43835616438356,580h24.657534246575338v20h-24.657534246575338Z" fill="rgb(235, 199, 144)"/><path d="M174.7123287671233,580h25.479452054794535v20h-25.479452054794535Z" fill="rgb(234, 192, 134)"/><path d="M25.97945205479452,580h23.013698630136986v20h-23.013698630136986Z" fill="rgb(236, 202, 149)"/><path d="M48.99315068493151,580h25.445205479452056v20h-25.445205479452056Z" fill="rgb(235, 195, 139)"/><path d="M275.02054794520546,580h25.479452054794535v20h-25.479452054794535Z" fill="rgb(236, 205, 157)"/><path d="M0.5,580h25.47945205479452v20h-25.47945205479452Z" fill="rgb(236, 202, 149)"/><path d="M124.57534246575344,580h24.657534246575324v20h-24.657534246575324Z" fill="rgb(234, 191, 131)"/><path d="M250.32876712328766,580h24.691780821917803v20h-24.691780821917803Z" fill="rgb(234, 191, 131)"/><path d="M224.84931506849315,660h25.479452054794507v20h-25.479452054794507Z" fill="rgb(238, 217, 185)"/><path d="M74.43835616438356,660h24.657534246575338v20h-24.657534246575338Z" fill="rgb(237, 211, 171)"/><path d="M174.7123287671233,660h25.479452054794535v20h-25.479452054794535Z" fill="rgb(237, 208, 164)"/><path d="M200.19178082191783,660h24.657534246575324v20h-24.657534246575324Z" fill="rgb(237, 208, 164)"/><path d="M250.32876712328766,660h24.691780821917803v20h-24.691780821917803Z" fill="rgb(237, 213, 175)"/><path d="M48.99315068493151,660h25.445205479452056v20h-25.445205479452056Z" fill="rgb(237, 208, 164)"/><path d="M124.57534246575344,660h24.657534246575324v20h-24.657534246575324Z" fill="rgb(237, 214, 178)"/><path d="M99.0958904109589,660h25.479452054794535v20h-25.479452054794535Z" fill="rgb(237, 214, 178)"/><path d="M0.5,660h25.47945205479452v20h-25.47945205479452Z" fill="rgb(237, 211, 171)"/><path d="M275.02054794520546,660h25.479452054794535v20h-25.479452054794535Z" fill="rgb(237, 214, 178)"/><path d="M149.23287671232876,660h25.479452054794535v20h-25.479452054794535Z" fill="rgb(237, 211, 171)"/><path d="M25.97945205479452,660h23.013698630136986v20h-23.013698630136986Z" fill="rgb(238, 217, 185)"/><path d="M224.84931506849315,600h25.479452054794507v20h-25.479452054794507Z" fill="rgb(237, 208, 164)"/><path d="M25.97945205479452,600h23.013698630136986v20h-23.013698630136986Z" fill="rgb(237, 208, 164)"/><path d="M48.99315068493151,600h25.445205479452056v20h-25.445205479452056Z" fill="rgb(237, 208, 164)"/><path d="M275.02054794520546,600h25.479452054794535v20h-25.479452054794535Z" fill="rgb(237, 210, 167)"/><path d="M0.5,600h25.47945205479452v20h-25.47945205479452Z" fill="rgb(237, 208, 164)"/><path d="M99.0958904109589,600h25.479452054794535v20h-25.479452054794535Z" fill="rgb(237, 213, 175)"/><path d="M124.57534246575344,600h24.657534246575324v20h-24.657534246575324Z" fill="rgb(237, 210, 167)"/><path d="M149.23287671232876,600h25.479452054794535v20h-25.479452054794535Z" fill="rgb(238, 216, 182)"/><path d="M74.43835616438356,600h24.657534246575338v20h-24.657534246575338Z" fill="rgb(237, 210, 167)"/><path d="M250.32876712328766,600h24.691780821917803v20h-24.691780821917803Z" fill="rgb(237, 214, 178)"/><path d="M174.7123287671233,600h25.479452054794535v20h-25.479452054794535Z" fill="rgb(237, 214, 178)"/><path d="M200.19178082191783,600h24.657534246575324v20h-24.657534246575324Z" fill="rgb(238, 217, 185)"/><path d="M250.32876712328766,620h24.691780821917803v20h-24.691780821917803Z" fill="rgb(235, 195, 139)"/><path d="M200.19178082191783,620h24.657534246575324v20h-24.657534246575324Z" fill="rgb(232, 183, 119)"/><path d="M174.7123287671233,620h25.479452054794535v20h-25.479452054794535Z" fill="rgb(235, 195, 139)"/><path d="M74.43835616438356,620h24.657534246575338v20h-24.657534246575338Z" fill="rgb(235, 199, 144)"/><path d="M99.0958904109589,620h25.479452054794535v20h-25.479452054794535Z" fill="rgb(235, 195, 139)"/><path d="M0.5,620h25.47945205479452v20h-25.47945205479452Z" fill="rgb(231, 180, 115)"/><path d="M149.23287671232876,620h25.479452054794535v20h-25.479452054794535Z" fill="rgb(235, 197, 142)"/><path d="M275.02054794520546,620h25.479452054794535v20h-25.479452054794535Z" fill="rgb(235, 195, 139)"/><path d="M25.97945205479452,620h23.013698630136986v20h-23.013698630136986Z" fill="rgb(233, 186, 124)"/><path d="M224.84931506849315,620h25.479452054794507v20h-25.479452054794507Z" fill="rgb(236, 202, 149)"/><path d="M48.99315068493151,620h25.445205479452056v20h-25.445205479452056Z" fill="rgb(234, 192, 134)"/><path d="M124.57534246575344,620h24.657534246575324v20h-24.657534246575324Z" fill="rgb(235, 194, 137)"/><path d="M99.0958904109589,640h25.479452054794535v20h-25.479452054794535Z" fill="rgb(237, 214, 178)"/><path d="M0.5,640h25.47945205479452v20h-25.47945205479452Z" fill="rgb(237, 213, 175)"/><path d="M124.57534246575344,640h24.657534246575324v20h-24.657534246575324Z" fill="rgb(237, 213, 175)"/><path d="M174.7123287671233,640h25.479452054794535v20h-25.479452054794535Z" fill="rgb(237, 210, 167)"/><path d="M200.19178082191783,640h24.657534246575324v20h-24.657534246575324Z" fill="rgb(237, 213, 175)"/><path d="M74.43835616438356,640h24.657534246575338v20h-24.657534246575338Z" fill="rgb(237, 214, 178)"/><path d="M250.32876712328766,640h24.691780821917803v20h-24.691780821917803Z" fill="rgb(237, 214, 178)"/><path d="M25.97945205479452,640h23.013698630136986v20h-23.013698630136986Z" fill="rgb(237, 210, 167)"/><path d="M224.84931506849315,640h25.479452054794507v20h-25.479452054794507Z" fill="rgb(237, 214, 178)"/><path d="M48.99315068493151,640h25.445205479452056v20h-25.445205479452056Z" fill="rgb(237, 213, 175)"/><path d="M149.23287671232876,640h25.479452054794535v20h-25.479452054794535Z" fill="rgb(237, 214, 178)"/><path d="M275.02054794520546,640h25.479452054794535v20h-25.479452054794535Z" fill="rgb(237, 213, 175)"/><path d="M25.97945205479452,680h23.013698630136986v20h-23.013698630136986Z" fill="rgb(234, 191, 131)"/><path d="M275.02054794520546,680h25.479452054794535v20h-25.479452054794535Z" fill="rgb(230, 173, 108)"/><path d="M74.43835616438356,680h24.657534246575338v20h-24.657534246575338Z" fill="rgb(233, 188, 126)"/><path d="M224.84931506849315,680h25.479452054794507v20h-25.479452054794507Z" fill="rgb(231, 178, 113)"/><path d="M250.32876712328766,680h24.691780821917803v20h-24.691780821917803Z" fill="rgb(232, 183, 119)"/><path d="M124.57534246575344,680h24.657534246575324v20h-24.657534246575324Z" fill="rgb(231, 177, 112)"/><path d="M0.5,680h25.47945205479452v20h-25.47945205479452Z" fill="rgb(234, 191, 131)"/><path d="M48.99315068493151,680h25.445205479452056v20h-25.445205479452056Z" fill="rgb(229, 172, 106)"/><path d="M99.0958904109589,680h25.479452054794535v20h-25.479452054794535Z" fill="rgb(231, 178, 113)"/><path d="M200.19178082191783,680h24.657534246575324v20h-24.657534246575324Z" fill="rgb(233, 188, 126)"/><path d="M174.7123287671233,680h25.479452054794535v20h-25.479452054794535Z" fill="rgb(233, 188, 126)"/><path d="M149.23287671232876,680h25.479452054794535v20h-25.479452054794535Z" fill="rgb(233, 188, 126)"/><path d="M275.02054794520546,540h25.479452054794535v20h-25.479452054794535Z" fill="rgb(234, 189, 129)"/><path d="M174.7123287671233,540h25.479452054794535v20h-25.479452054794535Z" fill="rgb(228, 167, 100)"/><path d="M99.0958904109589,540h25.479452054794535v20h-25.479452054794535Z" fill="rgb(230, 175, 110)"/><path d="M48.99315068493151,540h25.445205479452056v20h-25.445205479452056Z" fill="rgb(229, 172, 106)"/><path d="M124.57534246575344,540h24.657534246575324v20h-24.657534246575324Z" fill="rgb(230, 173, 108)"/><path d="M0.5,540h25.47945205479452v20h-25.47945205479452Z" fill="rgb(232, 181, 117)"/><path d="M224.84931506849315,540h25.479452054794507v20h-25.479452054794507Z" fill="rgb(231, 180, 115)"/><path d="M74.43835616438356,540h24.657534246575338v20h-24.657534246575338Z" fill="rgb(231, 178, 113)"/><path d="M25.97945205479452,540h23.013698630136986v20h-23.013698630136986Z" fill="rgb(231, 178, 113)"/><path d="M200.19178082191783,540h24.657534246575324v20h-24.657534246575324Z" fill="rgb(229, 170, 104)"/><path d="M250.32876712328766,540h24.691780821917803v20h-24.691780821917803Z" fill="rgb(229, 170, 104)"/><path d="M149.23287671232876,540h25.479452054794535v20h-25.479452054794535Z" fill="rgb(234, 191, 131)"/><path d="M174.7123287671233,560h25.479452054794535v20h-25.479452054794535Z" fill="rgb(237, 206, 160)"/><path d="M99.0958904109589,560h25.479452054794535v20h-25.479452054794535Z" fill="rgb(237, 211, 171)"/><path d="M25.97945205479452,560h23.013698630136986v20h-23.013698630136986Z" fill="rgb(237, 211, 171)"/><path d="M224.84931506849315,560h25.479452054794507v20h-25.479452054794507Z" fill="rgb(237, 208, 164)"/><path d="M0.5,560h25.47945205479452v20h-25.47945205479452Z" fill="rgb(237, 213, 175)"/><path d="M48.99315068493151,560h25.445205479452056v20h-25.445205479452056Z" fill="rgb(237, 210, 167)"/><path d="M149.23287671232876,560h25.479452054794535v20h-25.479452054794535Z" fill="rgb(237, 213, 175)"/><path d="M200.19178082191783,560h24.657534246575324v20h-24.657534246575324Z" fill="rgb(237, 210, 167)"/><path d="M124.57534246575344,560h24.657534246575324v20h-24.657534246575324Z" fill="rgb(237, 213, 175)"/><path d="M250.32876712328766,560h24.691780821917803v20h-24.691780821917803Z" fill="rgb(237, 210, 167)"/><path d="M275.02054794520546,560h25.479452054794535v20h-25.479452054794535Z" fill="rgb(237, 213, 175)"/><path d="M74.43835616438356,560h24.657534246575338v20h-24.657534246575338Z" fill="rgb(237, 214, 178)"/><path d="M174.7123287671233,700h25.479452054794535v20h-25.479452054794535Z" fill="rgb(227, 166, 99)"/><path d="M200.19178082191783,700h24.657534246575324v20h-24.657534246575324Z" fill="rgb(231, 180, 115)"/><path d="M25.97945205479452,700h23.013698630136986v20h-23.013698630136986Z" fill="rgb(230, 175, 110)"/><path d="M224.84931506849315,700h25.479452054794507v20h-25.479452054794507Z" fill="rgb(230, 175, 110)"/><path d="M149.23287671232876,700h25.479452054794535v20h-25.479452054794535Z" fill="rgb(232, 181, 117)"/><path d="M124.57534246575344,700h24.657534246575324v20h-24.657534246575324Z" fill="rgb(227, 166, 99)"/><path d="M74.43835616438356,700h24.657534246575338v20h-24.657534246575338Z" fill="rgb(228, 169, 102)"/><path d="M0.5,700h25.47945205479452v20h-25.47945205479452Z" fill="rgb(231, 177, 112)"/><path d="M275.02054794520546,700h25.479452054794535v20h-25.479452054794535Z" fill="rgb(233, 188, 126)"/><path d="M48.99315068493151,700h25.445205479452056v20h-25.445205479452056Z" fill="rgb(228, 169, 102)"/><path d="M250.32876712328766,700h24.691780821917803v20h-24.691780821917803Z" fill="rgb(229, 172, 106)"/><path d="M99.0958904109589,700h25.479452054794535v20h-25.479452054794535Z" fill="rgb(225, 161, 95)"/><path d="M25.97945205479452,720h23.013698630136986v20h-23.013698630136986Z" fill="rgb(232, 183, 119)"/><path d="M275.02054794520546,720h25.479452054794535v20h-25.479452054794535Z" fill="rgb(231, 180, 115)"/><path d="M250.32876712328766,720h24.691780821917803v20h-24.691780821917803Z" fill="rgb(231, 177, 112)"/><path d="M48.99315068493151,720h25.445205479452056v20h-25.445205479452056Z" fill="rgb(234, 192, 134)"/><path d="M149.23287671232876,720h25.479452054794535v20h-25.479452054794535Z" fill="rgb(231, 180, 115)"/><path d="M200.19178082191783,720h24.657534246575324v20h-24.657534246575324Z" fill="rgb(230, 175, 110)"/><path d="M174.7123287671233,720h25.479452054794535v20h-25.479452054794535Z" fill="rgb(225, 163, 96)"/><path d="M99.0958904109589,720h25.479452054794535v20h-25.479452054794535Z" fill="rgb(235, 199, 144)"/><path d="M74.43835616438356,720h24.657534246575338v20h-24.657534246575338Z" fill="rgb(235, 194, 137)"/><path d="M224.84931506849315,720h25.479452054794507v20h-25.479452054794507Z" fill="rgb(235, 194, 137)"/><path d="M0.5,720h25.47945205479452v20h-25.47945205479452Z" fill="rgb(231, 180, 115)"/><path d="M124.57534246575344,720h24.657534246575324v20h-24.657534246575324Z" fill="rgb(232, 183, 119)"/><path d="M250.32876712328766,740h24.691780821917803v20h-24.691780821917803Z" fill="rgb(237, 210, 167)"/><path d="M74.43835616438356,740h24.657534246575338v20h-24.657534246575338Z" fill="rgb(237, 208, 164)"/><path d="M200.19178082191783,740h24.657534246575324v20h-24.657534246575324Z" fill="rgb(237, 211, 171)"/><path d="M25.97945205479452,740h23.013698630136986v20h-23.013698630136986Z" fill="rgb(237, 208, 164)"/><path d="M124.57534246575344,740h24.657534246575324v20h-24.657534246575324Z" fill="rgb(237, 206, 160)"/><path d="M149.23287671232876,740h25.479452054794535v20h-25.479452054794535Z" fill="rgb(237, 208, 164)"/><path d="M99.0958904109589,740h25.479452054794535v20h-25.479452054794535Z" fill="rgb(236, 205, 157)"/><path d="M48.99315068493151,740h25.445205479452056v20h-25.445205479452056Z" fill="rgb(237, 206, 160)"/><path d="M275.02054794520546,740h25.479452054794535v20h-25.479452054794535Z" fill="rgb(237, 206, 160)"/><path d="M0.5,740h25.47945205479452v20h-25.47945205479452Z" fill="rgb(237, 208, 164)"/><path d="M174.7123287671233,740h25.479452054794535v20h-25.479452054794535Z" fill="rgb(237, 206, 160)"/><path d="M224.84931506849315,740h25.479452054794507v20h-25.479452054794507Z" fill="rgb(236, 205, 157)"/><path d="M74.43835616438356,760h24.657534246575338v20h-24.657534246575338Z" fill="rgb(209, 137, 84)"/><path d="M124.57534246575344,760h24.657534246575324v20h-24.657534246575324Z" fill="rgb(198, 118, 75)"/><path d="M25.97945205479452,760h23.013698630136986v20h-23.013698630136986Z" fill="rgb(204, 129, 80)"/><path d="M200.19178082191783,760h24.657534246575324v20h-24.657534246575324Z" fill="rgb(198, 118, 75)"/><path d="M224.84931506849315,760h25.479452054794507v20h-25.479452054794507Z" fill="rgb(198, 118, 75)"/><path d="M48.99315068493151,760h25.445205479452056v20h-25.445205479452056Z" fill="rgb(199, 120, 76)"/><path d="M149.23287671232876,760h25.479452054794535v20h-25.479452054794535Z" fill="rgb(208, 135, 83)"/><path d="M250.32876712328766,760h24.691780821917803v20h-24.691780821917803Z" fill="rgb(203, 128, 80)"/><path d="M275.02054794520546,760h25.479452054794535v20h-25.479452054794535Z" fill="rgb(207, 134, 83)"/><path d="M0.5,760h25.47945205479452v20h-25.47945205479452Z" fill="rgb(207, 134, 83)"/><path d="M174.7123287671233,760h25.479452054794535v20h-25.479452054794535Z" fill="rgb(200, 121, 77)"/><path d="M99.0958904109589,760h25.479452054794535v20h-25.479452054794535Z" fill="rgb(202, 124, 78)"/><path d="M99.0958904109589,780h25.479452054794535v20h-25.479452054794535Z" fill="rgb(237, 213, 175)"/><path d="M25.97945205479452,780h23.013698630136986v20h-23.013698630136986Z" fill="rgb(237, 211, 171)"/><path d="M174.7123287671233,780h25.479452054794535v20h-25.479452054794535Z" fill="rgb(237, 214, 178)"/><path d="M0.5,780h25.47945205479452v20h-25.47945205479452Z" fill="rgb(237, 211, 171)"/><path d="M124.57534246575344,780h24.657534246575324v20h-24.657534246575324Z" fill="rgb(237, 214, 178)"/><path d="M224.84931506849315,780h25.479452054794507v20h-25.479452054794507Z" fill="rgb(237, 211, 171)"/><path d="M250.32876712328766,780h24.691780821917803v20h-24.691780821917803Z" fill="rgb(237, 210, 167)"/><path d="M200.19178082191783,780h24.657534246575324v20h-24.657534246575324Z" fill="rgb(237, 213, 175)"/><path d="M74.43835616438356,780h24.657534246575338v20h-24.657534246575338Z" fill="rgb(237, 213, 175)"/><path d="M149.23287671232876,780h25.479452054794535v20h-25.479452054794535Z" fill="rgb(237, 214, 178)"/><path d="M48.99315068493151,780h25.445205479452056v20h-25.445205479452056Z" fill="rgb(237, 208, 164)"/><path d="M275.02054794520546,780h25.479452054794535v20h-25.479452054794535Z" fill="rgb(237, 213, 175)"/><path d="M124.57534246575344,800h24.657534246575324v20h-24.657534246575324Z" fill="rgb(236, 205, 157)"/><path d="M99.0958904109589,800h25.479452054794535v20h-25.479452054794535Z" fill="rgb(236, 200, 147)"/><path d="M174.7123287671233,800h25.479452054794535v20h-25.479452054794535Z" fill="rgb(237, 206, 160)"/><path d="M200.19178082191783,800h24.657534246575324v20h-24.657534246575324Z" fill="rgb(237, 208, 164)"/><path d="M275.02054794520546,800h25.479452054794535v20h-25.479452054794535Z" fill="rgb(237, 206, 160)"/><path d="M25.97945205479452,800h23.013698630136986v20h-23.013698630136986Z" fill="rgb(237, 206, 160)"/><path d="M48.99315068493151,800h25.445205479452056v20h-25.445205479452056Z" fill="rgb(237, 213, 175)"/><path d="M149.23287671232876,800h25.479452054794535v20h-25.479452054794535Z" fill="rgb(237, 208, 164)"/><path d="M74.43835616438356,800h24.657534246575338v20h-24.657534246575338Z" fill="rgb(236, 205, 157)"/><path d="M224.84931506849315,800h25.479452054794507v20h-25.479452054794507Z" fill="rgb(237, 214, 178)"/><path d="M250.32876712328766,800h24.691780821917803v20h-24.691780821917803Z" fill="rgb(238, 216, 182)"/><path d="M0.5,800h25.47945205479452v20h-25.47945205479452Z" fill="rgb(238, 219, 189)"/><path d="M25.97945205479452,820h23.013698630136986v20h-23.013698630136986Z" fill="rgb(237, 211, 171)"/><path d="M250.32876712328766,820h24.691780821917803v20h-24.691780821917803Z" fill="rgb(237, 213, 175)"/><path d="M174.7123287671233,820h25.479452054794535v20h-25.479452054794535Z" fill="rgb(235, 195, 139)"/><path d="M224.84931506849315,820h25.479452054794507v20h-25.479452054794507Z" fill="rgb(237, 210, 167)"/><path d="M48.99315068493151,820h25.445205479452056v20h-25.445205479452056Z" fill="rgb(236, 202, 149)"/><path d="M200.19178082191783,820h24.657534246575324v20h-24.657534246575324Z" fill="rgb(237, 208, 164)"/><path d="M124.57534246575344,820h24.657534246575324v20h-24.657534246575324Z" fill="rgb(237, 211, 171)"/><path d="M275.02054794520546,820h25.479452054794535v20h-25.479452054794535Z" fill="rgb(237, 208, 164)"/><path d="M0.5,820h25.47945205479452v20h-25.47945205479452Z" fill="rgb(237, 211, 171)"/><path d="M74.43835616438356,820h24.657534246575338v20h-24.657534246575338Z" fill="rgb(237, 210, 167)"/><path d="M99.0958904109589,820h25.479452054794535v20h-25.479452054794535Z" fill="rgb(237, 214, 178)"/><path d="M149.23287671232876,820h25.479452054794535v20h-25.479452054794535Z" fill="rgb(236, 205, 157)"/><path d="M224.84931506849315,840h25.479452054794507v20h-25.479452054794507Z" fill="rgb(237, 206, 160)"/><path d="M200.19178082191783,840h24.657534246575324v20h-24.657534246575324Z" fill="rgb(236, 205, 157)"/><path d="M174.7123287671233,840h25.479452054794535v20h-25.479452054794535Z" fill="rgb(235, 195, 139)"/><path d="M275.02054794520546,840h25.479452054794535v20h-25.479452054794535Z" fill="rgb(238, 219, 189)"/><path d="M48.99315068493151,840h25.445205479452056v20h-25.445205479452056Z" fill="rgb(237, 208, 164)"/><path d="M124.57534246575344,840h24.657534246575324v20h-24.657534246575324Z" fill="rgb(237, 213, 175)"/><path d="M74.43835616438356,840h24.657534246575338v20h-24.657534246575338Z" fill="rgb(237, 214, 178)"/><path d="M25.97945205479452,840h23.013698630136986v20h-23.013698630136986Z" fill="rgb(237, 214, 178)"/><path d="M250.32876712328766,840h24.691780821917803v20h-24.691780821917803Z" fill="rgb(237, 210, 167)"/><path d="M99.0958904109589,840h25.479452054794535v20h-25.479452054794535Z" fill="rgb(237, 214, 178)"/><path d="M149.23287671232876,840h25.479452054794535v20h-25.479452054794535Z" fill="rgb(237, 213, 175)"/><path d="M48.99315068493151,860h25.445205479452056v20h-25.445205479452056Z" fill="rgb(159, 54, 50)"/><path d="M74.43835616438356,860h24.657534246575338v20h-24.657534246575338Z" fill="rgb(184, 86, 54)"/><path d="M174.7123287671233,860h25.479452054794535v20h-25.479452054794535Z" fill="rgb(184, 86, 54)"/><path d="M0.5,860h25.47945205479452v20h-25.47945205479452Z" fill="rgb(189, 96, 59)"/><path d="M124.57534246575344,860h24.657534246575324v20h-24.657534246575324Z" fill="rgb(167, 62, 51)"/><path d="M99.0958904109589,860h25.479452054794535v20h-25.479452054794535Z" fill="rgb(194, 107, 66)"/><path d="M25.97945205479452,860h23.013698630136986v20h-23.013698630136986Z" fill="rgb(178, 76, 52)"/><path d="M275.02054794520546,860h25.479452054794535v20h-25.479452054794535Z" fill="rgb(192, 102, 63)"/><path d="M200.19178082191783,860h24.657534246575324v20h-24.657534246575324Z" fill="rgb(175, 71, 52)"/><path d="M224.84931506849315,860h25.479452054794507v20h-25.479452054794507Z" fill="rgb(191, 101, 62)"/><path d="M250.32876712328766,860h24.691780821917803v20h-24.691780821917803Z" fill="rgb(192, 102, 63)"/><path d="M149.23287671232876,860h25.479452054794535v20h-25.479452054794535Z" fill="rgb(196, 113, 71)"/><path d="M25.97945205479452,880h23.013698630136986v20h-23.013698630136986Z" fill="rgb(238, 217, 185)"/><path d="M174.7123287671233,880h25.479452054794535v20h-25.479452054794535Z" fill="rgb(237, 208, 164)"/><path d="M48.99315068493151,880h25.445205479452056v20h-25.445205479452056Z" fill="rgb(237, 211, 171)"/><path d="M0.5,880h25.47945205479452v20h-25.47945205479452Z" fill="rgb(237, 211, 171)"/><path d="M250.32876712328766,880h24.691780821917803v20h-24.691780821917803Z" fill="rgb(237, 206, 160)"/><path d="M99.0958904109589,880h25.479452054794535v20h-25.479452054794535Z" fill="rgb(237, 214, 178)"/><path d="M224.84931506849315,880h25.479452054794507v20h-25.479452054794507Z" fill="rgb(237, 213, 175)"/><path d="M200.19178082191783,880h24.657534246575324v20h-24.657534246575324Z" fill="rgb(237, 210, 167)"/><path d="M275.02054794520546,880h25.479452054794535v20h-25.479452054794535Z" fill="rgb(238, 216, 182)"/><path d="M149.23287671232876,880h25.479452054794535v20h-25.479452054794535Z" fill="rgb(238, 216, 182)"/><path d="M124.57534246575344,880h24.657534246575324v20h-24.657534246575324Z" fill="rgb(237, 210, 167)"/><path d="M74.43835616438356,880h24.657534246575338v20h-24.657534246575338Z" fill="rgb(238, 217, 185)"/><path d="M124.57534246575344,920h24.657534246575324v20h-24.657534246575324Z" fill="rgb(238, 216, 182)"/><path d="M275.02054794520546,920h25.479452054794535v20h-25.479452054794535Z" fill="rgb(238, 217, 185)"/><path d="M74.43835616438356,920h24.657534246575338v20h-24.657534246575338Z" fill="rgb(237, 213, 175)"/><path d="M200.19178082191783,920h24.657534246575324v20h-24.657534246575324Z" fill="rgb(238, 217, 185)"/><path d="M48.99315068493151,920h25.445205479452056v20h-25.445205479452056Z" fill="rgb(237, 214, 178)"/><path d="M99.0958904109589,920h25.479452054794535v20h-25.479452054794535Z" fill="rgb(238, 216, 182)"/><path d="M174.7123287671233,920h25.479452054794535v20h-25.479452054794535Z" fill="rgb(237, 214, 178)"/><path d="M224.84931506849315,920h25.479452054794507v20h-25.479452054794507Z" fill="rgb(238, 216, 182)"/><path d="M0.5,920h25.47945205479452v20h-25.47945205479452Z" fill="rgb(238, 217, 185)"/><path d="M250.32876712328766,920h24.691780821917803v20h-24.691780821917803Z" fill="rgb(238, 217, 185)"/><path d="M149.23287671232876,920h25.479452054794535v20h-25.479452054794535Z" fill="rgb(238, 219, 189)"/><path d="M25.97945205479452,920h23.013698630136986v20h-23.013698630136986Z" fill="rgb(238, 216, 182)"/><path d="M124.57534246575344,900h24.657534246575324v20h-24.657534246575324Z" fill="rgb(236, 200, 147)"/><path d="M25.97945205479452,900h23.013698630136986v20h-23.013698630136986Z" fill="rgb(236, 200, 147)"/><path d="M48.99315068493151,900h25.445205479452056v20h-25.445205479452056Z" fill="rgb(236, 202, 149)"/><path d="M99.0958904109589,900h25.479452054794535v20h-25.479452054794535Z" fill="rgb(236, 203, 153)"/><path d="M149.23287671232876,900h25.479452054794535v20h-25.479452054794535Z" fill="rgb(237, 206, 160)"/><path d="M74.43835616438356,900h24.657534246575338v20h-24.657534246575338Z" fill="rgb(235, 197, 142)"/><path d="M275.02054794520546,900h25.479452054794535v20h-25.479452054794535Z" fill="rgb(238, 216, 182)"/><path d="M174.7123287671233,900h25.479452054794535v20h-25.479452054794535Z" fill="rgb(236, 203, 153)"/><path d="M200.19178082191783,900h24.657534246575324v20h-24.657534246575324Z" fill="rgb(237, 206, 160)"/><path d="M0.5,900h25.47945205479452v20h-25.47945205479452Z" fill="rgb(236, 202, 149)"/><path d="M224.84931506849315,900h25.479452054794507v20h-25.479452054794507Z" fill="rgb(237, 213, 175)"/><path d="M250.32876712328766,900h24.691780821917803v20h-24.691780821917803Z" fill="rgb(237, 214, 178)"/><path d="M174.7123287671233,940h25.479452054794535v20h-25.479452054794535Z" fill="rgb(233, 184, 121)"/><path d="M48.99315068493151,940h25.445205479452056v20h-25.445205479452056Z" fill="rgb(234, 192, 134)"/><path d="M124.57534246575344,940h24.657534246575324v20h-24.657534246575324Z" fill="rgb(234, 192, 134)"/><path d="M200.19178082191783,940h24.657534246575324v20h-24.657534246575324Z" fill="rgb(235, 199, 144)"/><path d="M250.32876712328766,940h24.691780821917803v20h-24.691780821917803Z" fill="rgb(237, 208, 164)"/><path d="M25.97945205479452,940h23.013698630136986v20h-23.013698630136986Z" fill="rgb(236, 200, 147)"/><path d="M99.0958904109589,940h25.479452054794535v20h-25.479452054794535Z" fill="rgb(235, 194, 137)"/><path d="M224.84931506849315,940h25.479452054794507v20h-25.479452054794507Z" fill="rgb(235, 195, 139)"/><path d="M74.43835616438356,940h24.657534246575338v20h-24.657534246575338Z" fill="rgb(235, 194, 137)"/><path d="M0.5,940h25.47945205479452v20h-25.47945205479452Z" fill="rgb(236, 203, 153)"/><path d="M149.23287671232876,940h25.479452054794535v20h-25.479452054794535Z" fill="rgb(236, 203, 153)"/><path d="M275.02054794520546,940h25.479452054794535v20h-25.479452054794535Z" fill="rgb(237, 208, 164)"/><path d="M250.32876712328766,980h24.691780821917803v20h-24.691780821917803Z" fill="rgb(237, 208, 164)"/><path d="M124.57534246575344,980h24.657534246575324v20h-24.657534246575324Z" fill="rgb(237, 214, 178)"/><path d="M174.7123287671233,980h25.479452054794535v20h-25.479452054794535Z" fill="rgb(237, 211, 171)"/><path d="M224.84931506849315,980h25.479452054794507v20h-25.479452054794507Z" fill="rgb(237, 206, 160)"/><path d="M0.5,980h25.47945205479452v20h-25.47945205479452Z" fill="rgb(237, 206, 160)"/><path d="M25.97945205479452,980h23.013698630136986v20h-23.013698630136986Z" fill="rgb(237, 206, 160)"/><path d="M48.99315068493151,980h25.445205479452056v20h-25.445205479452056Z" fill="rgb(236, 203, 153)"/><path d="M99.0958904109589,980h25.479452054794535v20h-25.479452054794535Z" fill="rgb(237, 213, 175)"/><path d="M275.02054794520546,980h25.479452054794535v20h-25.479452054794535Z" fill="rgb(237, 214, 178)"/><path d="M74.43835616438356,980h24.657534246575338v20h-24.657534246575338Z" fill="rgb(237, 213, 175)"/><path d="M149.23287671232876,980h25.479452054794535v20h-25.479452054794535Z" fill="rgb(237, 214, 178)"/><path d="M200.19178082191783,960h24.657534246575324v20h-24.657534246575324Z" fill="rgb(232, 183, 119)"/><path d="M275.02054794520546,960h25.479452054794535v20h-25.479452054794535Z" fill="rgb(235, 195, 139)"/><path d="M250.32876712328766,960h24.691780821917803v20h-24.691780821917803Z" fill="rgb(232, 183, 119)"/><path d="M224.84931506849315,960h25.479452054794507v20h-25.479452054794507Z" fill="rgb(234, 192, 134)"/><path d="M174.7123287671233,960h25.479452054794535v20h-25.479452054794535Z" fill="rgb(230, 173, 108)"/><path d="M124.57534246575344,960h24.657534246575324v20h-24.657534246575324Z" fill="rgb(231, 180, 115)"/><path d="M25.97945205479452,960h23.013698630136986v20h-23.013698630136986Z" fill="rgb(233, 186, 124)"/><path d="M99.0958904109589,960h25.479452054794535v20h-25.479452054794535Z" fill="rgb(234, 191, 131)"/><path d="M0.5,960h25.47945205479452v20h-25.47945205479452Z" fill="rgb(231, 180, 115)"/><path d="M74.43835616438356,960h24.657534246575338v20h-24.657534246575338Z" fill="rgb(231, 177, 112)"/><path d="M48.99315068493151,960h25.445205479452056v20h-25.445205479452056Z" fill="rgb(229, 172, 106)"/><path d="M149.23287671232876,960h25.479452054794535v20h-25.479452054794535Z" fill="rgb(234, 191, 131)"/><path d="M99.0958904109589,1000h25.479452054794535v20h-25.479452054794535Z" fill="rgb(238, 216, 182)"/><path d="M25.97945205479452,1000h23.013698630136986v20h-23.013698630136986Z" fill="rgb(237, 214, 178)"/><path d="M200.19178082191783,1000h24.657534246575324v20h-24.657534246575324Z" fill="rgb(238, 219, 189)"/><path d="M48.99315068493151,1000h25.445205479452056v20h-25.445205479452056Z" fill="rgb(237, 214, 178)"/><path d="M74.43835616438356,1000h24.657534246575338v20h-24.657534246575338Z" fill="rgb(238, 217, 185)"/><path d="M124.57534246575344,1000h24.657534246575324v20h-24.657534246575324Z" fill="rgb(238, 217, 185)"/><path d="M224.84931506849315,1000h25.479452054794507v20h-25.479452054794507Z" fill="rgb(238, 216, 182)"/><path d="M149.23287671232876,1000h25.479452054794535v20h-25.479452054794535Z" fill="rgb(238, 217, 185)"/><path d="M250.32876712328766,1000h24.691780821917803v20h-24.691780821917803Z" fill="rgb(238, 217, 185)"/><path d="M174.7123287671233,1000h25.479452054794535v20h-25.479452054794535Z" fill="rgb(238, 216, 182)"/><path d="M275.02054794520546,1000h25.479452054794535v20h-25.479452054794535Z" fill="rgb(238, 217, 185)"/><path d="M0.5,1000h25.47945205479452v20h-25.47945205479452Z" fill="rgb(237, 214, 178)"/></g><g class="mark-group role-legend" role="graphics-symbol" aria-roledescription="legend" aria-label="Gradient legend titled 'Survey Count' for fill color with values from 1 to 109"><g transform="translate(318,0)"><path class="background" aria-hidden="true" d="M0,0h94v226h-94Z" pointer-events="none"/><g><g class="mark-group role-legend-entry"><g transform="translate(1,25)"><path class="background" aria-hidden="true" d="M0,0h0v0h0Z" pointer-events="none"/><g><g class="mark-rect role-legend-gradient" pointer-events="none"><path d="M0,0h16v200h-16Z" fill="url(#gradient_0)" stroke="#ddd" stroke-width="0" opacity="1"/></g><g class="mark-text role-legend-label" pointer-events="none"><text text-anchor="start" transform="translate(18,167.8148148148148)" font-family="sans-serif" font-size="11px" fill="#333" opacity="1">20</text><text text-anchor="start" transform="translate(18,130.77777777777777)" font-family="sans-serif" font-size="11px" fill="#333" opacity="1">40</text><text text-anchor="start" transform="translate(18,93.74074074074075)" font-family="sans-serif" font-size="11px" fill="#333" opacity="1">60</text><text text-anchor="start" transform="translate(18,56.703703703703695)" font-family="sans-serif" font-size="11px" fill="#333" opacity="1">80</text><text text-anchor="start" transform="translate(18,19.666666666666675)" font-family="sans-serif" font-size="11px" fill="#333" opacity="1">100</text></g></g><path class="foreground" aria-hidden="true" d="" pointer-events="none" display="none"/></g></g><g class="mark-text role-legend-title" pointer-events="none"><text text-anchor="start" transform="translate(1,12)" font-family="sans-serif" font-size="14px" font-weight="bold" fill="#333" opacity="1">Survey Count</text></g></g><path class="foreground" aria-hidden="true" d="" pointer-events="none" display="none"/></g></g><g class="mark-group role-title"><g transform="translate(-54.1083984375,-35)"><path class="background" aria-hidden="true" d="M0,0h0v0h0Z" pointer-events="none"/><g><g class="mark-text role-title-text" role="graphics-symbol" aria-roledescription="title" aria-label="Title text '2023 Survey Counts by State'" pointer-events="none"><text text-anchor="start" transform="translate(100,12)" font-family="sans-serif" font-size="15px" font-weight="600" fill="#000" opacity="1">2023 Survey Counts by State</text></g></g><path class="foreground" aria-hidden="true" d="" pointer-events="none" display="none"/></g></g><g class="mark-group role-axis" role="graphics-symbol" aria-roledescription="axis" aria-label="Y-axis titled 'State' for a discrete scale with 51 values: AK, AL, AR, AZ, CA, ending with WY"><g transform="translate(0.5,0.5)"><path class="background" aria-hidden="true" d="M0,0h0v0h0Z" pointer-events="none"/><g><g class="mark-rule role-axis-tick" pointer-events="none"><line transform="translate(0,10)" x2="-10" y2="0" stroke="#cbcbcb" stroke-width="1" opacity="1"/><line transform="translate(0,30)" x2="-10" y2="0" stroke="#cbcbcb" stroke-width="1" opacity="1"/><line transform="translate(0,50)" x2="-10" y2="0" stroke="#cbcbcb" stroke-width="1" opacity="1"/><line transform="translate(0,70)" x2="-10" y2="0" stroke="#cbcbcb" stroke-width="1" opacity="1"/><line transform="translate(0,90)" x2="-10" y2="0" stroke="#cbcbcb" stroke-width="1" opacity="1"/><line transform="translate(0,110)" x2="-10" y2="0" stroke="#cbcbcb" stroke-width="1" opacity="1"/><line transform="translate(0,130)" x2="-10" y2="0" stroke="#cbcbcb" stroke-width="1" opacity="1"/><line transform="translate(0,150)" x2="-10" y2="0" stroke="#cbcbcb" stroke-width="1" opacity="1"/><line transform="translate(0,170)" x2="-10" y2="0" stroke="#cbcbcb" stroke-width="1" opacity="1"/><line transform="translate(0,190)" x2="-10" y2="0" stroke="#cbcbcb" stroke-width="1" opacity="1"/><line transform="translate(0,210)" x2="-10" y2="0" stroke="#cbcbcb" stroke-width="1" opacity="1"/><line transform="translate(0,230)" x2="-10" y2="0" stroke="#cbcbcb" stroke-width="1" opacity="1"/><line transform="translate(0,250)" x2="-10" y2="0" stroke="#cbcbcb" stroke-width="1" opacity="1"/><line transform="translate(0,270)" x2="-10" y2="0" stroke="#cbcbcb" stroke-width="1" opacity="1"/><line transform="translate(0,290)" x2="-10" y2="0" stroke="#cbcbcb" stroke-width="1" opacity="1"/><line transform="translate(0,310)" x2="-10" y2="0" stroke="#cbcbcb" stroke-width="1" opacity="1"/><line transform="translate(0,330)" x2="-10" y2="0" stroke="#cbcbcb" stroke-width="1" opacity="1"/><line transform="translate(0,350)" x2="-10" y2="0" stroke="#cbcbcb" stroke-width="1" opacity="1"/><line transform="translate(0,370)" x2="-10" y2="0" stroke="#cbcbcb" stroke-width="1" opacity="1"/><line transform="translate(0,390)" x2="-10" y2="0" stroke="#cbcbcb" stroke-width="1" opacity="1"/><line transform="translate(0,410)" x2="-10" y2="0" stroke="#cbcbcb" stroke-width="1" opacity="1"/><line transform="translate(0,430)" x2="-10" y2="0" stroke="#cbcbcb" stroke-width="1" opacity="1"/><line transform="translate(0,450)" x2="-10" y2="0" stroke="#cbcbcb" stroke-width="1" opacity="1"/><line transform="translate(0,470)" x2="-10" y2="0" stroke="#cbcbcb" stroke-width="1" opacity="1"/><line transform="translate(0,490)" x2="-10" y2="0" stroke="#cbcbcb" stroke-width="1" opacity="1"/><line transform="translate(0,510)" x2="-10" y2="0" stroke="#cbcbcb" stroke-width="1" opacity="1"/><line transform="translate(0,530)" x2="-10" y2="0" stroke="#cbcbcb" stroke-width="1" opacity="1"/><line transform="translate(0,550)" x2="-10" y2="0" stroke="#cbcbcb" stroke-width="1" opacity="1"/><line transform="translate(0,570)" x2="-10" y2="0" stroke="#cbcbcb" stroke-width="1" opacity="1"/><line transform="translate(0,590)" x2="-10" y2="0" stroke="#cbcbcb" stroke-width="1" opacity="1"/><line transform="translate(0,610)" x2="-10" y2="0" stroke="#cbcbcb" stroke-width="1" opacity="1"/><line transform="translate(0,630)" x2="-10" y2="0" stroke="#cbcbcb" stroke-width="1" opacity="1"/><line transform="translate(0,650)" x2="-10" y2="0" stroke="#cbcbcb" stroke-width="1" opacity="1"/><line transform="translate(0,670)" x2="-10" y2="0" stroke="#cbcbcb" stroke-width="1" opacity="1"/><line transform="translate(0,690)" x2="-10" y2="0" stroke="#cbcbcb" stroke-width="1" opacity="1"/><line transform="translate(0,710)" x2="-10" y2="0" stroke="#cbcbcb" stroke-width="1" opacity="1"/><line transform="translate(0,730)" x2="-10" y2="0" stroke="#cbcbcb" stroke-width="1" opacity="1"/><line transform="translate(0,750)" x2="-10" y2="0" stroke="#cbcbcb" stroke-width="1" opacity="1"/><line transform="translate(0,770)" x2="-10" y2="0" stroke="#cbcbcb" stroke-width="1" opacity="1"/><line transform="translate(0,790)" x2="-10" y2="0" stroke="#cbcbcb" stroke-width="1" opacity="1"/><line transform="translate(0,810)" x2="-10" y2="0" stroke="#cbcbcb" stroke-width="1" opacity="1"/><line transform="translate(0,830)" x2="-10" y2="0" stroke="#cbcbcb" stroke-width="1" opacity="1"/><line transform="translate(0,850)" x2="-10" y2="0" stroke="#cbcbcb" stroke-width="1" opacity="1"/><line transform="translate(0,870)" x2="-10" y2="0" stroke="#cbcbcb" stroke-width="1" opacity="1"/><line transform="translate(0,890)" x2="-10" y2="0" stroke="#cbcbcb" stroke-width="1" opacity="1"/><line transform="translate(0,910)" x2="-10" y2="0" stroke="#cbcbcb" stroke-width="1" opacity="1"/><line transform="translate(0,930)" x2="-10" y2="0" stroke="#cbcbcb" stroke-width="1" opacity="1"/><line transform="translate(0,950)" x2="-10" y2="0" stroke="#cbcbcb" stroke-width="1" opacity="1"/><line transform="translate(0,970)" x2="-10" y2="0" stroke="#cbcbcb" stroke-width="1" opacity="1"/><line transform="translate(0,990)" x2="-10" y2="0" stroke="#cbcbcb" stroke-width="1" opacity="1"/><line transform="translate(0,1010)" x2="-10" y2="0" stroke="#cbcbcb" stroke-width="1" opacity="1"/></g><g class="mark-text role-axis-label" pointer-events="none"><text text-anchor="end" transform="translate(-14,12.5)" font-family="sans-serif" font-size="10px" fill="#999" opacity="1">AK</text><text text-anchor="end" transform="translate(-14,32.5)" font-family="sans-serif" font-size="10px" fill="#999" opacity="1">AL</text><text text-anchor="end" transform="translate(-14,52.5)" font-family="sans-serif" font-size="10px" fill="#999" opacity="1">AR</text><text text-anchor="end" transform="translate(-14,72.5)" font-family="sans-serif" font-size="10px" fill="#999" opacity="1">AZ</text><text text-anchor="end" transform="translate(-14,92.5)" font-family="sans-serif" font-size="10px" fill="#999" opacity="1">CA</text><text text-anchor="end" transform="translate(-14,112.5)" font-family="sans-serif" font-size="10px" fill="#999" opacity="1">CO</text><text text-anchor="end" transform="translate(-14,132.5)" font-family="sans-serif" font-size="10px" fill="#999" opacity="1">CT</text><text text-anchor="end" transform="translate(-14,152.5)" font-family="sans-serif" font-size="10px" fill="#999" opacity="1">DC</text><text text-anchor="end" transform="translate(-14,172.5)" font-family="sans-serif" font-size="10px" fill="#999" opacity="1">DE</text><text text-anchor="end" transform="translate(-14,192.5)" font-family="sans-serif" font-size="10px" fill="#999" opacity="1">FL</text><text text-anchor="end" transform="translate(-14,212.5)" font-family="sans-serif" font-size="10px" fill="#999" opacity="1">GA</text><text text-anchor="end" transform="translate(-14,232.5)" font-family="sans-serif" font-size="10px" fill="#999" opacity="1">HI</text><text text-anchor="end" transform="translate(-14,252.5)" font-family="sans-serif" font-size="10px" fill="#999" opacity="1">IA</text><text text-anchor="end" transform="translate(-14,272.5)" font-family="sans-serif" font-size="10px" fill="#999" opacity="1">ID</text><text text-anchor="end" transform="translate(-14,292.5)" font-family="sans-serif" font-size="10px" fill="#999" opacity="1">IL</text><text text-anchor="end" transform="translate(-14,312.5)" font-family="sans-serif" font-size="10px" fill="#999" opacity="1">IN</text><text text-anchor="end" transform="translate(-14,332.5)" font-family="sans-serif" font-size="10px" fill="#999" opacity="1">KS</text><text text-anchor="end" transform="translate(-14,352.5)" font-family="sans-serif" font-size="10px" fill="#999" opacity="1">KY</text><text text-anchor="end" transform="translate(-14,372.5)" font-family="sans-serif" font-size="10px" fill="#999" opacity="1">LA</text><text text-anchor="end" transform="translate(-14,392.5)" font-family="sans-serif" font-size="10px" fill="#999" opacity="1">MA</text><text text-anchor="end" transform="translate(-14,412.5)" font-family="sans-serif" font-size="10px" fill="#999" opacity="1">MD</text><text text-anchor="end" transform="translate(-14,432.5)" font-family="sans-serif" font-size="10px" fill="#999" opacity="1">ME</text><text text-anchor="end" transform="translate(-14,452.5)" font-family="sans-serif" font-size="10px" fill="#999" opacity="1">MI</text><text text-anchor="end" transform="translate(-14,472.5)" font-family="sans-serif" font-size="10px" fill="#999" opacity="1">MN</text><text text-anchor="end" transform="translate(-14,492.5)" font-family="sans-serif" font-size="10px" fill="#999" opacity="1">MO</text><text text-anchor="end" transform="translate(-14,512.5)" font-family="sans-serif" font-size="10px" fill="#999" opacity="1">MS</text><text text-anchor="end" transform="translate(-14,532.5)" font-family="sans-serif" font-size="10px" fill="#999" opacity="1">MT</text><text text-anchor="end" transform="translate(-14,552.5)" font-family="sans-serif" font-size="10px" fill="#999" opacity="1">NC</text><text text-anchor="end" transform="translate(-14,572.5)" font-family="sans-serif" font-size="10px" fill="#999" opacity="1">ND</text><text text-anchor="end" transform="translate(-14,592.5)" font-family="sans-serif" font-size="10px" fill="#999" opacity="1">NE</text><text text-anchor="end" transform="translate(-14,612.5)" font-family="sans-serif" font-size="10px" fill="#999" opacity="1">NH</text><text text-anchor="end" transform="translate(-14,632.5)" font-family="sans-serif" font-size="10px" fill="#999" opacity="1">NJ</text><text text-anchor="end" transform="translate(-14,652.5)" font-family="sans-serif" font-size="10px" fill="#999" opacity="1">NM</text><text text-anchor="end" transform="translate(-14,672.5)" font-family="sans-serif" font-size="10px" fill="#999" opacity="1">NV</text><text text-anchor="end" transform="translate(-14,692.5)" font-family="sans-serif" font-size="10px" fill="#999" opacity="1">NY</text><text text-anchor="end" transform="translate(-14,712.5)" font-family="sans-serif" font-size="10px" fill="#999" opacity="1">OH</text><text text-anchor="end" transform="translate(-14,732.5)" font-family="sans-serif" font-size="10px" fill="#999" opacity="1">OK</text><text text-anchor="end" transform="translate(-14,752.5)" font-family="sans-serif" font-size="10px" fill="#999" opacity="1">OR</text><text text-anchor="end" transform="translate(-14,772.5)" font-family="sans-serif" font-size="10px" fill="#999" opacity="1">PA</text><text text-anchor="end" transform="translate(-14,792.5)" font-family="sans-serif" font-size="10px" fill="#999" opacity="1">RI</text><text text-anchor="end" transform="translate(-14,812.5)" font-family="sans-serif" font-size="10px" fill="#999" opacity="1">SC</text><text text-anchor="end" transform="translate(-14,832.5)" font-family="sans-serif" font-size="10px" fill="#999" opacity="1">SD</text><text text-anchor="end" transform="translate(-14,852.5)" font-family="sans-serif" font-size="10px" fill="#999" opacity="1">TN</text><text text-anchor="end" transform="translate(-14,872.5)" font-family="sans-serif" font-size="10px" fill="#999" opacity="1">TX</text><text text-anchor="end" transform="translate(-14,892.5)" font-family="sans-serif" font-size="10px" fill="#999" opacity="1">UT</text><text text-anchor="end" transform="translate(-14,912.5)" font-family="sans-serif" font-size="10px" fill="#999" opacity="1">VA</text><text text-anchor="end" transform="translate(-14,932.5)" font-family="sans-serif" font-size="10px" fill="#999" opacity="1">VT</text><text text-anchor="end" transform="translate(-14,952.5)" font-family="sans-serif" font-size="10px" fill="#999" opacity="1">WA</text><text text-anchor="end" transform="translate(-14,972.5)" font-family="sans-serif" font-size="10px" fill="#999" opacity="1">WI</text><text text-anchor="end" transform="translate(-14,992.5)" font-family="sans-serif" font-size="10px" fill="#999" opacity="1">WV</text><text text-anchor="end" transform="translate(-14,1012.5)" font-family="sans-serif" font-size="10px" fill="#999" opacity="1">WY</text></g><g class="mark-rule role-axis-domain" pointer-events="none"><line transform="translate(0,0)" x2="0" y2="1020" stroke="#cbcbcb" stroke-width="1" opacity="1"/></g><g class="mark-text role-axis-title" pointer-events="none"><text text-anchor="middle" transform="translate(-40.1083984375,510) rotate(-90) translate(0,-3)" font-family="sans-serif" font-size="14px" font-weight="bold" fill="#333" opacity="1">State</text></g></g><path class="foreground" aria-hidden="true" d="" pointer-events="none" display="none"/></g></g></g><path class="foreground" aria-hidden="true" d="" display="none"/></g></g></g><defs><linearGradient id="gradient_0" x1="0" x2="0" y1="1" y2="0"><stop offset="0" stop-color="rgb(238, 219, 189)"/><stop offset="0.08333333333333333" stop-color="rgb(236, 205, 157)"/><stop offset="0.17592592592592593" stop-color="rgb(234, 189, 129)"/><stop offset="0.26851851851851855" stop-color="rgb(230, 173, 108)"/><stop offset="0.3611111111111111" stop-color="rgb(223, 158, 92)"/><stop offset="0.4537037037037037" stop-color="rgb(214, 144, 85)"/><stop offset="0.5462962962962963" stop-color="rgb(204, 129, 80)"/><stop offset="0.6388888888888888" stop-color="rgb(196, 113, 71)"/><stop offset="0.7314814814814815" stop-color="rgb(189, 97, 60)"/><stop offset="0.8240740740740741" stop-color="rgb(181, 81, 53)"/><stop offset="0.9166666666666666" stop-color="rgb(171, 66, 51)"/><stop offset="1" stop-color="rgb(159, 54, 50)"/></linearGradient></defs></svg>