<svg xmlns="http://www.w3.org/2000/svg" xmlns:xlink="http://www.w3.org/1999/xlink" version="1.1" class="marks" width="372" height="398" viewBox="0 0 372 398"><rect width="372" height="398" fill="white"/><g fill="none" stroke-miterlimit="10" transform="translate(64,45)"><g class="mark-group role-frame root" role="graphics-object" aria-roledescription="group mark container"><g transform="translate(0,0)"><path class="background" aria-hidden="true" d="M0.5,0.5h300v300h-300Z" stroke="#ddd"/><g><g class="mark-group role-axis" aria-hidden="true"><g transform="translate(0.5,300.5)"><path class="background" aria-hidden="true" d="M0,0h0v0h0Z" pointer-events="none"/><g><g class="mark-rule role-axis-grid" pointer-events="none"><line transform="translate(0,-300)" x2="0" y2="300" stroke="#cbcbcb" stroke-width="1" opacity="1"/><line transform="translate(33,-300)" x2="0" y2="300" stroke="#cbcbcb" stroke-width="1" opacity="1"/><line transform="translate(67,-300)" x2="0" y2="300" stroke="#cbcbcb" stroke-width="1" opacity="1"/><line transform="translate(100,-300)" x2="0" y2="300" stroke="#cbcbcb" stroke-width="1" opacity="1"/><line transform="translate(133,-300)" x2="0" y2="300" stroke="#cbcbcb" stroke-width="1" opacity="1"/><line transform="translate(167,-300)" x2="0" y2="300" stroke="#cbcbcb" stroke-width="1" opacity="1"/><line transform="translate(200,-300)" x2="0" y2="300" stroke="#cbcbcb" stroke-width="1" opacity="1"/><line transform="translate(233,-300)" x2="0" y2="300" stroke="#cbcbcb" stroke-width="1" opacity="1"/><line transform="translate(267,-300)" x2="0" y2="300" stroke="#cbcbcb" stroke-width="1" opacity="1"/><line transform="translate(300,-300)" x2="0" y2="300" stroke="#cbcbcb" stroke-width="1" opacity="1"/></g></g><path class="foreground" aria-hidden="true" d="" pointer-events="none" display="none"/></g></g><g class="mark-group role-axis" aria-hidden="true"><g transform="translate(0.5,0.5)"><path class="background" aria-hidden="true" d="M0,0h0v0h0Z" pointer-events="none"/><g><g class="mark-rule role-axis-grid" pointer-events="none"><line transform="translate(0,300)" x2="300" y2="0" stroke="#cbcbcb" stroke-width="1" opacity="1"/><line transform="translate(0,267)" x2="300" y2="0" stroke="#cbcbcb" stroke-width="1" opacity="1"/><line transform="translate(0,233)" x2="300" y2="0" stroke="#cbcbcb" stroke-width="1" opacity="1"/><line transform="translate(0,200)" x2="300" y2="0" stroke="#cbcbcb" stroke-width="1" opacity="1"/><line transform="translate(0,167)" x2="300" y2="0" stroke="#cbcbcb" stroke-width="1" opacity="1"/><line transform="translate(0,133)" x2="300" y2="0" stroke="#cbcbcb" stroke-width="1" opacity="1"/><line transform="translate(0,100)" x2="300" y2="0" stroke="#cbcbcb" stroke-width="1" opacity="1"/><line transform="translate(0,67)" x2="300" y2="0" stroke="#cbcbcb" stroke-width="1" opacity="1"/><line transform="translate(0,33)" x2="300" y2="0" stroke="#cbcbcb" stroke-width="1" opacity="1"/><line transform="translate(0,0)" x2="300" y2="0" stroke="#cbcbcb" stroke-width="1" opacity="1"/></g></g><path class="foreground" aria-hidden="true" d="" pointer-events="none" display="none"/></g></g><g class="mark-group role-axis" role="graphics-symbol" aria-roledescription="axis" aria-label="X-axis titled '2022 State Surveyor Vacancy Rates' for a linear scale with values from 0% to 90%"><g transform="translate(0.5,300.5)"><path class="background" aria-hidden="true" d="M0,0h0v0h0Z" pointer-events="none"/><g><g class="mark-rule role-axis-tick" pointer-events="none"><line transform="translate(0,0)" x2="0" y2="10" stroke="#cbcbcb" stroke-width="1" opacity="1"/><line transform="translate(33,0)" x2="0" y2="10" stroke="#cbcbcb" stroke-width="1" opacity="1"/><line transform="translate(67,0)" x2="0" y2="10" stroke="#cbcbcb" stroke-width="1" opacity="1"/><line transform="translate(100,0)" x2="0" y2="10" stroke="#cbcbcb" stroke-width="1" opacity="1"/><line transform="translate(133,0)" x2="0" y2="10" stroke="#cbcbcb" stroke-width="1" opacity="1"/><line transform="translate(167,0)" x2="0" y2="10" stroke="#cbcbcb" stroke-width="1" opacity="1"/><line transform="translate(200,0)" x2="0" y2="10" stroke="#cbcbcb" stroke-width="1" opacity="1"/><line transform="translate(233,0)" x2="0" y2="10" stroke="#cbcbcb" stroke-width="1" opacity="1"/><line transform="translate(267,0)" x2="0" y2="10" stroke="#cbcbcb" stroke-width="1" opacity="1"/><line transform="translate(300,0)" x2="0" y2="10" stroke="#cbcbcb" stroke-width="1" opacity="1"/></g><g class="mark-text role-axis-label" pointer-events="none"><text text-anchor="start" transform="translate(0,22)" font-family="sans-serif" font-size="10px" fill="#999" opacity="1">0%</text><text text-anchor="middle" transform="translate(33.333333333333336,22)" font-family="sans-serif" font-size="10px" fill="#999" opacity="1">10%</text><text text-anchor="middle" transform="translate(66.66666666666667,22)" font-family="sans-serif" font-size="10px" fill="#999" opacity="1">20%</text><text text-anchor="middle" transform="translate(100,22)" font-family="sans-serif" font-size="10px" fill="#999" opacity="1">30%</text><text text-anchor="middle" transform="translate(133.33333333333334,22)" font-family="sans-serif" font-size="10px" fill="#999" opacity="1">40%</text><text text-anchor="middle" transform="translate(166.66666666666669,22)" font-family="sans-serif" font-size="10px" fill="#999" opacity="1">50%</text><text text-anchor="middle" transform="translate(200,22)" font-family="sans-serif" font-size="10px" fill="#999" opacity="1">60%</text><text text-anchor="middle" transform="translate(233.33333333333331,22)" font-family="sans-serif" font-size="10px" fill="#999" opacity="1">70%</text><text text-anchor="middle" transform="translate(266.6666666666667,22)" font-family="sans-serif" font-size="10px" fill="#999" opacity="1">80%</text><text text-anchor="end" transform="translate(300,22)" font-family="sans-serif" font-size="10px" fill="#999" opacity="1">90%</text></g><g class="mark-rule role-axis-domain" pointer-events="none"><line transform="translate(0,0)" x2="300" y2="0" stroke="#cbcbcb" stroke-width="1" opacity="1"/></g><g class="mark-text role-axis-title" pointer-events="none"><text text-anchor="middle" transform="translate(150,45)" font-family="sans-serif" font-size="14px" font-weight="bold" fill="#333" opacity="1">2022 State Surveyor Vacancy Rates</text></g></g><path class="foreground" aria-hidden="true" d="" pointer-events="none" display="none"/></g></g><g class="mark-group role-axis" role="graphics-symbol" aria-roledescription="axis" aria-label="Y-axis titled 'State Overdue Survey Rate as of April 1, 2023' for a linear scale with values from 0% to 90%"><g transform="translate(0.5,0.5)"><path class="background" aria-hidden="true" d="M0,0h0v0h0Z" pointer-events="none"/><g><g class="mark-rule role-axis-tick" pointer-events="none"><line transform="translate(0,300)" x2="-10" y2="0" stroke="#cbcbcb" stroke-width="1" opacity="1"/><line transform="translate(0,267)" x2="-10" y2="0" stroke="#cbcbcb" stroke-width="1" opacity="1"/><line transform="translate(0,233)" x2="-10" y2="0" stroke="#cbcbcb" stroke-width="1" opacity="1"/><line transform="translate(0,200)" x2="-10" y2="0" stroke="#cbcbcb" stroke-width="1" opacity="1"/><line transform="translate(0,167)" x2="-10" y2="0" stroke="#cbcbcb" stroke-width="1" opacity="1"/><line transform="translate(0,133)" x2="-10" y2="0" stroke="#cbcbcb" stroke-width="1" opacity="1"/><line transform="translate(0,100)" x2="-10" y2="0" stroke="#cbcbcb" stroke-width="1" opacity="1"/><line transform="translate(0,67)" x2="-10" y2="0" stroke="#cbcbcb" stroke-width="1" opacity="1"/><line transform="translate(0,33)" x2="-10" y2="0" stroke="#cbcbcb" stroke-width="1" opacity="1"/><line transform="translate(0,0)" x2="-10" y2="0" stroke="#cbcbcb" stroke-width="1" opacity="1"/></g><g class="mark-text role-axis-label" pointer-events="none"><text text-anchor="end" transform="translate(-14,303)" font-family="sans-serif" font-size="10px" fill="#999" opacity="1">0%</text><text text-anchor="end" transform="translate(-14,269.66666666666663)" font-family="sans-serif" font-size="10px" fill="#999" opacity="1">10%</text><text text-anchor="end" transform="translate(-14,236.33333333333334)" font-family="sans-serif" font-size="10px" fill="#999" opacity="1">20%</text><text text-anchor="end" transform="translate(-14,203.00000000000003)" font-family="sans-serif" font-size="10px" fill="#999" opacity="1">30%</text><text text-anchor="end" transform="translate(-14,169.66666666666669)" font-family="sans-serif" font-size="10px" fill="#999" opacity="1">40%</text><text text-anchor="end" transform="translate(-14,136.33333333333331)" font-family="sans-serif" font-size="10px" fill="#999" opacity="1">50%</text><text text-anchor="end" transform="translate(-14,103.00000000000001)" font-family="sans-serif" font-size="10px" fill="#999" opacity="1">60%</text><text text-anchor="end" transform="translate(-14,69.6666666666667)" font-family="sans-serif" font-size="10px" fill="#999" opacity="1">70%</text><text text-anchor="end" transform="translate(-14,36.333333333333314)" font-family="sans-serif" font-size="10px" fill="#999" opacity="1">80%</text><text text-anchor="end" transform="translate(-14,3)" font-family="sans-serif" font-size="10px" fill="#999" opacity="1">90%</text></g><g class="mark-rule role-axis-domain" pointer-events="none"><line transform="translate(0,300)" x2="0" y2="-300" stroke="#cbcbcb" stroke-width="1" opacity="1"/></g><g class="mark-text role-axis-title" pointer-events="none"><text text-anchor="middle" transform="translate(-44.0146484375,150) rotate(-90) translate(0,-3)" font-family="sans-serif" font-size="14px" font-weight="bold" fill="#333" opacity="1">State Overdue Survey Rate as of April 1, 2023</text></g></g><path class="foreground" aria-hidden="true" d="" pointer-events="none" display="none"/></g></g><g class="mark-symbol role-mark layer_0_marks" role="graphics-symbol" aria-roledescription="symbol mark container"><path transform="translate(266.6666666666667,82.73809523809524)" d="M2.739,0A2.739,2.739,0,1,1,-2.739,0A2.739,2.739,0,1,1,2.739,0" fill="#74372F" stroke-width="2" opacity="0.7"/><path transform="translate(119.99999999999999,283.3333333333333)" d="M2.739,0A2.739,2.739,0,1,1,-2.739,0A2.739,2.739,0,1,1,2.739,0" fill="#74372F" stroke-width="2" opacity="0.7"/><path transform="translate(133.33333333333334,297.6525821596244)" d="M2.739,0A2.739,2.739,0,1,1,-2.739,0A2.739,2.739,0,1,1,2.739,0" fill="#74372F" stroke-width="2" opacity="0.7"/><path transform="translate(156.66666666666663,280.3030303030303)" d="M2.739,0A2.739,2.739,0,1,1,-2.739,0A2.739,2.739,0,1,1,2.739,0" fill="#74372F" stroke-width="2" opacity="0.7"/><path transform="translate(46.666666666666664,154.52462772050401)" d="M2.739,0A2.739,2.739,0,1,1,-2.739,0A2.739,2.739,0,1,1,2.739,0" fill="#74372F" stroke-width="2" opacity="0.7"/><path transform="translate(90,216.27172195892575)" d="M2.739,0A2.739,2.739,0,1,1,-2.739,0A2.739,2.739,0,1,1,2.739,0" fill="#74372F" stroke-width="2" opacity="0.7"/><path transform="translate(106.66666666666667,155.67010309278348)" d="M2.739,0A2.739,2.739,0,1,1,-2.739,0A2.739,2.739,0,1,1,2.739,0" fill="#74372F" stroke-width="2" opacity="0.7"/><path transform="translate(126.66666666666667,156.06060606060606)" d="M2.739,0A2.739,2.739,0,1,1,-2.739,0A2.739,2.739,0,1,1,2.739,0" fill="#74372F" stroke-width="2" opacity="0.7"/><path transform="translate(83.33333333333334,233.42911877394639)" d="M2.739,0A2.739,2.739,0,1,1,-2.739,0A2.739,2.739,0,1,1,2.739,0" fill="#74372F" stroke-width="2" opacity="0.7"/><path transform="translate(150,267.32026143790847)" d="M2.739,0A2.739,2.739,0,1,1,-2.739,0A2.739,2.739,0,1,1,2.739,0" fill="#74372F" stroke-width="2" opacity="0.7"/><path transform="translate(166.66666666666669,292.06349206349205)" d="M2.739,0A2.739,2.739,0,1,1,-2.739,0A2.739,2.739,0,1,1,2.739,0" fill="#74372F" stroke-width="2" opacity="0.7"/><path transform="translate(236.66666666666666,41.66666666666665)" d="M2.739,0A2.739,2.739,0,1,1,-2.739,0A2.739,2.739,0,1,1,2.739,0" fill="#74372F" stroke-width="2" opacity="0.7"/><path transform="translate(73.33333333333333,296.5686274509804)" d="M2.739,0A2.739,2.739,0,1,1,-2.739,0A2.739,2.739,0,1,1,2.739,0" fill="#74372F" stroke-width="2" opacity="0.7"/><path transform="translate(3.3333333333333335,273.25505544683625)" d="M2.739,0A2.739,2.739,0,1,1,-2.739,0A2.739,2.739,0,1,1,2.739,0" fill="#74372F" stroke-width="2" opacity="0.7"/><path transform="translate(29.999999999999996,284.32343234323434)" d="M2.739,0A2.739,2.739,0,1,1,-2.739,0A2.739,2.739,0,1,1,2.739,0" fill="#74372F" stroke-width="2" opacity="0.7"/><path transform="translate(170,240.98360655737704)" d="M2.739,0A2.739,2.739,0,1,1,-2.739,0A2.739,2.739,0,1,1,2.739,0" fill="#74372F" stroke-width="2" opacity="0.7"/><path transform="translate(276.66666666666663,27.38537794299878)" d="M2.739,0A2.739,2.739,0,1,1,-2.739,0A2.739,2.739,0,1,1,2.739,0" fill="#74372F" stroke-width="2" opacity="0.7"/><path transform="translate(13.333333333333334,297.5031210986267)" d="M2.739,0A2.739,2.739,0,1,1,-2.739,0A2.739,2.739,0,1,1,2.739,0" fill="#74372F" stroke-width="2" opacity="0.7"/><path transform="translate(66.66666666666667,233.33333333333334)" d="M2.739,0A2.739,2.739,0,1,1,-2.739,0A2.739,2.739,0,1,1,2.739,0" fill="#74372F" stroke-width="2" opacity="0.7"/><path transform="translate(46.666666666666664,35.73573573573573)" d="M2.739,0A2.739,2.739,0,1,1,-2.739,0A2.739,2.739,0,1,1,2.739,0" fill="#74372F" stroke-width="2" opacity="0.7"/><path transform="translate(13.333333333333334,218.84057971014494)" d="M2.739,0A2.739,2.739,0,1,1,-2.739,0A2.739,2.739,0,1,1,2.739,0" fill="#74372F" stroke-width="2" opacity="0.7"/><path transform="translate(40,290.5660377358491)" d="M2.739,0A2.739,2.739,0,1,1,-2.739,0A2.739,2.739,0,1,1,2.739,0" fill="#74372F" stroke-width="2" opacity="0.7"/><path transform="translate(73.33333333333333,250.43731778425655)" d="M2.739,0A2.739,2.739,0,1,1,-2.739,0A2.739,2.739,0,1,1,2.739,0" fill="#74372F" stroke-width="2" opacity="0.7"/><path transform="translate(180,174.58745874587459)" d="M2.739,0A2.739,2.739,0,1,1,-2.739,0A2.739,2.739,0,1,1,2.739,0" fill="#74372F" stroke-width="2" opacity="0.7"/><path transform="translate(40,160.43360433604335)" d="M2.739,0A2.739,2.739,0,1,1,-2.739,0A2.739,2.739,0,1,1,2.739,0" fill="#74372F" stroke-width="2" opacity="0.7"/><path transform="translate(76.66666666666666,300)" d="M2.739,0A2.739,2.739,0,1,1,-2.739,0A2.739,2.739,0,1,1,2.739,0" fill="#74372F" stroke-width="2" opacity="0.7"/><path transform="translate(80,285.5072463768116)" d="M2.739,0A2.739,2.739,0,1,1,-2.739,0A2.739,2.739,0,1,1,2.739,0" fill="#74372F" stroke-width="2" opacity="0.7"/><path transform="translate(139.99999999999997,270.14925373134326)" d="M2.739,0A2.739,2.739,0,1,1,-2.739,0A2.739,2.739,0,1,1,2.739,0" fill="#74372F" stroke-width="2" opacity="0.7"/><path transform="translate(53.333333333333336,290.990990990991)" d="M2.739,0A2.739,2.739,0,1,1,-2.739,0A2.739,2.739,0,1,1,2.739,0" fill="#74372F" stroke-width="2" opacity="0.7"/><path transform="translate(176.66666666666669,158.3815028901734)" d="M2.739,0A2.739,2.739,0,1,1,-2.739,0A2.739,2.739,0,1,1,2.739,0" fill="#74372F" stroke-width="2" opacity="0.7"/><path transform="translate(63.333333333333336,290.19607843137254)" d="M2.739,0A2.739,2.739,0,1,1,-2.739,0A2.739,2.739,0,1,1,2.739,0" fill="#74372F" stroke-width="2" opacity="0.7"/><path transform="translate(196.66666666666666,165.11885019347707)" d="M2.739,0A2.739,2.739,0,1,1,-2.739,0A2.739,2.739,0,1,1,2.739,0" fill="#74372F" stroke-width="2" opacity="0.7"/><path transform="translate(66.66666666666667,266.5871121718377)" d="M2.739,0A2.739,2.739,0,1,1,-2.739,0A2.739,2.739,0,1,1,2.739,0" fill="#74372F" stroke-width="2" opacity="0.7"/><path transform="translate(0,286.6666666666667)" d="M2.739,0A2.739,2.739,0,1,1,-2.739,0A2.739,2.739,0,1,1,2.739,0" fill="#74372F" stroke-width="2" opacity="0.7"/><path transform="translate(83.33333333333334,180.15787585217078)" d="M2.739,0A2.739,2.739,0,1,1,-2.739,0A2.739,2.739,0,1,1,2.739,0" fill="#74372F" stroke-width="2" opacity="0.7"/><path transform="translate(150,222.1835075493612)" d="M2.739,0A2.739,2.739,0,1,1,-2.739,0A2.739,2.739,0,1,1,2.739,0" fill="#74372F" stroke-width="2" opacity="0.7"/><path transform="translate(76.66666666666666,227.08333333333331)" d="M2.739,0A2.739,2.739,0,1,1,-2.739,0A2.739,2.739,0,1,1,2.739,0" fill="#74372F" stroke-width="2" opacity="0.7"/><path transform="translate(43.333333333333336,297.00598802395206)" d="M2.739,0A2.739,2.739,0,1,1,-2.739,0A2.739,2.739,0,1,1,2.739,0" fill="#74372F" stroke-width="2" opacity="0.7"/><path transform="translate(23.333333333333332,300)" d="M2.739,0A2.739,2.739,0,1,1,-2.739,0A2.739,2.739,0,1,1,2.739,0" fill="#74372F" stroke-width="2" opacity="0.7"/><path transform="translate(193.33333333333331,197.7072310405644)" d="M2.739,0A2.739,2.739,0,1,1,-2.739,0A2.739,2.739,0,1,1,2.739,0" fill="#74372F" stroke-width="2" opacity="0.7"/><path transform="translate(56.666666666666664,279.3814432989691)" d="M2.739,0A2.739,2.739,0,1,1,-2.739,0A2.739,2.739,0,1,1,2.739,0" fill="#74372F" stroke-width="2" opacity="0.7"/><path transform="translate(63.333333333333336,119.07894736842107)" d="M2.739,0A2.739,2.739,0,1,1,-2.739,0A2.739,2.739,0,1,1,2.739,0" fill="#74372F" stroke-width="2" opacity="0.7"/><path transform="translate(43.333333333333336,297.46835443037975)" d="M2.739,0A2.739,2.739,0,1,1,-2.739,0A2.739,2.739,0,1,1,2.739,0" fill="#74372F" stroke-width="2" opacity="0.7"/><path transform="translate(83.33333333333334,211.56462585034012)" d="M2.739,0A2.739,2.739,0,1,1,-2.739,0A2.739,2.739,0,1,1,2.739,0" fill="#74372F" stroke-width="2" opacity="0.7"/><path transform="translate(20,300)" d="M2.739,0A2.739,2.739,0,1,1,-2.739,0A2.739,2.739,0,1,1,2.739,0" fill="#74372F" stroke-width="2" opacity="0.7"/><path transform="translate(103.33333333333333,181.60919540229884)" d="M2.739,0A2.739,2.739,0,1,1,-2.739,0A2.739,2.739,0,1,1,2.739,0" fill="#74372F" stroke-width="2" opacity="0.7"/><path transform="translate(26.666666666666668,246.45941278065632)" d="M2.739,0A2.739,2.739,0,1,1,-2.739,0A2.739,2.739,0,1,1,2.739,0" fill="#74372F" stroke-width="2" opacity="0.7"/><path transform="translate(139.99999999999997,289.159891598916)" d="M2.739,0A2.739,2.739,0,1,1,-2.739,0A2.739,2.739,0,1,1,2.739,0" fill="#74372F" stroke-width="2" opacity="0.7"/><path transform="translate(46.666666666666664,297.95501022494886)" d="M2.739,0A2.739,2.739,0,1,1,-2.739,0A2.739,2.739,0,1,1,2.739,0" fill="#74372F" stroke-width="2" opacity="0.7"/><path transform="translate(73.33333333333333,300)" d="M2.739,0A2.739,2.739,0,1,1,-2.739,0A2.739,2.739,0,1,1,2.739,0" fill="#74372F" stroke-width="2" opacity="0.7"/></g><g class="mark-line role-mark layer_1_marks" role="graphics-symbol" aria-roledescription="line mark container"><path d="M0,285.37L276.667,125.775" stroke="#74372F" stroke-width="2"/></g><g class="mark-group role-title"><g transform="translate(-58.0146484375,-40)"><path class="background" aria-hidden="true" d="M0,0h0v0h0Z" pointer-events="none"/><g><g class="mark-text role-title-text" role="graphics-symbol" aria-roledescription="title" aria-label="Title text 'Surveyor Vacancy Rates by Overdue Survey Rates'" pointer-events="none"><text text-anchor="start" transform="translate(0,12)" font-family="sans-serif" font-size="15px" font-weight="600" fill="#000" opacity="1">Surveyor Vacancy Rates by Overdue Survey Rates</text></g></g><path class="foreground" aria-hidden="true" d="" pointer-events="none" display="none"/></g></g></g><path class="foreground" aria-hidden="true" d="" display="none"/></g></g></g></svg>